<svg xmlns="http://www.w3.org/2000/svg" xmlns:xlink="http://www.w3.org/1999/xlink" preserveAspectRatio="xMidYMid" width="132.97" height="47.031" viewBox="0 0 132.97 47.031">
  <defs>
    <style>
      .cls-1 {
        fill: #fff;
        fill-rule: evenodd;
      }
    </style>
  </defs>
  <path d="M132.977,7.527 L132.606,8.405 L129.257,6.835 L125.303,9.375 L129.257,11.776 L132.421,10.252 L132.791,11.084 L130.187,12.423 L132.652,13.993 L132.188,14.732 L129.721,13.209 L129.721,16.304 L128.791,16.304 L128.791,12.608 L124.885,10.206 L124.885,14.918 L127.862,16.764 L127.351,17.550 L124.885,15.980 L124.885,18.751 L123.954,18.751 L123.954,16.025 L121.303,17.688 L120.838,16.903 L123.954,14.918 L123.954,10.206 L120.002,12.747 L120.047,16.211 L119.163,16.211 L119.117,13.348 L116.745,14.825 L116.232,14.040 L118.558,12.608 L115.721,11.314 L116.094,10.391 L119.443,12.007 L123.536,9.375 L119.443,6.835 L116.232,8.312 L115.907,7.481 L118.558,6.234 L116.187,4.802 L116.652,4.016 L119.025,5.494 L119.025,2.354 L119.908,2.354 L119.908,6.003 L123.954,8.498 L123.954,4.016 L121.023,2.169 L121.488,1.384 L123.954,2.862 L123.954,-0.002 L124.885,-0.002 L124.885,2.862 L127.489,1.198 L128.000,2.031 L124.885,3.970 L124.885,8.498 L128.699,6.095 L128.652,2.631 L129.628,2.631 L129.676,5.494 L132.094,3.831 L132.606,4.618 L130.187,6.234 L132.977,7.527 ZM112.838,24.293 C110.325,23.416 108.047,22.632 105.907,21.939 C97.255,18.982 91.209,17.227 87.767,16.673 C81.117,15.610 73.394,16.487 64.511,19.352 L72.371,26.742 L55.347,18.244 C50.789,16.487 46.789,15.749 43.393,16.211 C40.137,16.673 35.626,18.474 29.765,21.477 L33.580,26.742 L25.486,20.552 C21.020,17.319 17.253,16.211 14.323,17.227 C12.091,17.873 7.346,21.152 -0.003,27.157 C6.462,16.581 11.300,10.714 14.555,9.652 C17.951,8.404 22.323,11.315 27.673,18.381 C34.184,12.053 39.626,8.635 43.905,8.174 C48.277,7.711 53.626,10.161 59.859,15.379 C69.812,9.282 78.789,7.066 86.651,8.866 C91.162,9.928 97.534,12.885 105.907,17.919 C108.047,19.259 110.420,20.691 112.838,22.262 C114.931,23.601 117.210,25.125 119.536,26.742 C117.210,25.863 114.931,25.079 112.838,24.293 ZM14.137,31.546 C15.531,30.021 17.114,29.237 18.974,29.237 C21.022,29.237 22.696,29.975 24.044,31.499 C25.393,33.024 26.044,35.148 26.044,37.919 C25.998,40.877 25.347,43.094 23.997,44.663 C22.650,46.235 21.022,47.019 19.067,47.019 C18.091,46.972 17.159,46.696 16.277,46.281 C15.299,45.773 14.510,45.079 13.858,44.156 L13.858,46.603 L9.766,46.603 L9.766,23.184 L14.137,23.184 L14.137,31.546 ZM14.927,41.707 C15.718,42.862 16.695,43.416 17.998,43.509 C18.974,43.416 19.811,43.047 20.509,42.215 C21.161,41.338 21.532,39.999 21.532,38.197 C21.532,36.257 21.161,34.824 20.463,33.994 C19.811,33.116 18.928,32.653 17.857,32.653 C16.787,32.653 15.904,33.071 15.160,33.901 C14.462,34.732 14.091,35.981 14.091,37.736 C14.091,39.445 14.415,40.784 14.927,41.707 ZM33.951,37.412 C33.905,39.813 33.998,41.292 34.183,41.846 C34.324,42.401 34.603,42.817 35.068,43.093 C35.533,43.416 35.998,43.601 36.650,43.601 C37.440,43.601 38.137,43.416 38.742,42.955 C39.300,42.492 39.718,41.984 39.952,41.339 C40.184,40.692 40.277,39.214 40.323,36.765 L40.323,29.651 L44.650,29.651 L44.650,46.605 L40.557,46.605 L40.557,44.063 C39.952,44.988 39.162,45.679 38.231,46.233 C37.207,46.695 36.184,46.973 35.068,47.019 C33.905,46.973 32.928,46.695 32.045,46.233 C31.161,45.725 30.510,45.033 30.137,44.155 C29.719,43.231 29.533,41.984 29.533,40.368 L29.533,29.651 L33.951,29.651 L33.951,37.412 ZM53.534,35.611 L58.695,29.651 L64.185,29.651 L58.417,35.842 L64.650,46.605 L59.813,46.605 L55.627,39.029 L53.534,41.200 L53.534,46.605 L49.114,46.605 L49.114,23.184 L53.534,23.184 L53.534,35.611 ZM70.325,30.344 C71.674,29.560 73.116,29.237 74.789,29.237 C77.303,29.237 79.348,30.114 80.976,31.777 C82.649,33.394 83.441,35.564 83.441,38.058 C83.441,40.599 82.649,42.724 80.976,44.433 C79.348,46.143 77.303,46.973 74.836,47.019 C73.302,47.019 71.813,46.650 70.418,45.957 C69.022,45.218 67.999,44.247 67.208,42.909 C66.511,41.523 66.186,39.815 66.186,37.873 C66.186,36.395 66.511,34.965 67.208,33.532 C67.999,32.192 68.975,31.084 70.325,30.344 ZM71.906,41.984 C72.696,42.909 73.626,43.324 74.789,43.416 C75.952,43.324 76.930,42.909 77.674,41.984 C78.417,41.107 78.837,39.815 78.883,38.058 C78.837,36.441 78.417,35.148 77.674,34.271 C76.930,33.348 75.952,32.931 74.789,32.931 C73.626,32.931 72.696,33.348 71.906,34.271 C71.070,35.148 70.696,36.441 70.743,38.105 C70.696,39.815 71.070,41.107 71.906,41.984 ZM93.442,41.200 C93.675,40.461 93.860,39.998 93.906,39.767 C94.047,39.258 94.186,38.750 94.326,38.289 L97.582,29.651 L102.094,29.651 L95.441,46.605 L91.442,46.605 L84.744,29.651 L89.347,29.651 L93.442,41.200 ZM105.674,31.639 C107.164,30.021 108.930,29.237 111.164,29.237 C113.628,29.237 115.583,30.114 117.070,31.777 C117.118,31.822 117.118,31.822 117.118,31.869 C118.466,33.486 119.163,36.026 119.117,39.352 L108.047,39.352 C108.093,40.692 108.466,41.800 109.162,42.538 C109.814,43.279 110.653,43.647 111.722,43.647 C112.372,43.647 112.931,43.416 113.396,43.047 C113.861,42.678 114.233,42.031 114.511,41.200 L118.839,41.984 C118.280,43.647 117.397,44.895 116.187,45.726 C114.931,46.559 113.442,46.973 111.582,47.019 C108.698,47.019 106.558,46.050 105.210,44.155 C104.046,42.538 103.488,40.553 103.488,38.243 C103.488,35.611 104.140,33.439 105.443,31.869 C105.488,31.777 105.581,31.684 105.674,31.639 ZM114.745,36.672 C114.700,35.335 114.419,34.363 113.767,33.718 C113.117,33.024 112.372,32.655 111.444,32.655 C110.511,32.655 109.721,33.024 109.070,33.763 C108.419,34.455 108.093,35.425 108.093,36.672 L114.745,36.672 ZM127.164,46.605 L122.747,46.605 L122.747,23.186 L127.164,23.186 L127.164,46.605 Z" class="cls-1"/>
</svg>
