<?xml version="1.0" encoding="utf-8"?>
<!-- Generator: Adobe Illustrator 19.1.0, SVG Export Plug-In . SVG Version: 6.00 Build 0)  -->
<svg version="1.1" id="Layer_1" xmlns="http://www.w3.org/2000/svg" xmlns:xlink="http://www.w3.org/1999/xlink" x="0px" y="0px"
	 viewBox="-332 111 700 460" style="enable-background:new -332 111 700 460;" xml:space="preserve">
<style type="text/css">
	.st0{fill:#111111;}
</style>
<path class="st0" d="M-136.8,283c-0.8-3.2-1.3-5.4-1.5-6.8c-0.2,1.3-0.7,3.4-1.3,6.3c-0.7,2.9-2.1,8.7-4.4,17.2h11.6l-2.4-9
	C-135.4,288.7-136.1,286.2-136.8,283z"/>
<path class="st0" d="M-138.6,462.2h-2.9v12.5h2.8c5.2,0,7.7-2.3,7.7-6.8C-131,464.1-133.6,462.2-138.6,462.2z"/>
<path class="st0" d="M-331.7,111v460h700V111H-331.7z M-12.4,306.2c2.8,1.4,5.7,2.6,8.8,3.4c3,0.8,5.8,1.2,8.4,1.2
	c2.2,0,3.8-0.4,4.8-1.1c1-0.8,1.5-1.7,1.5-2.9c0-0.7-0.2-1.4-0.6-2c-0.4-0.6-1.1-1.1-2-1.7c-0.9-0.6-3.3-1.7-7.3-3.5
	c-3.6-1.6-6.2-3.2-8-4.7c-1.8-1.5-3.1-3.3-4-5.2c-0.9-2-1.3-4.3-1.3-7c0-5,1.8-9,5.5-11.8c3.7-2.8,8.7-4.2,15.1-4.2
	c5.7,0,11.4,1.3,17.3,3.9L21.3,282c-5.1-2.3-9.5-3.5-13.2-3.5c-1.9,0-3.3,0.3-4.2,1C3,280.1,2.6,281,2.6,282c0,1.1,0.6,2,1.7,2.9
	c1.1,0.8,4.1,2.4,9,4.6c4.7,2.1,8,4.4,9.8,6.8c1.8,2.4,2.7,5.5,2.7,9.2c0,3.4-0.9,6.4-2.6,9c-1.7,2.6-4.2,4.7-7.4,6.1
	c-3.2,1.5-7,2.2-11.4,2.2c-3.6,0-6.7-0.3-9.2-0.8c-2.5-0.5-5-1.4-7.7-2.7V306.2z M-59.1,267.4h41.4v12.1H-31V322h-14.8v-42.5h-13.3
	V267.4z M-103.5,280c2.1-4.3,5.2-7.6,9.2-9.9c4-2.3,8.7-3.5,14.1-3.5c5.9,0,11.5,1.3,16.9,3.8l-4.5,11.6c-2-0.9-4-1.7-6.1-2.4
	c-2-0.6-4.2-1-6.5-1c-3.5,0-6.2,1.4-8.2,4.3c-2,2.9-3,6.8-3,11.9c0,10.5,4,15.8,12,15.8c2.4,0,4.8-0.3,7-1c2.3-0.7,4.5-1.5,6.8-2.4
	v12.5c-4.6,2-9.7,3-15.5,3c-8.2,0-14.6-2.4-19-7.2c-4.4-4.8-6.6-11.7-6.6-20.7C-106.7,289.2-105.7,284.3-103.5,280z M-90.9,379.6
	v11.8h-16.4v10.3h17.7v12H-122v-54.6h32.4v11.8h-17.7v8.6H-90.9z M-126.7,322l-2.7-10.2h-17.7l-2.8,10.2h-16.2l17.8-54.8h19.7
	l18,54.8H-126.7z M-174.8,175.6h19.3l19.9,37.9h0.2c-0.3-5.5-0.5-9.9-0.5-13.3v-24.7h13.1v54.6h-19.3l-19.9-38.5h-0.3
	c0.5,6,0.7,10.7,0.7,13.9v24.6h-13.1V175.6z M-201.5,175.6h14.8v54.6h-14.8V175.6z M-201.5,267.4h32.3v11.8h-17.7v10.4h16.4v11.8
	h-16.4V322h-14.5V267.4z M-164.1,463.1h-13.3v42.5h-14.8v-42.5h-13.3V451h41.4V463.1z M-165.2,390c-0.2-1-0.6-3-1.2-5.9
	c-0.5-3-0.9-5.4-1.2-7.4c-0.2,1.6-0.5,3.6-1,6c-0.4,2.4-0.9,4.6-1.3,6.6c-0.4,2-2.2,10.2-5.4,24.5h-17.4l-13.5-54.6h14.2l5.9,27.4
	c1.3,6.1,2.3,10.9,2.8,14.5c0.3-2.5,0.9-6,1.7-10.3c0.8-4.4,1.6-8,2.3-10.8l4.8-20.7h13.7l4.7,20.7c0.8,3.3,1.6,7.1,2.4,11.5
	c0.8,4.3,1.4,7.6,1.6,9.7c0.3-2.8,1.2-7.6,2.7-14.4l6.1-27.5h14.2l-13.4,54.6h-17.4L-165.2,390z M-126.2,505.6l-11.6-19.9h-3.7v19.9
	h-14.8V451h17.9c14.8,0,22.3,5.4,22.3,16.1c0,6.3-3.1,11.2-9.3,14.7l15.9,23.8H-126.2z M-58.1,483.9c0,7.1-2,12.7-6.1,16.6
	c-4,3.9-9.9,5.9-17.5,5.9c-7.4,0-13.2-1.9-17.2-5.7c-4-3.8-6-9.3-6-16.4V451H-90v32c0,3.9,0.7,6.7,2.2,8.4c1.4,1.7,3.6,2.6,6.4,2.6
	c3,0,5.2-0.9,6.6-2.6c1.4-1.7,2-4.6,2-8.5v-32h14.8V483.9z M-32.5,468.4c1.1,0.8,4.1,2.4,9,4.6c4.7,2.1,8,4.4,9.8,6.8
	c1.8,2.4,2.7,5.5,2.7,9.2c0,3.4-0.9,6.4-2.6,9c-1.7,2.6-4.2,4.7-7.4,6.1c-3.2,1.5-7,2.2-11.4,2.2c-3.6,0-6.7-0.3-9.2-0.8
	c-2.5-0.5-5-1.4-7.7-2.7v-13.1c2.8,1.4,5.7,2.6,8.8,3.4c3,0.8,5.8,1.2,8.4,1.2c2.2,0,3.8-0.4,4.8-1.1c1-0.8,1.5-1.7,1.5-2.9
	c0-0.7-0.2-1.4-0.6-2c-0.4-0.6-1.1-1.1-2-1.7c-0.9-0.6-3.3-1.7-7.3-3.5c-3.6-1.6-6.2-3.2-8-4.7c-1.8-1.5-3.1-3.3-4-5.2
	c-0.9-2-1.3-4.3-1.3-7c0-5,1.8-9,5.5-11.8c3.7-2.8,8.7-4.2,15.1-4.2c5.7,0,11.4,1.3,17.3,3.9l-4.5,11.4c-5.1-2.3-9.5-3.5-13.2-3.5
	c-1.9,0-3.3,0.3-4.2,1c-0.9,0.7-1.3,1.5-1.3,2.5C-34.2,466.6-33.6,467.6-32.5,468.4z M34.9,463.1H21.6v42.5H6.9v-42.5H-6.5V451h41.4
	V463.1z"/>
</svg>
