<?xml version="1.0" encoding="utf-8"?>
<!-- Generator: Adobe Illustrator 19.1.0, SVG Export Plug-In . SVG Version: 6.00 Build 0)  -->
<svg version="1.1" id="dot_pattern" xmlns="http://www.w3.org/2000/svg" xmlns:xlink="http://www.w3.org/1999/xlink" x="0px"
	 y="0px" viewBox="0 0 424.7 66.2" style="enable-background:new 0 0 424.7 66.2;" xml:space="preserve">
<style type="text/css">
	.st0{fill:#FEE41A;}
	.st1{fill:#FFFFFF;}
</style>
<g>
	<circle class="st0" cx="152.2" cy="2.3" r="0.5"/>
</g>
<g>
	<circle class="st0" cx="152.2" cy="10.2" r="0.5"/>
</g>
<g>
	<circle class="st0" cx="152.2" cy="18.1" r="0.5"/>
</g>
<g>
	<circle class="st0" cx="152.2" cy="26.1" r="0.5"/>
</g>
<g>
	<circle class="st0" cx="152.2" cy="34" r="0.5"/>
</g>
<g>
	<circle class="st0" cx="152.2" cy="42" r="0.5"/>
</g>
<g>
	<circle class="st0" cx="152.2" cy="49.9" r="0.5"/>
</g>
<g>
	<circle class="st0" cx="152.2" cy="57.8" r="0.5"/>
</g>
<g>
	<circle class="st0" cx="152.2" cy="65.8" r="0.5"/>
</g>
<g>
	<circle class="st0" cx="310.6" cy="2.2" r="0.5"/>
</g>
<g>
	<circle class="st0" cx="310.6" cy="10.1" r="0.5"/>
</g>
<g>
	<circle class="st0" cx="310.6" cy="18.1" r="0.5"/>
</g>
<g>
	<circle class="st0" cx="310.6" cy="26" r="0.5"/>
</g>
<g>
	<circle class="st0" cx="310.6" cy="34" r="0.5"/>
</g>
<g>
	<circle class="st0" cx="310.6" cy="41.9" r="0.5"/>
</g>
<g>
	<circle class="st0" cx="310.6" cy="49.8" r="0.5"/>
</g>
<g>
	<circle class="st0" cx="310.6" cy="57.8" r="0.5"/>
</g>
<g>
	<circle class="st0" cx="310.6" cy="65.7" r="0.5"/>
</g>
<g>
	<circle class="st0" cx="144.3" cy="2.3" r="0.5"/>
</g>
<g>
	<circle class="st0" cx="144.3" cy="10.2" r="0.5"/>
</g>
<g>
	<circle class="st0" cx="144.3" cy="18.1" r="0.5"/>
</g>
<g>
	<circle class="st0" cx="144.3" cy="26.1" r="0.5"/>
</g>
<g>
	<circle class="st0" cx="144.3" cy="34" r="0.5"/>
</g>
<g>
	<circle class="st0" cx="144.3" cy="42" r="0.5"/>
</g>
<g>
	<circle class="st0" cx="144.3" cy="49.9" r="0.5"/>
</g>
<g>
	<circle class="st0" cx="144.3" cy="57.8" r="0.5"/>
</g>
<g>
	<circle class="st0" cx="144.3" cy="65.8" r="0.5"/>
</g>
<g>
	<circle class="st0" cx="302.6" cy="2.2" r="0.5"/>
</g>
<g>
	<circle class="st0" cx="302.6" cy="10.1" r="0.5"/>
</g>
<g>
	<circle class="st0" cx="302.6" cy="18.1" r="0.5"/>
</g>
<g>
	<circle class="st0" cx="302.6" cy="26" r="0.5"/>
</g>
<g>
	<circle class="st0" cx="302.6" cy="34" r="0.5"/>
</g>
<g>
	<circle class="st0" cx="302.6" cy="41.9" r="0.5"/>
</g>
<g>
	<circle class="st0" cx="302.6" cy="49.8" r="0.5"/>
</g>
<g>
	<circle class="st0" cx="302.6" cy="57.8" r="0.5"/>
</g>
<g>
	<circle class="st0" cx="302.6" cy="65.7" r="0.5"/>
</g>
<g>
	<circle class="st0" cx="136.4" cy="2.3" r="0.5"/>
</g>
<g>
	<circle class="st0" cx="136.4" cy="10.2" r="0.5"/>
</g>
<g>
	<circle class="st0" cx="136.4" cy="18.1" r="0.5"/>
</g>
<g>
	<circle class="st0" cx="136.4" cy="26.1" r="0.5"/>
</g>
<g>
	<circle class="st0" cx="136.4" cy="34" r="0.5"/>
</g>
<g>
	<circle class="st0" cx="136.4" cy="42" r="0.5"/>
</g>
<g>
	<circle class="st0" cx="136.4" cy="49.9" r="0.5"/>
</g>
<g>
	<circle class="st0" cx="136.4" cy="57.8" r="0.5"/>
</g>
<g>
	<circle class="st0" cx="136.4" cy="65.8" r="0.5"/>
</g>
<g>
	<circle class="st0" cx="294.7" cy="2.2" r="0.5"/>
</g>
<g>
	<circle class="st0" cx="294.7" cy="10.1" r="0.5"/>
</g>
<g>
	<circle class="st0" cx="294.7" cy="18.1" r="0.5"/>
</g>
<g>
	<circle class="st0" cx="294.7" cy="26" r="0.5"/>
</g>
<g>
	<circle class="st0" cx="294.7" cy="34" r="0.5"/>
</g>
<g>
	<circle class="st0" cx="294.7" cy="41.9" r="0.5"/>
</g>
<g>
	<circle class="st0" cx="294.7" cy="49.8" r="0.5"/>
</g>
<g>
	<circle class="st0" cx="294.7" cy="57.8" r="0.5"/>
</g>
<g>
	<circle class="st0" cx="294.7" cy="65.7" r="0.5"/>
</g>
<g>
	<circle class="st0" cx="128.4" cy="2.3" r="0.5"/>
</g>
<g>
	<circle class="st0" cx="128.4" cy="10.2" r="0.5"/>
</g>
<g>
	<circle class="st0" cx="128.4" cy="18.1" r="0.5"/>
</g>
<g>
	<circle class="st0" cx="128.4" cy="26.1" r="0.5"/>
</g>
<g>
	<circle class="st0" cx="128.4" cy="34" r="0.5"/>
</g>
<g>
	<circle class="st0" cx="128.4" cy="42" r="0.5"/>
</g>
<g>
	<circle class="st0" cx="128.4" cy="49.9" r="0.5"/>
</g>
<g>
	<circle class="st0" cx="128.4" cy="57.8" r="0.5"/>
</g>
<g>
	<circle class="st0" cx="128.4" cy="65.8" r="0.5"/>
</g>
<g>
	<circle class="st0" cx="286.7" cy="2.2" r="0.5"/>
</g>
<g>
	<circle class="st0" cx="286.7" cy="10.1" r="0.5"/>
</g>
<g>
	<circle class="st0" cx="286.7" cy="18.1" r="0.5"/>
</g>
<g>
	<circle class="st0" cx="286.7" cy="26" r="0.5"/>
</g>
<g>
	<circle class="st0" cx="286.7" cy="34" r="0.5"/>
</g>
<g>
	<circle class="st0" cx="286.7" cy="41.9" r="0.5"/>
</g>
<g>
	<circle class="st0" cx="286.7" cy="49.8" r="0.5"/>
</g>
<g>
	<circle class="st0" cx="286.7" cy="57.8" r="0.5"/>
</g>
<g>
	<circle class="st0" cx="286.7" cy="65.7" r="0.5"/>
</g>
<g>
	<circle class="st0" cx="120.5" cy="2.3" r="0.5"/>
</g>
<g>
	<circle class="st0" cx="120.5" cy="10.2" r="0.5"/>
</g>
<g>
	<circle class="st0" cx="120.5" cy="18.1" r="0.5"/>
</g>
<g>
	<circle class="st0" cx="120.5" cy="26.1" r="0.5"/>
</g>
<g>
	<circle class="st0" cx="120.5" cy="34" r="0.5"/>
</g>
<g>
	<circle class="st0" cx="120.5" cy="42" r="0.5"/>
</g>
<g>
	<circle class="st0" cx="120.5" cy="49.9" r="0.5"/>
</g>
<g>
	<circle class="st0" cx="120.5" cy="57.8" r="0.5"/>
</g>
<g>
	<circle class="st0" cx="120.5" cy="65.8" r="0.5"/>
</g>
<g>
	<circle class="st0" cx="278.8" cy="2.2" r="0.5"/>
</g>
<g>
	<circle class="st0" cx="278.8" cy="10.1" r="0.5"/>
</g>
<g>
	<circle class="st0" cx="278.8" cy="18.1" r="0.5"/>
</g>
<g>
	<circle class="st0" cx="278.8" cy="26" r="0.5"/>
</g>
<g>
	<circle class="st0" cx="278.8" cy="34" r="0.5"/>
</g>
<g>
	<circle class="st0" cx="278.8" cy="41.9" r="0.5"/>
</g>
<g>
	<circle class="st0" cx="278.8" cy="49.8" r="0.5"/>
</g>
<g>
	<circle class="st0" cx="278.8" cy="57.8" r="0.5"/>
</g>
<g>
	<circle class="st0" cx="278.8" cy="65.7" r="0.5"/>
</g>
<g>
	<circle class="st0" cx="112.5" cy="2.3" r="0.5"/>
</g>
<g>
	<circle class="st0" cx="112.5" cy="10.2" r="0.5"/>
</g>
<g>
	<circle class="st0" cx="112.5" cy="18.1" r="0.5"/>
</g>
<g>
	<circle class="st0" cx="112.5" cy="26.1" r="0.5"/>
</g>
<g>
	<circle class="st0" cx="112.5" cy="34" r="0.5"/>
</g>
<g>
	<circle class="st0" cx="112.5" cy="42" r="0.5"/>
</g>
<g>
	<circle class="st0" cx="112.5" cy="49.9" r="0.5"/>
</g>
<g>
	<circle class="st0" cx="112.5" cy="57.8" r="0.5"/>
</g>
<g>
	<circle class="st0" cx="112.5" cy="65.8" r="0.5"/>
</g>
<g>
	<circle class="st0" cx="270.9" cy="2.2" r="0.5"/>
</g>
<g>
	<circle class="st0" cx="270.9" cy="10.1" r="0.5"/>
</g>
<g>
	<circle class="st0" cx="270.9" cy="18.1" r="0.5"/>
</g>
<g>
	<circle class="st0" cx="270.9" cy="26" r="0.5"/>
</g>
<g>
	<circle class="st0" cx="270.9" cy="34" r="0.5"/>
</g>
<g>
	<circle class="st0" cx="270.9" cy="41.9" r="0.5"/>
</g>
<g>
	<circle class="st0" cx="270.9" cy="49.8" r="0.5"/>
</g>
<g>
	<circle class="st0" cx="270.9" cy="57.8" r="0.5"/>
</g>
<g>
	<circle class="st0" cx="270.9" cy="65.7" r="0.5"/>
</g>
<g>
	<circle class="st0" cx="104.6" cy="2.3" r="0.5"/>
</g>
<g>
	<circle class="st0" cx="104.6" cy="10.2" r="0.5"/>
</g>
<g>
	<circle class="st0" cx="104.6" cy="18.1" r="0.5"/>
</g>
<g>
	<circle class="st0" cx="104.6" cy="26.1" r="0.5"/>
</g>
<g>
	<circle class="st0" cx="104.6" cy="34" r="0.5"/>
</g>
<g>
	<circle class="st0" cx="104.6" cy="42" r="0.5"/>
</g>
<g>
	<circle class="st0" cx="104.6" cy="49.9" r="0.5"/>
</g>
<g>
	<circle class="st0" cx="104.6" cy="57.8" r="0.5"/>
</g>
<g>
	<circle class="st0" cx="104.6" cy="65.8" r="0.5"/>
</g>
<g>
	<circle class="st0" cx="262.9" cy="2.2" r="0.5"/>
</g>
<g>
	<circle class="st0" cx="262.9" cy="10.1" r="0.5"/>
</g>
<g>
	<circle class="st0" cx="262.9" cy="18.1" r="0.5"/>
</g>
<g>
	<circle class="st0" cx="262.9" cy="26" r="0.5"/>
</g>
<g>
	<circle class="st0" cx="262.9" cy="34" r="0.5"/>
</g>
<g>
	<circle class="st0" cx="262.9" cy="41.9" r="0.5"/>
</g>
<g>
	<circle class="st0" cx="262.9" cy="49.8" r="0.5"/>
</g>
<g>
	<circle class="st0" cx="262.9" cy="57.8" r="0.5"/>
</g>
<g>
	<circle class="st0" cx="262.9" cy="65.7" r="0.5"/>
</g>
<g>
	<circle class="st0" cx="96.7" cy="2.3" r="0.5"/>
</g>
<g>
	<circle class="st0" cx="96.7" cy="10.2" r="0.5"/>
</g>
<g>
	<circle class="st0" cx="96.7" cy="18.1" r="0.5"/>
</g>
<g>
	<circle class="st0" cx="96.7" cy="26.1" r="0.5"/>
</g>
<g>
	<circle class="st0" cx="96.7" cy="34" r="0.5"/>
</g>
<g>
	<circle class="st0" cx="96.7" cy="42" r="0.5"/>
</g>
<g>
	<circle class="st0" cx="96.7" cy="49.9" r="0.5"/>
</g>
<g>
	<circle class="st0" cx="96.7" cy="57.8" r="0.5"/>
</g>
<g>
	<circle class="st0" cx="96.7" cy="65.8" r="0.5"/>
</g>
<g>
	<circle class="st0" cx="255" cy="2.2" r="0.5"/>
</g>
<g>
	<circle class="st0" cx="255" cy="10.1" r="0.5"/>
</g>
<g>
	<circle class="st0" cx="255" cy="18.1" r="0.5"/>
</g>
<g>
	<circle class="st0" cx="255" cy="26" r="0.5"/>
</g>
<g>
	<circle class="st0" cx="255" cy="34" r="0.5"/>
</g>
<g>
	<circle class="st0" cx="255" cy="41.9" r="0.5"/>
</g>
<g>
	<circle class="st0" cx="255" cy="49.8" r="0.5"/>
</g>
<g>
	<circle class="st0" cx="255" cy="57.8" r="0.5"/>
</g>
<g>
	<circle class="st0" cx="255" cy="65.7" r="0.5"/>
</g>
<g>
	<circle class="st0" cx="88.7" cy="2.3" r="0.5"/>
</g>
<g>
	<circle class="st0" cx="88.7" cy="10.2" r="0.5"/>
</g>
<g>
	<circle class="st0" cx="88.7" cy="18.1" r="0.5"/>
</g>
<g>
	<circle class="st0" cx="88.7" cy="26.1" r="0.5"/>
</g>
<g>
	<circle class="st0" cx="88.7" cy="34" r="0.5"/>
</g>
<g>
	<circle class="st0" cx="88.7" cy="42" r="0.5"/>
</g>
<g>
	<circle class="st0" cx="88.7" cy="49.9" r="0.5"/>
</g>
<g>
	<circle class="st0" cx="88.7" cy="57.8" r="0.5"/>
</g>
<g>
	<circle class="st0" cx="88.7" cy="65.8" r="0.5"/>
</g>
<g>
	<circle class="st0" cx="247" cy="2.2" r="0.5"/>
</g>
<g>
	<circle class="st0" cx="247" cy="10.1" r="0.5"/>
</g>
<g>
	<circle class="st0" cx="247" cy="18.1" r="0.5"/>
</g>
<g>
	<circle class="st0" cx="247" cy="26" r="0.5"/>
</g>
<g>
	<circle class="st0" cx="247" cy="34" r="0.5"/>
</g>
<g>
	<circle class="st0" cx="247" cy="41.9" r="0.5"/>
</g>
<g>
	<circle class="st0" cx="247" cy="49.8" r="0.5"/>
</g>
<g>
	<circle class="st0" cx="247" cy="57.8" r="0.5"/>
</g>
<g>
	<circle class="st0" cx="247" cy="65.7" r="0.5"/>
</g>
<g>
	<circle class="st0" cx="80.8" cy="2.3" r="0.5"/>
</g>
<g>
	<circle class="st0" cx="80.8" cy="10.2" r="0.5"/>
</g>
<g>
	<circle class="st0" cx="80.8" cy="18.1" r="0.5"/>
</g>
<g>
	<circle class="st0" cx="80.8" cy="26.1" r="0.5"/>
</g>
<g>
	<circle class="st0" cx="80.8" cy="34" r="0.5"/>
</g>
<g>
	<circle class="st0" cx="80.8" cy="42" r="0.5"/>
</g>
<g>
	<circle class="st0" cx="80.8" cy="49.9" r="0.5"/>
</g>
<g>
	<circle class="st0" cx="80.8" cy="57.8" r="0.5"/>
</g>
<g>
	<circle class="st0" cx="80.8" cy="65.8" r="0.5"/>
</g>
<g>
	<circle class="st0" cx="239.1" cy="2.2" r="0.5"/>
</g>
<g>
	<circle class="st0" cx="239.1" cy="10.1" r="0.5"/>
</g>
<g>
	<circle class="st0" cx="239.1" cy="18.1" r="0.5"/>
</g>
<g>
	<circle class="st0" cx="239.1" cy="26" r="0.5"/>
</g>
<g>
	<circle class="st0" cx="239.1" cy="34" r="0.5"/>
</g>
<g>
	<circle class="st0" cx="239.1" cy="41.9" r="0.5"/>
</g>
<g>
	<circle class="st0" cx="239.1" cy="49.8" r="0.5"/>
</g>
<g>
	<circle class="st0" cx="239.1" cy="57.8" r="0.5"/>
</g>
<g>
	<circle class="st0" cx="239.1" cy="65.7" r="0.5"/>
</g>
<g>
	<circle class="st0" cx="72.8" cy="2.3" r="0.5"/>
</g>
<g>
	<circle class="st0" cx="72.8" cy="10.2" r="0.5"/>
</g>
<g>
	<circle class="st0" cx="72.8" cy="18.1" r="0.5"/>
</g>
<g>
	<circle class="st0" cx="72.8" cy="26.1" r="0.5"/>
</g>
<g>
	<circle class="st0" cx="72.8" cy="34" r="0.5"/>
</g>
<g>
	<circle class="st0" cx="72.8" cy="42" r="0.5"/>
</g>
<g>
	<circle class="st0" cx="72.8" cy="49.9" r="0.5"/>
</g>
<g>
	<circle class="st0" cx="72.8" cy="57.8" r="0.5"/>
</g>
<g>
	<circle class="st0" cx="72.8" cy="65.8" r="0.5"/>
</g>
<g>
	<circle class="st0" cx="231.2" cy="2.2" r="0.5"/>
</g>
<g>
	<circle class="st0" cx="231.2" cy="10.1" r="0.5"/>
</g>
<g>
	<circle class="st0" cx="231.2" cy="18.1" r="0.5"/>
</g>
<g>
	<circle class="st0" cx="231.2" cy="26" r="0.5"/>
</g>
<g>
	<circle class="st0" cx="231.2" cy="34" r="0.5"/>
</g>
<g>
	<circle class="st0" cx="231.2" cy="41.9" r="0.5"/>
</g>
<g>
	<circle class="st0" cx="231.2" cy="49.8" r="0.5"/>
</g>
<g>
	<circle class="st0" cx="231.2" cy="57.8" r="0.5"/>
</g>
<g>
	<circle class="st0" cx="231.2" cy="65.7" r="0.5"/>
</g>
<g>
	<circle class="st0" cx="64.9" cy="2.3" r="0.5"/>
</g>
<g>
	<circle class="st0" cx="64.9" cy="10.2" r="0.5"/>
</g>
<g>
	<circle class="st0" cx="64.9" cy="18.1" r="0.5"/>
</g>
<g>
	<circle class="st0" cx="64.9" cy="26.1" r="0.5"/>
</g>
<g>
	<circle class="st0" cx="64.9" cy="34" r="0.5"/>
</g>
<g>
	<circle class="st0" cx="64.9" cy="42" r="0.5"/>
</g>
<g>
	<circle class="st0" cx="64.9" cy="49.9" r="0.5"/>
</g>
<g>
	<circle class="st0" cx="64.9" cy="57.8" r="0.5"/>
</g>
<g>
	<circle class="st0" cx="64.9" cy="65.8" r="0.5"/>
</g>
<g>
	<circle class="st0" cx="223.2" cy="2.2" r="0.5"/>
</g>
<g>
	<circle class="st0" cx="223.2" cy="10.1" r="0.5"/>
</g>
<g>
	<circle class="st0" cx="223.2" cy="18.1" r="0.5"/>
</g>
<g>
	<circle class="st0" cx="223.2" cy="26" r="0.5"/>
</g>
<g>
	<circle class="st0" cx="223.2" cy="34" r="0.5"/>
</g>
<g>
	<circle class="st0" cx="223.2" cy="41.9" r="0.5"/>
</g>
<g>
	<circle class="st0" cx="223.2" cy="49.8" r="0.5"/>
</g>
<g>
	<circle class="st0" cx="223.2" cy="57.8" r="0.5"/>
</g>
<g>
	<circle class="st0" cx="223.2" cy="65.7" r="0.5"/>
</g>
<g>
	<circle class="st0" cx="403" cy="2.2" r="0.5"/>
</g>
<g>
	<circle class="st0" cx="403" cy="10.1" r="0.5"/>
</g>
<g>
	<circle class="st0" cx="403" cy="18.1" r="0.5"/>
</g>
<g>
	<circle class="st0" cx="403" cy="26" r="0.5"/>
</g>
<g>
	<circle class="st0" cx="403" cy="34" r="0.5"/>
</g>
<g>
	<circle class="st0" cx="403" cy="41.9" r="0.5"/>
</g>
<g>
	<circle class="st0" cx="403" cy="49.8" r="0.5"/>
</g>
<g>
	<circle class="st0" cx="403" cy="57.8" r="0.5"/>
</g>
<g>
	<circle class="st0" cx="403" cy="65.7" r="0.5"/>
</g>
<g>
	<circle class="st0" cx="395.1" cy="2.2" r="0.5"/>
</g>
<g>
	<circle class="st0" cx="395.1" cy="10.1" r="0.5"/>
</g>
<g>
	<circle class="st0" cx="395.1" cy="18.1" r="0.5"/>
</g>
<g>
	<circle class="st0" cx="395.1" cy="26" r="0.5"/>
</g>
<g>
	<circle class="st0" cx="395.1" cy="34" r="0.5"/>
</g>
<g>
	<circle class="st0" cx="395.1" cy="41.9" r="0.5"/>
</g>
<g>
	<circle class="st0" cx="395.1" cy="49.8" r="0.5"/>
</g>
<g>
	<circle class="st0" cx="395.1" cy="57.8" r="0.5"/>
</g>
<g>
	<circle class="st0" cx="395.1" cy="65.7" r="0.5"/>
</g>
<g>
	<circle class="st0" cx="417.6" cy="2.2" r="0.5"/>
</g>
<g>
	<circle class="st0" cx="417.6" cy="10.1" r="0.5"/>
</g>
<g>
	<circle class="st0" cx="417.6" cy="18.1" r="0.5"/>
</g>
<g>
	<circle class="st0" cx="417.6" cy="26" r="0.5"/>
</g>
<g>
	<circle class="st0" cx="417.6" cy="34" r="0.5"/>
</g>
<g>
	<circle class="st0" cx="417.6" cy="41.9" r="0.5"/>
</g>
<g>
	<circle class="st0" cx="417.6" cy="49.8" r="0.5"/>
</g>
<g>
	<circle class="st0" cx="417.6" cy="57.8" r="0.5"/>
</g>
<g>
	<circle class="st0" cx="417.6" cy="65.7" r="0.5"/>
</g>
<g>
	<circle class="st0" cx="409.7" cy="2.2" r="0.5"/>
</g>
<g>
	<circle class="st0" cx="409.7" cy="10.1" r="0.5"/>
</g>
<g>
	<circle class="st0" cx="409.7" cy="18.1" r="0.5"/>
</g>
<g>
	<circle class="st0" cx="409.7" cy="26" r="0.5"/>
</g>
<g>
	<circle class="st0" cx="409.7" cy="34" r="0.5"/>
</g>
<g>
	<circle class="st0" cx="409.7" cy="41.9" r="0.5"/>
</g>
<g>
	<circle class="st0" cx="409.7" cy="49.8" r="0.5"/>
</g>
<g>
	<circle class="st0" cx="409.7" cy="57.8" r="0.5"/>
</g>
<g>
	<circle class="st0" cx="409.7" cy="65.7" r="0.5"/>
</g>
<g>
	<circle class="st0" cx="387.1" cy="2.2" r="0.5"/>
</g>
<g>
	<circle class="st0" cx="387.1" cy="10.1" r="0.5"/>
</g>
<g>
	<circle class="st0" cx="387.1" cy="18.1" r="0.5"/>
</g>
<g>
	<circle class="st0" cx="387.1" cy="26" r="0.5"/>
</g>
<g>
	<circle class="st0" cx="387.1" cy="34" r="0.5"/>
</g>
<g>
	<circle class="st0" cx="387.1" cy="41.9" r="0.5"/>
</g>
<g>
	<circle class="st0" cx="387.1" cy="49.8" r="0.5"/>
</g>
<g>
	<circle class="st0" cx="387.1" cy="57.8" r="0.5"/>
</g>
<g>
	<circle class="st0" cx="387.1" cy="65.7" r="0.5"/>
</g>
<g>
	<circle class="st0" cx="379.2" cy="2.2" r="0.5"/>
</g>
<g>
	<circle class="st0" cx="379.2" cy="10.1" r="0.5"/>
</g>
<g>
	<circle class="st0" cx="379.2" cy="18.1" r="0.5"/>
</g>
<g>
	<circle class="st0" cx="379.2" cy="26" r="0.5"/>
</g>
<g>
	<circle class="st0" cx="379.2" cy="34" r="0.5"/>
</g>
<g>
	<circle class="st0" cx="379.2" cy="41.9" r="0.5"/>
</g>
<g>
	<circle class="st0" cx="379.2" cy="49.8" r="0.5"/>
</g>
<g>
	<circle class="st0" cx="379.2" cy="57.8" r="0.5"/>
</g>
<g>
	<circle class="st0" cx="379.2" cy="65.7" r="0.5"/>
</g>
<g>
	<circle class="st0" cx="371.2" cy="2.2" r="0.5"/>
</g>
<g>
	<circle class="st0" cx="371.2" cy="10.1" r="0.5"/>
</g>
<g>
	<circle class="st0" cx="371.2" cy="18.1" r="0.5"/>
</g>
<g>
	<circle class="st0" cx="371.2" cy="26" r="0.5"/>
</g>
<g>
	<circle class="st0" cx="371.2" cy="34" r="0.5"/>
</g>
<g>
	<circle class="st0" cx="371.2" cy="41.9" r="0.5"/>
</g>
<g>
	<circle class="st0" cx="371.2" cy="49.8" r="0.5"/>
</g>
<g>
	<circle class="st0" cx="371.2" cy="57.8" r="0.5"/>
</g>
<g>
	<circle class="st0" cx="371.2" cy="65.7" r="0.5"/>
</g>
<g>
	<circle class="st0" cx="363.3" cy="2.2" r="0.5"/>
</g>
<g>
	<circle class="st0" cx="363.3" cy="10.1" r="0.5"/>
</g>
<g>
	<circle class="st0" cx="363.3" cy="18.1" r="0.5"/>
</g>
<g>
	<circle class="st0" cx="363.3" cy="26" r="0.5"/>
</g>
<g>
	<circle class="st0" cx="363.3" cy="34" r="0.5"/>
</g>
<g>
	<circle class="st0" cx="363.3" cy="41.9" r="0.5"/>
</g>
<g>
	<circle class="st0" cx="363.3" cy="49.8" r="0.5"/>
</g>
<g>
	<circle class="st0" cx="363.3" cy="57.8" r="0.5"/>
</g>
<g>
	<circle class="st0" cx="363.3" cy="65.7" r="0.5"/>
</g>
<g>
	<circle class="st0" cx="355.4" cy="2.2" r="0.5"/>
</g>
<g>
	<circle class="st0" cx="355.4" cy="10.1" r="0.5"/>
</g>
<g>
	<circle class="st0" cx="355.4" cy="18.1" r="0.5"/>
</g>
<g>
	<circle class="st0" cx="355.4" cy="26" r="0.5"/>
</g>
<g>
	<circle class="st0" cx="355.4" cy="34" r="0.5"/>
</g>
<g>
	<circle class="st0" cx="355.4" cy="41.9" r="0.5"/>
</g>
<g>
	<circle class="st0" cx="355.4" cy="49.8" r="0.5"/>
</g>
<g>
	<circle class="st0" cx="355.4" cy="57.8" r="0.5"/>
</g>
<g>
	<circle class="st0" cx="355.4" cy="65.7" r="0.5"/>
</g>
<g>
	<circle class="st0" cx="347.4" cy="2.2" r="0.5"/>
</g>
<g>
	<circle class="st0" cx="347.4" cy="10.1" r="0.5"/>
</g>
<g>
	<circle class="st0" cx="347.4" cy="18.1" r="0.5"/>
</g>
<g>
	<circle class="st0" cx="347.4" cy="26" r="0.5"/>
</g>
<g>
	<circle class="st0" cx="347.4" cy="34" r="0.5"/>
</g>
<g>
	<circle class="st0" cx="347.4" cy="41.9" r="0.5"/>
</g>
<g>
	<circle class="st0" cx="347.4" cy="49.8" r="0.5"/>
</g>
<g>
	<circle class="st0" cx="347.4" cy="57.8" r="0.5"/>
</g>
<g>
	<circle class="st0" cx="347.4" cy="65.7" r="0.5"/>
</g>
<g>
	<circle class="st0" cx="339.5" cy="2.2" r="0.5"/>
</g>
<g>
	<circle class="st0" cx="339.5" cy="10.1" r="0.5"/>
</g>
<g>
	<circle class="st0" cx="339.5" cy="18.1" r="0.5"/>
</g>
<g>
	<circle class="st0" cx="339.5" cy="26" r="0.5"/>
</g>
<g>
	<circle class="st0" cx="339.5" cy="34" r="0.5"/>
</g>
<g>
	<circle class="st0" cx="339.5" cy="41.9" r="0.5"/>
</g>
<g>
	<circle class="st0" cx="339.5" cy="49.8" r="0.5"/>
</g>
<g>
	<circle class="st0" cx="339.5" cy="57.8" r="0.5"/>
</g>
<g>
	<circle class="st0" cx="339.5" cy="65.7" r="0.5"/>
</g>
<g>
	<circle class="st0" cx="331.5" cy="2.2" r="0.5"/>
</g>
<g>
	<circle class="st0" cx="331.5" cy="10.1" r="0.5"/>
</g>
<g>
	<circle class="st0" cx="331.5" cy="18.1" r="0.5"/>
</g>
<g>
	<circle class="st0" cx="331.5" cy="26" r="0.5"/>
</g>
<g>
	<circle class="st0" cx="331.5" cy="34" r="0.5"/>
</g>
<g>
	<circle class="st0" cx="331.5" cy="41.9" r="0.5"/>
</g>
<g>
	<circle class="st0" cx="331.5" cy="49.8" r="0.5"/>
</g>
<g>
	<circle class="st0" cx="331.5" cy="57.8" r="0.5"/>
</g>
<g>
	<circle class="st0" cx="331.5" cy="65.7" r="0.5"/>
</g>
<g>
	<circle class="st0" cx="323.6" cy="2.2" r="0.5"/>
</g>
<g>
	<circle class="st0" cx="323.6" cy="10.1" r="0.5"/>
</g>
<g>
	<circle class="st0" cx="323.6" cy="18.1" r="0.5"/>
</g>
<g>
	<circle class="st0" cx="323.6" cy="26" r="0.5"/>
</g>
<g>
	<circle class="st0" cx="323.6" cy="34" r="0.5"/>
</g>
<g>
	<circle class="st0" cx="323.6" cy="41.9" r="0.5"/>
</g>
<g>
	<circle class="st0" cx="323.6" cy="49.8" r="0.5"/>
</g>
<g>
	<circle class="st0" cx="323.6" cy="57.8" r="0.5"/>
</g>
<g>
	<circle class="st0" cx="323.6" cy="65.7" r="0.5"/>
</g>
<g>
	<circle class="st0" cx="316.7" cy="2.2" r="0.5"/>
</g>
<g>
	<circle class="st0" cx="316.7" cy="10.1" r="0.5"/>
</g>
<g>
	<circle class="st0" cx="316.7" cy="18.1" r="0.5"/>
</g>
<g>
	<circle class="st0" cx="316.7" cy="26" r="0.5"/>
</g>
<g>
	<circle class="st0" cx="316.7" cy="34" r="0.5"/>
</g>
<g>
	<circle class="st0" cx="316.7" cy="41.9" r="0.5"/>
</g>
<g>
	<circle class="st0" cx="316.7" cy="49.8" r="0.5"/>
</g>
<g>
	<circle class="st0" cx="316.7" cy="57.8" r="0.5"/>
</g>
<g>
	<circle class="st0" cx="316.7" cy="65.7" r="0.5"/>
</g>
<g>
	<circle class="st0" cx="57" cy="2.3" r="0.5"/>
</g>
<g>
	<circle class="st0" cx="57" cy="10.2" r="0.5"/>
</g>
<g>
	<circle class="st0" cx="57" cy="18.1" r="0.5"/>
</g>
<g>
	<circle class="st0" cx="57" cy="26.1" r="0.5"/>
</g>
<g>
	<circle class="st0" cx="57" cy="34" r="0.5"/>
</g>
<g>
	<circle class="st0" cx="57" cy="42" r="0.5"/>
</g>
<g>
	<circle class="st0" cx="57" cy="49.9" r="0.5"/>
</g>
<g>
	<circle class="st0" cx="57" cy="57.8" r="0.5"/>
</g>
<g>
	<circle class="st0" cx="57" cy="65.8" r="0.5"/>
</g>
<g>
	<circle class="st0" cx="215.3" cy="2.2" r="0.5"/>
</g>
<g>
	<circle class="st0" cx="215.3" cy="10.1" r="0.5"/>
</g>
<g>
	<circle class="st0" cx="215.3" cy="18.1" r="0.5"/>
</g>
<g>
	<circle class="st0" cx="215.3" cy="26" r="0.5"/>
</g>
<g>
	<circle class="st0" cx="215.3" cy="34" r="0.5"/>
</g>
<g>
	<circle class="st0" cx="215.3" cy="41.9" r="0.5"/>
</g>
<g>
	<circle class="st0" cx="215.3" cy="49.8" r="0.5"/>
</g>
<g>
	<circle class="st0" cx="215.3" cy="57.8" r="0.5"/>
</g>
<g>
	<circle class="st0" cx="215.3" cy="65.7" r="0.5"/>
</g>
<g>
	<circle class="st0" cx="49" cy="2.3" r="0.5"/>
</g>
<g>
	<circle class="st0" cx="49" cy="10.2" r="0.5"/>
</g>
<g>
	<circle class="st0" cx="49" cy="18.1" r="0.5"/>
</g>
<g>
	<circle class="st0" cx="49" cy="26.1" r="0.5"/>
</g>
<g>
	<circle class="st0" cx="49" cy="34" r="0.5"/>
</g>
<g>
	<circle class="st0" cx="49" cy="42" r="0.5"/>
</g>
<g>
	<circle class="st0" cx="49" cy="49.9" r="0.5"/>
</g>
<g>
	<circle class="st0" cx="49" cy="57.8" r="0.5"/>
</g>
<g>
	<circle class="st0" cx="49" cy="65.8" r="0.5"/>
</g>
<g>
	<circle class="st0" cx="207.4" cy="2.2" r="0.5"/>
</g>
<g>
	<circle class="st0" cx="207.4" cy="10.1" r="0.5"/>
</g>
<g>
	<circle class="st0" cx="207.4" cy="18.1" r="0.5"/>
</g>
<g>
	<circle class="st0" cx="207.4" cy="26" r="0.5"/>
</g>
<g>
	<circle class="st0" cx="207.4" cy="34" r="0.5"/>
</g>
<g>
	<circle class="st0" cx="207.4" cy="41.9" r="0.5"/>
</g>
<g>
	<circle class="st0" cx="207.4" cy="49.8" r="0.5"/>
</g>
<g>
	<circle class="st0" cx="207.4" cy="57.8" r="0.5"/>
</g>
<g>
	<circle class="st0" cx="207.4" cy="65.7" r="0.5"/>
</g>
<g>
	<circle class="st0" cx="41.1" cy="2.3" r="0.5"/>
</g>
<g>
	<circle class="st0" cx="41.1" cy="10.2" r="0.5"/>
</g>
<g>
	<circle class="st0" cx="41.1" cy="18.1" r="0.5"/>
</g>
<g>
	<circle class="st0" cx="41.1" cy="26.1" r="0.5"/>
</g>
<g>
	<circle class="st0" cx="41.1" cy="34" r="0.5"/>
</g>
<g>
	<circle class="st0" cx="41.1" cy="42" r="0.5"/>
</g>
<g>
	<circle class="st0" cx="41.1" cy="49.9" r="0.5"/>
</g>
<g>
	<circle class="st0" cx="41.1" cy="57.8" r="0.5"/>
</g>
<g>
	<circle class="st0" cx="41.1" cy="65.8" r="0.5"/>
</g>
<g>
	<circle class="st0" cx="199.4" cy="2.2" r="0.5"/>
</g>
<g>
	<circle class="st0" cx="199.4" cy="10.1" r="0.5"/>
</g>
<g>
	<circle class="st0" cx="199.4" cy="18.1" r="0.5"/>
</g>
<g>
	<circle class="st0" cx="199.4" cy="26" r="0.5"/>
</g>
<g>
	<circle class="st0" cx="199.4" cy="34" r="0.5"/>
</g>
<g>
	<circle class="st0" cx="199.4" cy="41.9" r="0.5"/>
</g>
<g>
	<circle class="st0" cx="199.4" cy="49.8" r="0.5"/>
</g>
<g>
	<circle class="st0" cx="199.4" cy="57.8" r="0.5"/>
</g>
<g>
	<circle class="st0" cx="199.4" cy="65.7" r="0.5"/>
</g>
<g>
	<circle class="st0" cx="33.1" cy="2.3" r="0.5"/>
</g>
<g>
	<circle class="st0" cx="33.1" cy="10.2" r="0.5"/>
</g>
<g>
	<circle class="st0" cx="33.1" cy="18.1" r="0.5"/>
</g>
<g>
	<circle class="st0" cx="33.1" cy="26.1" r="0.5"/>
</g>
<g>
	<circle class="st0" cx="33.1" cy="34" r="0.5"/>
</g>
<g>
	<circle class="st0" cx="33.1" cy="42" r="0.5"/>
</g>
<g>
	<circle class="st0" cx="33.1" cy="49.9" r="0.5"/>
</g>
<g>
	<circle class="st0" cx="33.1" cy="57.8" r="0.5"/>
</g>
<g>
	<circle class="st0" cx="33.1" cy="65.8" r="0.5"/>
</g>
<g>
	<circle class="st0" cx="191.5" cy="2.2" r="0.5"/>
</g>
<g>
	<circle class="st0" cx="191.5" cy="10.1" r="0.5"/>
</g>
<g>
	<circle class="st0" cx="191.5" cy="18.1" r="0.5"/>
</g>
<g>
	<circle class="st0" cx="191.5" cy="26" r="0.5"/>
</g>
<g>
	<circle class="st0" cx="191.5" cy="34" r="0.5"/>
</g>
<g>
	<circle class="st0" cx="191.5" cy="41.9" r="0.5"/>
</g>
<g>
	<circle class="st0" cx="191.5" cy="49.8" r="0.5"/>
</g>
<g>
	<circle class="st0" cx="191.5" cy="57.8" r="0.5"/>
</g>
<g>
	<circle class="st0" cx="191.5" cy="65.7" r="0.5"/>
</g>
<g>
	<circle class="st0" cx="25.2" cy="2.3" r="0.5"/>
</g>
<g>
	<circle class="st0" cx="25.2" cy="10.2" r="0.5"/>
</g>
<g>
	<circle class="st0" cx="25.2" cy="18.1" r="0.5"/>
</g>
<g>
	<circle class="st0" cx="25.2" cy="26.1" r="0.5"/>
</g>
<g>
	<circle class="st0" cx="25.2" cy="34" r="0.5"/>
</g>
<g>
	<circle class="st0" cx="25.2" cy="42" r="0.5"/>
</g>
<g>
	<circle class="st0" cx="25.2" cy="49.9" r="0.5"/>
</g>
<g>
	<circle class="st0" cx="25.2" cy="57.8" r="0.5"/>
</g>
<g>
	<circle class="st0" cx="25.2" cy="65.8" r="0.5"/>
</g>
<g>
	<circle class="st0" cx="183.5" cy="2.2" r="0.5"/>
</g>
<g>
	<circle class="st0" cx="183.5" cy="10.1" r="0.5"/>
</g>
<g>
	<circle class="st0" cx="183.5" cy="18.1" r="0.5"/>
</g>
<g>
	<circle class="st0" cx="183.5" cy="26" r="0.5"/>
</g>
<g>
	<circle class="st0" cx="183.5" cy="34" r="0.5"/>
</g>
<g>
	<circle class="st0" cx="183.5" cy="41.9" r="0.5"/>
</g>
<g>
	<circle class="st0" cx="183.5" cy="49.8" r="0.5"/>
</g>
<g>
	<circle class="st0" cx="183.5" cy="57.8" r="0.5"/>
</g>
<g>
	<circle class="st0" cx="183.5" cy="65.7" r="0.5"/>
</g>
<g>
	<circle class="st0" cx="17.3" cy="2.3" r="0.5"/>
</g>
<g>
	<circle class="st0" cx="17.3" cy="10.2" r="0.5"/>
</g>
<g>
	<circle class="st0" cx="17.3" cy="18.1" r="0.5"/>
</g>
<g>
	<circle class="st0" cx="17.3" cy="26.1" r="0.5"/>
</g>
<g>
	<circle class="st0" cx="17.3" cy="34" r="0.5"/>
</g>
<g>
	<circle class="st0" cx="17.3" cy="42" r="0.5"/>
</g>
<g>
	<circle class="st0" cx="17.3" cy="49.9" r="0.5"/>
</g>
<g>
	<circle class="st0" cx="17.3" cy="57.8" r="0.5"/>
</g>
<g>
	<circle class="st0" cx="17.3" cy="65.8" r="0.5"/>
</g>
<g>
	<circle class="st0" cx="175.6" cy="2.2" r="0.5"/>
</g>
<g>
	<circle class="st0" cx="175.6" cy="10.1" r="0.5"/>
</g>
<g>
	<circle class="st0" cx="175.6" cy="18.1" r="0.5"/>
</g>
<g>
	<circle class="st0" cx="175.6" cy="26" r="0.5"/>
</g>
<g>
	<circle class="st0" cx="175.6" cy="34" r="0.5"/>
</g>
<g>
	<circle class="st0" cx="175.6" cy="41.9" r="0.5"/>
</g>
<g>
	<circle class="st0" cx="175.6" cy="49.8" r="0.5"/>
</g>
<g>
	<circle class="st0" cx="175.6" cy="57.8" r="0.5"/>
</g>
<g>
	<circle class="st0" cx="175.6" cy="65.7" r="0.5"/>
</g>
<g>
	<circle class="st0" cx="9.3" cy="2.3" r="0.5"/>
</g>
<g>
	<circle class="st0" cx="9.3" cy="10.2" r="0.5"/>
</g>
<g>
	<circle class="st0" cx="9.3" cy="18.1" r="0.5"/>
</g>
<g>
	<circle class="st0" cx="9.3" cy="26.1" r="0.5"/>
</g>
<g>
	<circle class="st0" cx="9.3" cy="34" r="0.5"/>
</g>
<g>
	<circle class="st0" cx="9.3" cy="42" r="0.5"/>
</g>
<g>
	<circle class="st0" cx="9.3" cy="49.9" r="0.5"/>
</g>
<g>
	<circle class="st0" cx="9.3" cy="57.8" r="0.5"/>
</g>
<g>
	<circle class="st0" cx="9.3" cy="65.8" r="0.5"/>
</g>
<g>
	<circle class="st0" cx="167.7" cy="2.2" r="0.5"/>
</g>
<g>
	<circle class="st0" cx="167.7" cy="10.1" r="0.5"/>
</g>
<g>
	<circle class="st0" cx="167.7" cy="18.1" r="0.5"/>
</g>
<g>
	<circle class="st0" cx="167.7" cy="26" r="0.5"/>
</g>
<g>
	<circle class="st0" cx="167.7" cy="34" r="0.5"/>
</g>
<g>
	<circle class="st0" cx="167.7" cy="41.9" r="0.5"/>
</g>
<g>
	<circle class="st0" cx="167.7" cy="49.8" r="0.5"/>
</g>
<g>
	<circle class="st0" cx="167.7" cy="57.8" r="0.5"/>
</g>
<g>
	<circle class="st0" cx="167.7" cy="65.7" r="0.5"/>
</g>
<g>
	<circle class="st0" cx="1.4" cy="2.3" r="0.5"/>
</g>
<g>
	<circle class="st0" cx="1.4" cy="10.2" r="0.5"/>
</g>
<g>
	<circle class="st0" cx="1.4" cy="18.1" r="0.5"/>
</g>
<g>
	<circle class="st0" cx="1.4" cy="26.1" r="0.5"/>
</g>
<g>
	<circle class="st0" cx="1.4" cy="34" r="0.5"/>
</g>
<g>
	<circle class="st0" cx="1.4" cy="42" r="0.5"/>
</g>
<g>
	<circle class="st0" cx="1.4" cy="49.9" r="0.5"/>
</g>
<g>
	<circle class="st0" cx="1.4" cy="57.8" r="0.5"/>
</g>
<g>
	<circle class="st0" cx="1.4" cy="65.8" r="0.5"/>
</g>
<g>
	<circle class="st0" cx="159.7" cy="2.2" r="0.5"/>
</g>
<g>
	<circle class="st0" cx="159.7" cy="10.1" r="0.5"/>
</g>
<g>
	<circle class="st0" cx="159.7" cy="18.1" r="0.5"/>
</g>
<g>
	<circle class="st0" cx="159.7" cy="26" r="0.5"/>
</g>
<g>
	<circle class="st0" cx="159.7" cy="34" r="0.5"/>
</g>
<g>
	<circle class="st0" cx="159.7" cy="41.9" r="0.5"/>
</g>
<g>
	<circle class="st0" cx="159.7" cy="49.8" r="0.5"/>
</g>
<g>
	<circle class="st0" cx="159.7" cy="57.8" r="0.5"/>
</g>
<g>
	<circle class="st0" cx="159.7" cy="65.7" r="0.5"/>
</g>
</svg>
