<?xml version="1.0" encoding="utf-8"?>
<!-- Generator: Adobe Illustrator 19.1.0, SVG Export Plug-In . SVG Version: 6.00 Build 0)  -->
<svg version="1.1" id="Layer_1" xmlns="http://www.w3.org/2000/svg" xmlns:xlink="http://www.w3.org/1999/xlink" x="0px" y="0px"
	 viewBox="0 0 700 460" style="enable-background:new 0 0 700 460;" xml:space="preserve">
<style type="text/css">
	.st0{fill:#111111;}
</style>
<g>
	<path class="st0" d="M167.5,184.8c-0.6-2.3-0.9-3.9-1.1-4.9c-0.2,0.9-0.5,2.5-0.9,4.6c-0.5,2.1-1.5,6.4-3.1,12.4h8.3l-1.7-6.5
		C168.5,189,168,187,167.5,184.8z"/>
	<path class="st0" d="M166.2,313H164v9h2.1c3.7,0,5.5-1.7,5.5-4.9C171.6,314.4,169.8,313,166.2,313z"/>
	<path class="st0" d="M0,0v460h700V0H0z M192.3,182.6c1.5-3.1,3.7-5.4,6.6-7c2.9-1.6,6.2-2.5,10.1-2.5c4.2,0,8.2,0.9,12.1,2.7
		l-3.2,8.3c-1.4-0.7-2.9-1.2-4.3-1.7c-1.4-0.5-3-0.7-4.6-0.7c-2.5,0-4.5,1-5.9,3.1c-1.4,2.1-2.1,4.9-2.1,8.5
		c0,7.5,2.9,11.2,8.6,11.2c1.7,0,3.2-0.2,4.9-0.7c1.6-0.5,3.7-1.1,4.7-1.7v8.9c-3,1.4-6.8,2.2-10.9,2.2c-5.9,0-10.3-1.7-13.5-5.1
		c-3.1-3.4-4.7-8.3-4.7-14.8C190,189.2,190.8,185.7,192.3,182.6z M200,254v8h-11v8h12v8h-23v-39h23v9h-12v6H200z M174.7,213l-1.9-8
		h-12.7l-2,8h-11.6l12.7-39h14l12.9,39H174.7z M140,108h14.1l14.2,27h0.2c-0.2-4-0.4-6.8-0.4-9.2V108h9v39h-13.4l-14.2-27h-0.2
		c0.3,4,0.8,7.3,0.8,9.6V147h-10V108z M120,108h11v39h-11V108z M120,174h23v8h-12v8h11v8h-11v15h-11V174z M147,313h-10v31h-10v-31
		h-10v-8h30V313z M146.1,261.1c-0.2-0.7-0.5-2.1-0.8-4.2s-0.7-3.9-0.8-5.3c-0.1,1.2-0.4,2.6-0.7,4.3s-0.6,3.2-0.9,4.7
		c-0.3,1.4-1.6,7.4-3.9,17.4h-12.4l-9.6-39H127l4.2,19.6c1,4.3,1.6,7.8,2,10.4c0.2-1.8,0.6-4.3,1.2-7.4s1.2-5.8,1.7-7.8l3.4-14.8
		h9.8l3.3,14.8c0.6,2.4,1.1,5.1,1.7,8.2c0.6,3.1,1,5.4,1.2,7c0.2-2,0.9-5.5,1.9-10.3l4.3-19.7h10.2l-9.6,39h-12.4L146.1,261.1z
		 M175,344l-8.3-15H164v15h-10v-39h12.3c10.6,0,15.9,3.7,15.9,11.4c0,4.5-2.2,8.1-6.6,10.6L187,344H175z M225,328.1
		c0,5.1-1.6,9-4.5,11.8c-2.9,2.8-7.1,4.2-12.6,4.2c-5.3,0-9.6-1.4-12.5-4.1c-2.9-2.7-4.5-6.6-4.5-11.7V305h11v22.6
		c0,2.8,0.5,4.8,1.5,6s2.5,1.9,4.6,1.9c2.1,0,3.6-0.6,4.6-1.9c1-1.2,1.3-3.3,1.3-6.1V305h11V328.1z M225,174h30v8h-10v31h-10v-31
		h-10V174z M244.1,317.1c0.8,0.6,2.9,1.7,6.4,3.3c3.4,1.5,5.7,3.1,7,4.9c1.3,1.7,2,3.9,2,6.5c0,2.4-0.6,4.6-1.8,6.4s-3,3.3-5.3,4.4
		c-2.3,1-5,1.6-8.1,1.6c-2.6,0-4.9-0.2-6.6-0.5c-1.8-0.4-3.6-1-5.6-1.9v-9.4c2,1,4.2,1.8,6.4,2.4c2.2,0.6,4.2,0.9,6,0.9
		c1.6,0,2.7-0.3,3.5-0.8s1.1-1.2,1.1-2.1c0-0.5-0.1-1-0.4-1.4c-0.3-0.4-0.8-0.8-1.4-1.2c-0.6-0.4-2.4-1.2-5.2-2.5
		c-2.5-1.2-4.4-2.3-5.7-3.4s-2.2-2.3-2.8-3.7c-0.6-1.4-0.9-3.1-0.9-5c0-3.6,1.3-6.4,3.9-8.4c2.6-2,6.2-3,10.8-3
		c4,0,8.1,0.9,12.3,2.8l-3.2,8.1c-3.6-1.7-6.8-2.5-9.4-2.5c-1.4,0-2.4,0.2-3,0.7c-0.6,0.5-0.9,1.1-0.9,1.8
		C242.9,315.8,243.3,316.5,244.1,317.1z M275.9,200.3c-0.3-0.4-0.8-0.8-1.4-1.2c-0.6-0.4-2.4-1.2-5.2-2.5c-2.5-1.2-4.4-2.3-5.7-3.4
		c-1.3-1.1-2.2-2.3-2.8-3.7c-0.6-1.4-0.9-3.1-0.9-5c0-3.6,1.3-6.4,3.9-8.4c2.6-2,6.2-3,10.8-3c4,0,8.1,0.9,12.3,2.8l-3.2,8.1
		c-3.6-1.7-6.8-2.5-9.4-2.5c-1.4,0-2.4,0.2-3,0.7c-0.6,0.5-0.9,1.1-0.9,1.8c0,0.8,0.4,1.4,1.2,2.1s2.9,1.7,6.4,3.3
		c3.4,1.5,5.7,3.1,7,4.9c1.3,1.7,2,3.9,2,6.5c0,2.4-0.6,4.6-1.8,6.4c-1.2,1.9-3,3.3-5.3,4.4c-2.3,1-5,1.6-8.1,1.6
		c-2.6,0-4.5-0.2-6.3-0.5c-1.8-0.4-4.3-1-5.3-1.9v-9.4c2,1,3.9,1.8,6,2.4c2.2,0.6,4,0.9,5.9,0.9c1.6,0,2.7-0.3,3.4-0.8
		c0.7-0.5,1.1-1.2,1.1-2.1C276.3,201.2,276.2,200.7,275.9,200.3z M293,313h-9v31h-11v-31h-9v-8h29V313z"/>
</g>
</svg>
