<svg xmlns="http://www.w3.org/2000/svg" xmlns:xlink="http://www.w3.org/1999/xlink" preserveAspectRatio="xMidYMid" width="55" height="50" viewBox="0 0 55 50">
  <defs>
    <style>
      .cls-1 {
        fill: #a3a6a8;
        fill-rule: evenodd;
      }
    </style>
  </defs>
  <path d="M50.504,36.663 C50.030,36.058 49.883,35.257 50.109,34.520 L54.985,18.694 C55.000,18.644 54.995,18.591 54.971,18.545 L46.424,2.613 C46.418,2.602 46.414,2.599 46.409,2.594 C46.315,2.432 46.158,2.310 45.959,2.278 L32.034,0.008 C31.700,-0.046 31.381,0.169 31.303,0.502 L26.484,20.923 C26.414,21.217 26.154,21.424 25.855,21.424 L25.085,21.424 C24.658,21.424 24.348,21.014 24.461,20.598 L28.142,7.057 C28.243,6.686 28.006,6.308 27.631,6.241 L20.539,4.976 C20.219,4.919 19.906,5.112 19.809,5.426 L14.061,24.109 C13.977,24.382 13.726,24.569 13.443,24.569 C13.021,24.569 12.712,24.166 12.817,23.752 L13.921,19.414 C14.010,19.063 13.800,18.705 13.452,18.617 L6.811,16.940 C6.480,16.856 6.142,17.046 6.038,17.375 L0.021,36.394 C-0.083,36.723 0.084,37.077 0.403,37.202 L32.904,49.957 C33.092,50.030 33.288,50.005 33.450,49.914 L52.715,39.854 C52.821,39.799 52.851,39.659 52.777,39.564 L50.504,36.663 ZM51.727,39.636 L34.830,48.321 C34.682,48.396 34.516,48.259 34.560,48.098 L46.485,4.712 C46.531,4.545 46.754,4.520 46.835,4.672 L54.281,18.613 C54.305,18.658 54.310,18.712 54.295,18.761 L49.499,34.328 C49.209,35.269 49.398,36.292 50.003,37.064 L51.790,39.346 C51.864,39.441 51.834,39.581 51.727,39.636 Z" class="cls-1"/>
</svg>
