<svg xmlns="http://www.w3.org/2000/svg" xmlns:xlink="http://www.w3.org/1999/xlink" preserveAspectRatio="xMidYMid" width="90" height="90" viewBox="0 0 90 90">
  <defs>
    <style>
      .cls-1 {
        fill: #fff;
        fill-rule: evenodd;
      }
    </style>
  </defs>
  <path d="M90.000,45.000 C90.000,69.812 69.817,90.000 44.997,90.000 C20.179,90.000 -0.001,69.812 -0.001,45.000 C-0.001,20.187 20.179,-0.001 44.997,-0.001 C69.817,-0.001 90.000,20.187 90.000,45.000 ZM88.519,45.000 C88.519,21.004 68.995,1.482 44.997,1.482 C21.001,1.482 1.480,21.004 1.480,45.000 C1.480,68.993 21.001,88.512 44.997,88.512 C68.995,88.512 88.519,68.993 88.519,45.000 ZM86.912,45.000 C86.912,68.104 68.106,86.910 44.997,86.910 C21.885,86.910 3.090,68.104 3.090,45.000 C3.090,21.893 21.885,3.089 44.997,3.089 C68.106,3.089 86.912,21.893 86.912,45.000 ZM86.168,45.000 C86.168,22.295 67.699,3.833 44.997,3.833 C22.295,3.833 3.834,22.295 3.834,45.000 C3.834,67.701 22.295,86.163 44.997,86.163 C67.699,86.163 86.168,67.701 86.168,45.000 ZM69.642,53.097 C66.239,63.451 56.495,70.938 44.997,70.938 C33.793,70.938 24.249,63.836 20.613,53.887 C21.076,53.928 21.513,54.048 21.962,54.062 C22.458,54.089 22.923,54.027 23.373,53.866 C23.652,54.389 23.877,54.828 23.884,54.838 L23.931,54.941 C24.003,55.076 24.117,55.189 24.231,55.272 L24.238,55.272 C24.365,55.370 24.520,55.427 24.691,55.443 C27.755,56.264 33.545,56.140 38.320,55.737 C42.529,55.375 46.364,55.504 50.881,55.861 C56.585,56.311 59.265,55.101 64.712,56.274 C65.394,56.424 64.495,55.205 63.735,54.481 C63.730,54.404 63.719,54.332 63.703,54.259 L63.642,54.027 C63.642,54.011 63.564,53.696 63.500,53.195 C63.582,53.164 63.657,53.132 63.688,53.102 C64.141,52.684 64.691,53.050 65.202,53.169 C65.828,53.314 66.562,53.215 67.192,53.211 C68.016,53.200 68.830,53.164 69.642,53.097 ZM50.604,64.839 C46.247,65.839 42.064,63.451 37.793,65.017 C37.103,65.273 37.731,65.658 38.212,65.482 C40.741,64.554 42.832,65.417 45.312,65.701 C47.194,65.919 48.919,65.815 50.756,65.395 C51.400,65.241 51.250,64.694 50.604,64.839 ZM60.027,58.853 C53.558,61.224 47.844,59.994 41.302,58.930 C37.155,58.258 32.713,58.036 28.814,59.865 C28.155,60.175 28.752,60.584 29.245,60.351 C34.654,57.814 40.863,59.623 46.418,60.615 C51.255,61.472 55.865,61.028 60.461,59.349 C61.146,59.090 60.525,58.677 60.027,58.853 ZM28.551,43.987 L25.119,45.165 L25.119,45.759 L28.551,44.684 L28.551,43.987 ZM44.997,19.061 C30.675,19.061 19.062,30.671 19.062,45.000 C19.062,47.914 19.548,50.704 20.428,53.319 C20.676,53.303 20.918,53.303 21.166,53.335 C21.820,53.417 22.512,53.639 23.140,53.407 C22.877,52.884 22.613,52.352 22.505,52.084 C22.122,51.169 22.375,50.306 22.427,50.141 L22.468,50.027 C22.577,49.676 22.884,49.423 23.249,49.381 L23.404,49.361 L23.404,44.597 C23.404,44.116 23.721,43.672 24.187,43.517 L24.939,43.253 L24.939,42.856 C24.939,42.385 25.218,41.966 25.651,41.796 L27.528,41.032 L27.868,37.564 C27.373,37.492 26.990,37.058 26.990,36.536 C26.990,35.962 27.450,35.497 28.024,35.497 L28.086,35.497 L28.086,35.466 C28.096,35.337 28.148,35.193 28.217,35.074 C28.248,35.006 28.300,34.934 28.349,34.872 L28.349,34.872 C28.734,34.438 29.483,34.433 29.881,34.857 L29.881,34.857 C29.923,34.908 29.972,34.965 30.003,35.027 C30.073,35.125 30.124,35.249 30.145,35.373 C30.148,35.404 30.155,35.435 30.158,35.466 L30.166,35.497 L30.220,35.497 C30.791,35.497 31.256,35.962 31.256,36.536 C31.256,37.058 30.873,37.492 30.362,37.564 L30.656,40.412 L34.134,41.041 C34.202,41.057 34.290,41.078 34.357,41.109 L34.935,41.212 C35.385,41.295 35.721,41.688 35.721,42.153 L35.721,42.602 C35.721,42.684 35.710,42.778 35.685,42.856 L35.762,42.865 C36.057,42.907 36.305,43.088 36.450,43.330 L37.049,43.150 C37.054,43.145 37.080,43.139 37.103,43.139 C37.142,43.124 37.193,43.119 37.240,43.114 C37.287,43.109 37.344,43.109 37.395,43.109 C37.442,43.114 37.495,43.114 37.568,43.124 C37.576,43.124 37.599,43.124 37.607,43.129 C37.651,43.114 37.705,43.093 37.762,43.072 L42.127,41.775 C42.199,41.749 42.261,41.739 42.330,41.734 C42.415,41.729 42.506,41.724 42.612,41.739 C42.708,41.677 42.811,41.631 42.920,41.594 L47.483,40.230 C47.555,40.215 47.622,40.199 47.689,40.194 C47.725,40.194 47.767,40.189 47.798,40.189 C47.873,40.194 47.927,40.194 47.997,40.204 C48.049,40.215 48.103,40.225 48.154,40.241 L49.578,40.737 C49.643,40.763 49.705,40.794 49.767,40.825 C49.795,40.819 49.818,40.819 49.826,40.814 C49.868,40.814 49.906,40.809 49.950,40.809 C50.012,40.809 50.074,40.814 50.136,40.825 C50.196,40.830 50.253,40.845 50.299,40.856 L50.725,41.005 L50.725,40.975 C50.725,40.473 51.056,40.024 51.542,39.879 L55.903,38.583 C55.973,38.556 56.048,38.540 56.121,38.540 C56.151,38.531 56.182,38.531 56.224,38.531 C56.288,38.531 56.358,38.536 56.422,38.551 C56.492,38.556 56.555,38.572 56.616,38.592 L57.939,39.057 C58.015,39.083 58.094,39.124 58.159,39.166 C58.175,39.160 58.198,39.156 58.211,39.156 C58.260,39.156 58.288,39.156 58.322,39.156 C58.391,39.156 58.448,39.156 58.518,39.166 C58.583,39.176 58.655,39.192 58.717,39.218 L59.901,39.626 C61.978,39.218 63.379,38.959 64.060,38.876 C65.288,38.727 66.195,38.892 66.789,39.389 C67.347,39.843 67.435,40.401 67.445,40.555 C67.445,40.582 67.445,40.608 67.445,40.633 L67.445,41.532 C67.517,41.636 67.564,41.749 67.613,41.868 C68.019,43.083 67.068,44.462 65.040,46.741 C63.409,48.591 63.316,51.133 63.441,52.673 C63.905,52.430 64.432,52.306 64.970,52.461 C66.494,52.890 68.153,52.890 69.765,52.730 C70.530,50.291 70.944,47.692 70.944,45.000 C70.944,30.671 59.325,19.061 44.997,19.061 ZM56.792,45.227 C56.727,44.845 57.485,44.462 58.041,44.312 L58.138,44.286 C58.376,44.219 58.727,44.121 59.043,44.121 C59.657,44.121 59.750,44.509 59.750,44.742 C59.750,45.377 58.515,45.491 58.267,45.511 C58.015,45.527 57.802,45.537 57.642,45.537 C57.267,45.537 56.833,45.506 56.792,45.227 ZM57.032,45.186 C57.032,45.186 57.082,45.284 57.642,45.284 C57.802,45.284 57.999,45.284 58.260,45.263 C58.883,45.217 59.502,45.025 59.502,44.742 C59.502,44.556 59.451,44.369 59.043,44.369 C58.766,44.369 58.433,44.462 58.211,44.524 L58.107,44.556 C57.456,44.731 57.019,45.067 57.032,45.186 ZM73.825,45.000 C73.825,60.894 60.887,73.817 44.997,73.817 C29.112,73.817 16.177,60.894 16.177,45.000 C16.177,29.106 29.112,16.183 44.997,16.183 C60.887,16.183 73.825,29.106 73.825,45.000 ZM73.052,45.000 C73.052,29.529 60.472,16.937 44.997,16.937 C29.528,16.937 16.939,29.529 16.939,45.000 C16.939,60.470 29.528,73.054 44.997,73.054 C60.472,73.054 73.052,60.470 73.052,45.000 ZM28.424,41.703 L28.926,36.624 L28.024,36.624 C27.977,36.624 27.938,36.582 27.938,36.536 C27.938,36.490 27.977,36.448 28.024,36.448 L28.948,36.448 L29.034,35.559 C29.034,35.544 29.050,35.539 29.054,35.523 C29.054,35.523 29.054,35.513 29.065,35.508 C29.080,35.492 29.104,35.482 29.124,35.482 C29.148,35.482 29.165,35.492 29.179,35.508 C29.186,35.513 29.186,35.523 29.188,35.523 C29.199,35.539 29.210,35.544 29.210,35.559 L29.297,36.448 L30.220,36.448 C30.269,36.448 30.300,36.490 30.300,36.536 C30.300,36.582 30.269,36.624 30.220,36.624 L29.318,36.624 L29.778,41.217 L33.959,41.982 C33.992,41.993 34.015,42.003 34.041,42.018 L34.767,42.153 L34.767,42.168 L34.767,42.602 L34.767,42.618 L34.114,43.129 L34.114,43.589 L35.623,43.811 L35.623,43.827 L35.623,44.395 L35.623,44.411 L35.406,44.633 L37.318,44.064 C37.320,44.059 37.320,44.064 37.328,44.064 C37.344,44.059 37.359,44.059 37.371,44.059 C37.390,44.059 37.400,44.059 37.421,44.069 L37.426,44.069 L37.896,44.230 L37.896,44.173 C37.896,44.085 37.953,44.013 38.031,43.992 L42.395,42.684 C42.405,42.684 42.408,42.684 42.415,42.684 C42.429,42.679 42.444,42.684 42.449,42.684 C42.475,42.684 42.481,42.684 42.506,42.684 C42.508,42.684 42.511,42.684 42.511,42.684 L43.056,42.881 L43.056,42.695 C43.056,42.602 43.119,42.535 43.193,42.509 L47.756,41.145 C47.767,41.145 47.767,41.145 47.777,41.145 C47.787,41.145 47.798,41.145 47.813,41.145 C47.831,41.145 47.844,41.145 47.865,41.150 L47.875,41.150 L49.265,41.636 C49.341,41.667 49.390,41.734 49.390,41.817 L49.390,41.920 L49.899,41.765 C49.906,41.765 49.919,41.765 49.919,41.765 C49.930,41.765 49.950,41.765 49.961,41.765 C49.973,41.765 49.991,41.765 50.005,41.770 C50.010,41.775 50.012,41.770 50.014,41.775 L51.410,42.261 C51.487,42.287 51.534,42.359 51.534,42.437 L51.534,43.992 C51.580,43.977 51.625,43.966 51.669,43.956 L51.669,43.181 L51.669,42.974 L51.669,40.975 C51.669,40.892 51.731,40.819 51.811,40.794 L56.182,39.491 C56.182,39.486 56.182,39.491 56.193,39.486 C56.214,39.486 56.224,39.486 56.244,39.486 C56.254,39.486 56.268,39.486 56.283,39.491 C56.283,39.491 56.288,39.491 56.296,39.491 L57.619,39.961 C57.701,39.982 57.753,40.055 57.753,40.137 L57.753,40.267 L58.278,40.111 C58.280,40.106 58.290,40.111 58.293,40.111 C58.309,40.106 58.322,40.106 58.335,40.106 C58.353,40.106 58.363,40.106 58.382,40.111 C58.383,40.117 58.391,40.111 58.396,40.117 L59.720,40.577 C59.748,40.587 59.761,40.608 59.782,40.629 C61.619,40.256 63.379,39.926 64.184,39.817 C65.125,39.704 65.807,39.806 66.195,40.127 C66.466,40.354 66.494,40.602 66.494,40.633 L66.494,41.858 C66.587,41.946 66.662,42.044 66.712,42.179 C66.928,42.835 66.262,43.935 64.335,46.116 C61.484,49.335 62.704,54.207 62.717,54.265 L62.745,54.363 C56.702,53.716 52.864,53.686 46.198,53.866 C43.255,53.949 35.747,55.262 32.868,55.365 C29.104,55.499 26.153,54.802 24.714,54.368 C24.590,54.135 23.611,52.270 23.380,51.717 C23.125,51.087 23.326,50.466 23.331,50.435 L23.373,50.327 L24.365,50.203 L24.365,44.597 C24.365,44.519 24.417,44.441 24.497,44.416 L25.884,43.935 L25.884,42.856 C25.884,42.778 25.941,42.710 26.016,42.679 L28.424,41.703 ZM34.114,42.613 L34.243,42.520 L34.114,42.504 L34.114,42.613 ZM24.747,50.596 C24.845,50.839 25.078,51.169 25.543,51.169 L25.602,51.169 C25.848,51.153 27.125,50.963 28.926,50.674 L28.926,44.307 L28.225,43.532 L24.747,44.737 L24.747,50.596 ZM28.926,43.708 L28.926,43.517 L28.752,43.496 L28.926,43.708 ZM64.823,41.497 C65.021,41.481 65.176,41.470 65.321,41.470 C65.440,41.470 65.533,41.481 65.608,41.491 C65.784,41.528 65.951,41.569 66.115,41.636 L66.115,40.649 C66.107,40.649 66.014,40.143 64.823,40.158 L64.823,41.497 ZM62.680,41.791 C63.366,41.683 63.965,41.594 64.440,41.537 L64.440,40.179 C64.371,40.184 64.308,40.184 64.234,40.199 C63.875,40.241 63.334,40.334 62.680,40.452 L62.680,41.791 ZM60.534,42.168 C61.151,42.055 61.750,41.946 62.293,41.853 L62.293,40.525 C61.763,40.629 61.151,40.742 60.534,40.866 L60.534,42.168 ZM59.848,42.303 C59.942,42.282 60.050,42.261 60.154,42.240 L60.154,40.938 C60.050,40.959 59.942,40.985 59.848,41.005 L59.848,42.303 ZM58.518,40.876 C58.714,40.845 58.909,40.798 59.099,40.768 L58.518,40.561 L58.518,40.876 ZM58.518,42.359 L58.867,42.489 C59.069,42.452 59.270,42.406 59.472,42.370 L59.472,41.078 C59.151,41.145 58.836,41.207 58.518,41.274 L58.518,42.359 ZM57.753,41.041 C57.885,41.011 58.012,40.985 58.138,40.959 L58.138,40.551 L57.753,40.664 L57.753,41.041 ZM57.753,42.452 L58.009,42.385 L58.009,41.377 C57.921,41.398 57.834,41.414 57.753,41.429 L57.753,42.344 L57.753,42.385 L57.753,42.452 ZM56.422,41.315 C56.722,41.254 57.040,41.186 57.363,41.119 L57.363,40.277 L56.422,39.941 L56.422,41.315 ZM56.422,41.744 L57.363,42.075 L57.363,41.507 C57.040,41.579 56.722,41.646 56.422,41.708 L56.422,41.744 ZM56.422,42.974 C56.741,42.907 57.050,42.840 57.363,42.783 L57.363,42.478 L56.422,42.148 L56.422,42.974 ZM52.059,42.731 L53.390,42.396 L53.756,41.925 C53.761,41.925 53.767,41.915 53.767,41.915 C53.767,41.910 53.777,41.910 53.787,41.905 C53.798,41.889 53.813,41.884 53.826,41.873 C53.829,41.868 53.834,41.868 53.846,41.868 C53.857,41.863 53.857,41.858 53.867,41.858 C53.973,41.832 54.842,41.646 56.048,41.398 L56.048,39.931 L52.059,41.119 L52.059,42.731 ZM54.102,42.613 L54.102,43.454 C54.663,43.336 55.255,43.212 55.865,43.088 L55.865,42.168 L54.102,42.613 ZM54.609,42.091 C54.384,42.132 54.206,42.179 54.102,42.199 L54.102,42.219 L54.609,42.091 ZM53.606,42.737 L52.823,43.718 C53.113,43.656 53.410,43.594 53.712,43.532 L53.712,42.705 L53.606,42.737 ZM52.059,43.878 C52.118,43.868 52.180,43.852 52.237,43.842 L52.989,42.887 L52.059,43.124 L52.059,43.878 ZM50.147,44.023 L50.604,44.178 C50.780,44.147 50.963,44.116 51.156,44.069 L51.156,42.571 L50.147,42.219 L50.147,44.023 ZM49.390,44.106 L49.767,44.008 L49.767,42.204 L49.390,42.323 L49.390,44.028 L49.390,44.106 ZM47.999,43.403 L49.007,43.759 L49.007,41.951 L47.999,41.600 L47.999,43.403 ZM47.999,45.703 C48.041,45.646 48.082,45.584 48.121,45.527 C48.482,44.984 48.733,44.612 49.007,44.519 L49.007,44.157 L47.999,43.811 L47.999,45.703 ZM45.144,48.446 C44.149,48.591 40.708,49.154 37.054,49.749 C31.711,50.616 26.184,51.521 25.621,51.546 L25.543,51.551 C24.827,51.551 24.458,50.994 24.334,50.586 L23.667,50.674 C23.628,50.854 23.590,51.216 23.734,51.568 C23.877,51.914 24.342,52.822 24.675,53.479 L62.030,52.833 C61.805,51.221 61.802,48.385 64.048,45.863 C65.135,44.633 66.559,42.928 66.345,42.303 C66.277,42.101 66.029,41.966 65.533,41.868 C65.487,41.853 65.409,41.853 65.321,41.853 C63.500,41.853 55.234,43.594 51.273,44.436 C50.081,44.684 49.299,44.850 49.144,44.871 C48.996,44.891 48.702,45.341 48.433,45.739 C47.777,46.726 46.785,48.219 45.144,48.446 ZM31.282,49.847 L31.282,50.301 C32.545,50.095 33.907,49.872 35.274,49.650 L35.274,48.844 L31.282,49.842 L31.282,49.847 L31.282,49.847 ZM35.274,48.446 L35.274,46.653 L31.282,47.842 L31.282,49.454 L35.274,48.446 ZM35.654,48.870 L35.654,49.583 C35.762,49.573 35.876,49.557 35.989,49.531 L35.989,48.984 L35.654,48.870 ZM35.989,48.586 L35.989,48.385 L35.989,48.311 L35.989,46.783 L35.654,46.664 L35.654,48.467 L35.989,48.586 ZM36.992,49.371 C38.165,49.180 39.307,48.994 40.351,48.823 L40.351,47.464 L36.367,48.462 L36.367,49.474 C36.578,49.438 36.785,49.402 36.992,49.371 ZM40.739,47.490 L40.739,48.762 C40.873,48.741 41.007,48.710 41.147,48.694 L41.147,47.635 L40.739,47.490 ZM41.147,47.232 L41.147,47.144 L41.147,46.834 L41.147,45.428 L40.739,45.284 L40.739,47.087 L41.147,47.232 ZM45.085,48.074 C45.302,48.038 45.519,47.986 45.710,47.904 L45.710,46.064 L45.710,45.935 L41.529,46.984 L41.529,48.632 C43.219,48.364 44.526,48.146 45.085,48.074 ZM46.097,45.956 L46.097,46.064 L46.097,47.723 C46.478,47.511 46.811,47.216 47.098,46.891 L47.098,46.307 L46.097,45.956 ZM47.098,45.898 L47.098,44.095 L46.097,43.749 L46.097,45.542 L47.098,45.898 ZM47.622,45.961 L47.622,43.780 L47.418,43.832 C47.456,43.868 47.480,43.910 47.480,43.961 L47.480,45.987 L47.622,45.961 ZM47.480,46.379 L47.480,46.436 C47.501,46.415 47.518,46.389 47.534,46.370 L47.480,46.379 ZM43.441,44.013 L45.855,43.295 C45.857,43.295 45.860,43.295 45.865,43.295 C45.886,43.289 45.891,43.289 45.909,43.289 C45.922,43.289 45.932,43.295 45.953,43.295 C45.953,43.295 45.958,43.295 45.964,43.295 L46.819,43.594 L47.622,43.393 L47.622,41.590 L43.441,42.835 L43.441,44.013 ZM42.640,44.251 L43.056,44.126 L43.056,43.284 L42.640,43.139 L42.640,44.251 ZM41.529,44.984 L41.529,46.591 L45.710,45.537 L45.710,43.733 L41.529,44.984 ZM38.274,45.491 L40.491,44.829 C40.496,44.829 40.496,44.829 40.503,44.829 C40.522,44.829 40.532,44.829 40.553,44.829 C40.558,44.829 40.583,44.829 40.594,44.829 C40.604,44.829 40.604,44.829 40.607,44.829 L41.147,45.025 L41.147,44.835 C41.147,44.757 41.206,44.679 41.289,44.653 L42.261,44.364 L42.261,43.124 L38.274,44.312 L38.274,45.491 ZM37.561,45.703 L37.896,45.610 L37.896,44.633 L37.561,44.519 L37.561,45.703 ZM36.367,46.457 L36.367,48.069 L40.351,47.071 L40.351,45.268 L36.367,46.457 ZM33.189,45.692 L33.189,46.870 L35.411,46.209 C35.411,46.204 35.416,46.209 35.429,46.209 C35.437,46.204 35.442,46.204 35.468,46.204 C35.481,46.204 35.499,46.204 35.509,46.209 C35.514,46.214 35.524,46.209 35.530,46.214 L35.989,46.374 L35.989,46.317 C35.989,46.230 36.046,46.162 36.124,46.137 L37.178,45.816 L37.178,44.503 L33.189,45.692 ZM34.687,44.669 L35.065,44.328 L34.687,44.271 L34.687,44.669 ZM29.881,42.943 L31.914,43.269 L33.736,43.532 L33.736,42.437 L29.881,41.811 L29.881,42.943 ZM29.308,43.569 L29.308,50.616 C29.816,50.539 30.351,50.451 30.904,50.358 L30.904,49.692 L30.904,49.692 L30.904,47.692 C30.904,47.614 30.964,47.537 31.044,47.511 L32.806,46.984 L32.806,45.542 C32.806,45.470 32.868,45.393 32.951,45.366 L33.798,45.108 L29.731,44.684 L29.731,43.987 L34.005,44.545 L34.005,45.052 L34.302,44.964 L34.302,44.225 L29.308,43.569 ZM29.488,41.744 L29.483,41.744 L29.488,41.760 L29.488,41.744 ZM29.210,41.171 L29.576,41.227 L29.607,41.217 L29.210,37.280 L29.210,41.171 ZM26.264,42.979 L26.264,43.806 L28.111,43.171 L28.111,42.710 L29.044,42.845 L29.054,42.840 L29.065,42.840 C29.080,42.835 29.104,42.835 29.122,42.835 C29.137,42.835 29.143,42.835 29.148,42.835 L29.148,42.835 L29.488,42.887 L29.488,42.235 L29.124,41.827 L26.264,42.979 ZM28.597,41.631 L28.972,41.481 L28.972,41.124 L29.034,41.134 L29.034,37.280 L28.597,41.631 ZM13.386,55.391 L12.681,52.693 L11.629,52.967 L12.012,54.414 C12.322,55.603 11.999,56.336 10.697,56.683 C9.386,57.029 8.743,56.538 8.433,55.360 L7.637,52.352 L13.479,50.818 L14.595,55.071 L13.386,55.391 ZM9.270,53.587 L9.549,54.668 C9.673,55.117 9.820,55.246 10.265,55.133 C10.751,55.004 10.821,54.812 10.707,54.368 L10.417,53.288 L9.270,53.587 ZM13.531,58.899 L14.608,61.240 L13.593,61.700 L12.515,59.370 L11.446,59.855 L12.621,62.397 L11.422,62.953 L9.580,58.951 L15.060,56.419 L16.877,60.372 L15.683,60.925 L14.533,58.435 L13.531,58.899 ZM16.484,64.227 L16.921,64.854 C17.208,65.262 17.404,65.373 17.799,65.094 C18.099,64.890 18.192,64.666 17.724,63.983 C17.355,63.464 17.107,63.312 16.691,63.599 L15.807,62.341 L16.021,62.196 C17.109,61.431 17.913,61.964 18.812,63.250 C19.714,64.536 19.993,65.521 18.960,66.247 C18.334,66.684 17.838,66.846 17.272,66.270 L17.218,66.304 C17.605,66.985 17.386,67.464 16.776,67.887 C15.631,68.696 15.029,68.603 13.771,66.808 C12.797,65.417 12.539,64.542 13.952,63.552 L14.841,64.821 C14.319,65.180 14.399,65.404 14.851,66.048 C15.285,66.668 15.533,66.792 15.960,66.503 C16.309,66.254 16.363,65.996 16.055,65.567 L15.564,64.867 L16.484,64.227 ZM27.094,71.615 L23.331,76.328 L22.071,75.320 L24.964,71.703 L23.326,70.396 L20.435,74.008 L19.187,73.011 L22.946,68.301 L27.094,71.615 ZM26.005,75.511 L26.791,73.998 C27.646,72.349 28.843,72.566 30.290,73.321 C31.747,74.075 32.605,74.930 31.747,76.581 L30.961,78.084 C30.104,79.738 28.895,79.544 27.445,78.792 C26.003,78.038 25.148,77.162 26.005,75.511 ZM29.569,77.165 L30.197,75.961 C30.605,75.170 30.388,74.943 29.649,74.561 C28.907,74.175 28.597,74.116 28.179,74.917 L27.556,76.124 C27.140,76.919 27.349,77.162 28.086,77.552 C28.837,77.935 29.148,77.969 29.569,77.165 ZM36.268,78.015 L36.336,77.790 C36.470,77.327 36.077,77.103 35.550,76.948 C34.671,76.682 34.507,76.937 34.259,77.759 L33.992,78.664 C33.736,79.526 33.669,79.903 34.591,80.177 C35.230,80.366 35.550,80.412 35.752,79.728 L35.808,79.567 L37.390,80.038 L37.344,80.208 C36.863,81.833 36.165,82.110 34.362,81.567 C32.786,81.102 31.667,80.653 32.299,78.534 L32.739,77.046 C33.312,75.129 34.419,75.150 36.124,75.656 C37.651,76.111 38.362,76.782 37.922,78.265 L37.855,78.487 L36.268,78.015 ZM40.651,79.123 L43.209,79.402 L43.090,80.513 L40.527,80.234 L40.403,81.399 L43.188,81.709 L43.039,83.019 L38.661,82.541 L39.317,76.545 L43.635,77.018 L43.499,78.330 L40.772,78.030 L40.651,79.123 ZM46.756,82.967 L45.147,83.081 L44.728,77.067 L47.751,76.857 C49.240,76.757 49.844,77.266 49.950,78.839 C50.074,80.534 49.733,81.092 48.059,81.200 L46.635,81.304 L46.756,82.967 ZM46.542,79.988 L47.645,79.911 C48.247,79.870 48.356,79.743 48.305,78.971 C48.258,78.354 48.149,78.152 47.529,78.196 L46.418,78.270 L46.542,79.988 ZM52.802,78.495 L55.296,77.867 L55.573,78.948 L53.082,79.578 L53.364,80.714 L56.071,80.035 L56.399,81.317 L52.120,82.386 L50.655,76.535 L54.877,75.478 L55.192,76.759 L52.536,77.418 L52.802,78.495 ZM60.773,72.922 L62.727,77.147 L63.192,76.937 L64.345,79.456 L62.965,80.099 L62.376,78.834 L59.511,80.159 L60.092,81.420 L58.696,82.063 L57.539,79.544 L57.973,79.348 C58.107,78.650 58.009,77.994 57.453,76.798 L56.562,74.871 L60.773,72.922 ZM58.531,75.491 L58.883,76.240 C59.379,77.325 59.502,77.979 59.440,78.658 L61.270,77.824 L59.901,74.855 L58.531,75.491 ZM64.402,73.230 L66.094,71.988 L64.747,70.163 L66.045,69.210 L69.616,74.069 L68.324,75.020 L66.913,73.122 L65.233,74.362 L66.634,76.268 L65.332,77.222 L61.763,72.357 L63.058,71.406 L64.402,73.230 ZM70.758,70.104 L70.788,70.063 L69.114,65.996 L70.540,64.428 L75.005,68.487 L73.979,69.618 L71.037,66.947 L70.995,66.988 L72.721,71.000 L71.251,72.618 L66.789,68.564 L67.812,67.435 L70.758,70.104 ZM73.877,63.420 L74.122,63.004 L72.974,60.506 L73.978,58.838 L75.419,62.180 L79.240,61.783 L78.217,63.495 L75.316,63.723 L75.073,64.139 L77.104,65.348 L76.277,66.727 L71.099,63.635 L71.933,62.258 L73.877,63.420 ZM80.369,58.930 L79.747,60.413 L74.168,58.078 L74.804,56.590 L80.369,58.930 ZM75.272,55.577 L76.088,52.513 C76.398,51.350 76.794,50.730 78.065,51.066 C78.803,51.257 79.249,51.531 79.166,52.337 L79.228,52.352 C79.512,51.505 80.067,51.489 80.804,51.691 C82.235,52.068 82.261,52.791 81.926,54.027 L81.109,57.122 L75.272,55.577 ZM78.013,54.642 L78.318,53.520 C78.458,52.973 78.401,52.817 77.931,52.693 C77.585,52.600 77.422,52.642 77.305,53.050 L76.959,54.363 L78.013,54.642 ZM80.245,55.225 L80.556,54.053 C80.685,53.546 80.617,53.303 80.153,53.179 C79.672,53.055 79.553,53.215 79.419,53.722 L79.098,54.921 L80.245,55.225 ZM8.681,33.740 L9.820,30.790 C10.254,29.669 10.719,29.090 11.947,29.560 C12.660,29.845 13.076,30.160 12.903,30.950 L12.960,30.976 C13.334,30.160 13.893,30.216 14.603,30.485 C15.983,31.013 15.921,31.735 15.461,32.929 L14.316,35.916 L8.681,33.740 ZM11.508,33.120 L11.929,32.030 C12.123,31.503 12.092,31.338 11.639,31.172 C11.306,31.043 11.131,31.059 10.976,31.462 L10.490,32.718 L11.508,33.120 ZM13.663,33.942 L14.097,32.810 C14.285,32.319 14.252,32.071 13.789,31.896 C13.324,31.715 13.190,31.865 13.001,32.351 L12.557,33.513 L13.663,33.942 ZM14.505,22.264 L19.590,25.509 L18.730,26.863 L14.820,24.378 L13.890,25.840 L16.021,27.204 C17.138,27.912 17.541,28.847 16.882,29.881 C16.696,30.170 16.551,30.345 16.381,30.532 L15.277,29.829 C15.401,29.741 15.476,29.633 15.588,29.447 C15.833,29.075 15.719,28.827 15.223,28.506 L11.885,26.383 L14.505,22.264 ZM20.629,22.802 L21.171,23.737 L20.001,24.935 L16.939,19.433 L18.644,17.681 L24.249,20.570 L23.099,21.747 L22.140,21.251 L20.629,22.802 ZM18.675,19.370 L18.668,19.386 L20.035,21.737 L21.079,20.673 L18.675,19.370 ZM25.491,14.999 L25.365,14.803 C25.088,14.405 24.660,14.576 24.210,14.886 C23.466,15.402 23.559,15.697 24.045,16.395 L24.572,17.169 C25.086,17.914 25.327,18.208 26.133,17.655 C26.680,17.278 26.915,17.056 26.512,16.472 L26.412,16.327 L27.776,15.387 L27.879,15.537 C28.837,16.932 28.613,17.640 27.070,18.709 C25.719,19.640 24.660,20.229 23.414,18.410 L22.536,17.123 C21.404,15.485 22.109,14.638 23.569,13.630 C24.889,12.721 25.853,12.596 26.729,13.868 L26.861,14.059 L25.491,14.999 ZM29.954,12.654 L31.881,11.827 L30.985,9.739 L32.465,9.109 L34.842,14.648 L33.364,15.278 L32.434,13.113 L30.501,13.941 L31.437,16.110 L29.954,16.746 L27.579,11.201 L29.054,10.566 L29.954,12.654 ZM37.049,11.961 L37.101,11.956 L38.155,7.683 L40.232,7.259 L41.426,13.176 L39.933,13.475 L39.142,9.589 L39.080,9.595 L38.103,13.847 L35.953,14.281 L34.754,8.375 L36.253,8.070 L37.049,11.961 ZM44.139,11.026 L44.196,11.026 L46.126,7.078 L48.242,7.104 L48.175,13.129 L46.640,13.113 L46.692,9.140 L46.635,9.140 L44.775,13.093 L42.594,13.067 L42.664,7.032 L44.191,7.053 L44.139,11.026 ZM45.330,5.936 C45.860,5.942 46.061,5.833 46.072,5.404 L46.736,5.415 C46.728,6.500 46.188,6.634 45.322,6.629 C44.438,6.613 43.907,6.469 43.927,5.378 L44.604,5.389 C44.594,5.812 44.801,5.931 45.330,5.936 ZM54.051,14.395 L52.493,13.981 L54.072,8.153 L55.624,8.577 L54.051,14.395 ZM60.107,10.194 L59.552,14.111 L59.595,14.137 L62.190,11.165 L64.554,12.271 L62.009,17.738 L60.546,17.056 L62.650,12.938 L62.593,12.891 L59.255,16.456 L57.999,15.867 L58.580,11.021 L58.510,11.005 L56.702,15.258 L55.245,14.580 L57.798,9.114 L60.107,10.194 ZM70.848,17.097 L67.073,21.804 L65.815,20.797 L68.716,17.185 L67.079,15.867 L64.182,19.479 L62.918,18.477 L66.701,13.770 L70.848,17.097 ZM69.456,21.112 L70.779,20.032 C72.202,18.844 73.217,19.510 74.261,20.766 C75.300,22.021 75.758,23.143 74.332,24.331 L73.021,25.411 C71.584,26.599 70.540,25.954 69.512,24.698 C68.463,23.443 68.029,22.300 69.456,21.112 ZM72.091,24.027 L73.146,23.158 C73.827,22.590 73.714,22.295 73.182,21.655 C72.649,21.014 72.399,20.838 71.696,21.417 L70.654,22.280 C69.952,22.858 70.052,23.158 70.587,23.804 C71.127,24.455 71.409,24.600 72.091,24.027 ZM72.665,29.090 L71.903,27.675 L77.212,24.812 L78.648,27.478 C79.357,28.795 79.140,29.555 77.750,30.299 C76.261,31.110 75.610,31.027 74.815,29.550 L74.137,28.294 L72.665,29.090 ZM75.300,27.670 L75.819,28.641 C76.119,29.173 76.272,29.224 76.959,28.852 C77.497,28.558 77.639,28.372 77.331,27.819 L76.812,26.853 L75.300,27.670 ZM75.574,35.869 L75.073,34.340 L79.478,32.904 L78.974,31.353 L80.308,30.919 L81.824,35.539 L80.483,35.978 L79.977,34.428 L75.574,35.869 ZM12.066,43.486 C12.066,44.602 11.166,45.501 10.056,45.501 C8.942,45.501 8.043,44.602 8.043,43.486 C8.043,42.380 8.942,41.481 10.056,41.481 C11.166,41.481 12.066,42.380 12.066,43.486 ZM81.951,43.486 C81.951,44.602 81.051,45.501 79.935,45.501 C78.828,45.501 77.926,44.602 77.926,43.486 C77.926,42.380 78.828,41.481 79.935,41.481 C81.051,41.481 81.951,42.380 81.951,43.486 Z" class="cls-1"/>
</svg>
