<?xml version="1.0" encoding="utf-8"?>
<!-- Generator: Adobe Illustrator 19.1.0, SVG Export Plug-In . SVG Version: 6.00 Build 0)  -->
<svg version="1.1" id="dot_pattern" xmlns="http://www.w3.org/2000/svg" xmlns:xlink="http://www.w3.org/1999/xlink" x="0px"
	 y="0px" viewBox="0 0 182.3 66.2" style="enable-background:new 0 0 182.3 66.2;" xml:space="preserve">
<style type="text/css">
	.st0{fill:#FEE41A;}
	.st1{fill:#FFFFFF;}
</style>
<g>
	<circle class="st1" cx="152.2" cy="2.3" r="0.5"/>
</g>
<g>
	<circle class="st1" cx="152.2" cy="10.2" r="0.5"/>
</g>
<g>
	<circle class="st1" cx="152.2" cy="18.1" r="0.5"/>
</g>
<g>
	<circle class="st1" cx="152.2" cy="26.1" r="0.5"/>
</g>
<g>
	<circle class="st1" cx="152.2" cy="34" r="0.5"/>
</g>
<g>
	<circle class="st1" cx="152.2" cy="42" r="0.5"/>
</g>
<g>
	<circle class="st1" cx="152.2" cy="49.9" r="0.5"/>
</g>
<g>
	<circle class="st1" cx="152.2" cy="57.8" r="0.5"/>
</g>
<g>
	<circle class="st1" cx="152.2" cy="65.8" r="0.5"/>
</g>
<g>
	<circle class="st1" cx="144.3" cy="2.3" r="0.5"/>
</g>
<g>
	<circle class="st1" cx="144.3" cy="10.2" r="0.5"/>
</g>
<g>
	<circle class="st1" cx="144.3" cy="18.1" r="0.5"/>
</g>
<g>
	<circle class="st1" cx="144.3" cy="26.1" r="0.5"/>
</g>
<g>
	<circle class="st1" cx="144.3" cy="34" r="0.5"/>
</g>
<g>
	<circle class="st1" cx="144.3" cy="42" r="0.5"/>
</g>
<g>
	<circle class="st1" cx="144.3" cy="49.9" r="0.5"/>
</g>
<g>
	<circle class="st1" cx="144.3" cy="57.8" r="0.5"/>
</g>
<g>
	<circle class="st1" cx="144.3" cy="65.8" r="0.5"/>
</g>
<g>
	<circle class="st1" cx="136.4" cy="2.3" r="0.5"/>
</g>
<g>
	<circle class="st1" cx="136.4" cy="10.2" r="0.5"/>
</g>
<g>
	<circle class="st1" cx="136.4" cy="18.1" r="0.5"/>
</g>
<g>
	<circle class="st1" cx="136.4" cy="26.1" r="0.5"/>
</g>
<g>
	<circle class="st1" cx="136.4" cy="34" r="0.5"/>
</g>
<g>
	<circle class="st1" cx="136.4" cy="42" r="0.5"/>
</g>
<g>
	<circle class="st1" cx="136.4" cy="49.9" r="0.5"/>
</g>
<g>
	<circle class="st1" cx="136.4" cy="57.8" r="0.5"/>
</g>
<g>
	<circle class="st1" cx="136.4" cy="65.8" r="0.5"/>
</g>
<g>
	<circle class="st1" cx="128.4" cy="2.3" r="0.5"/>
</g>
<g>
	<circle class="st1" cx="128.4" cy="10.2" r="0.5"/>
</g>
<g>
	<circle class="st1" cx="128.4" cy="18.1" r="0.5"/>
</g>
<g>
	<circle class="st1" cx="128.4" cy="26.1" r="0.5"/>
</g>
<g>
	<circle class="st1" cx="128.4" cy="34" r="0.5"/>
</g>
<g>
	<circle class="st1" cx="128.4" cy="42" r="0.5"/>
</g>
<g>
	<circle class="st1" cx="128.4" cy="49.9" r="0.5"/>
</g>
<g>
	<circle class="st1" cx="128.4" cy="57.8" r="0.5"/>
</g>
<g>
	<circle class="st1" cx="128.4" cy="65.8" r="0.5"/>
</g>
<g>
	<circle class="st1" cx="120.5" cy="2.3" r="0.5"/>
</g>
<g>
	<circle class="st1" cx="120.5" cy="10.2" r="0.5"/>
</g>
<g>
	<circle class="st1" cx="120.5" cy="18.1" r="0.5"/>
</g>
<g>
	<circle class="st1" cx="120.5" cy="26.1" r="0.5"/>
</g>
<g>
	<circle class="st1" cx="120.5" cy="34" r="0.5"/>
</g>
<g>
	<circle class="st1" cx="120.5" cy="42" r="0.5"/>
</g>
<g>
	<circle class="st1" cx="120.5" cy="49.9" r="0.5"/>
</g>
<g>
	<circle class="st1" cx="120.5" cy="57.8" r="0.5"/>
</g>
<g>
	<circle class="st1" cx="120.5" cy="65.8" r="0.5"/>
</g>
<g>
	<circle class="st1" cx="112.5" cy="2.3" r="0.5"/>
</g>
<g>
	<circle class="st1" cx="112.5" cy="10.2" r="0.5"/>
</g>
<g>
	<circle class="st1" cx="112.5" cy="18.1" r="0.5"/>
</g>
<g>
	<circle class="st1" cx="112.5" cy="26.1" r="0.5"/>
</g>
<g>
	<circle class="st1" cx="112.5" cy="34" r="0.5"/>
</g>
<g>
	<circle class="st1" cx="112.5" cy="42" r="0.5"/>
</g>
<g>
	<circle class="st1" cx="112.5" cy="49.9" r="0.5"/>
</g>
<g>
	<circle class="st1" cx="112.5" cy="57.8" r="0.5"/>
</g>
<g>
	<circle class="st1" cx="112.5" cy="65.8" r="0.5"/>
</g>
<g>
	<circle class="st1" cx="104.6" cy="2.3" r="0.5"/>
</g>
<g>
	<circle class="st1" cx="104.6" cy="10.2" r="0.5"/>
</g>
<g>
	<circle class="st1" cx="104.6" cy="18.1" r="0.5"/>
</g>
<g>
	<circle class="st1" cx="104.6" cy="26.1" r="0.5"/>
</g>
<g>
	<circle class="st1" cx="104.6" cy="34" r="0.5"/>
</g>
<g>
	<circle class="st1" cx="104.6" cy="42" r="0.5"/>
</g>
<g>
	<circle class="st1" cx="104.6" cy="49.9" r="0.5"/>
</g>
<g>
	<circle class="st1" cx="104.6" cy="57.8" r="0.5"/>
</g>
<g>
	<circle class="st1" cx="104.6" cy="65.8" r="0.5"/>
</g>
<g>
	<circle class="st1" cx="96.7" cy="2.3" r="0.5"/>
</g>
<g>
	<circle class="st1" cx="96.7" cy="10.2" r="0.5"/>
</g>
<g>
	<circle class="st1" cx="96.7" cy="18.1" r="0.5"/>
</g>
<g>
	<circle class="st1" cx="96.7" cy="26.1" r="0.5"/>
</g>
<g>
	<circle class="st1" cx="96.7" cy="34" r="0.5"/>
</g>
<g>
	<circle class="st1" cx="96.7" cy="42" r="0.5"/>
</g>
<g>
	<circle class="st1" cx="96.7" cy="49.9" r="0.5"/>
</g>
<g>
	<circle class="st1" cx="96.7" cy="57.8" r="0.5"/>
</g>
<g>
	<circle class="st1" cx="96.7" cy="65.8" r="0.5"/>
</g>
<g>
	<circle class="st1" cx="88.7" cy="2.3" r="0.5"/>
</g>
<g>
	<circle class="st1" cx="88.7" cy="10.2" r="0.5"/>
</g>
<g>
	<circle class="st1" cx="88.7" cy="18.1" r="0.5"/>
</g>
<g>
	<circle class="st1" cx="88.7" cy="26.1" r="0.5"/>
</g>
<g>
	<circle class="st1" cx="88.7" cy="34" r="0.5"/>
</g>
<g>
	<circle class="st1" cx="88.7" cy="42" r="0.5"/>
</g>
<g>
	<circle class="st1" cx="88.7" cy="49.9" r="0.5"/>
</g>
<g>
	<circle class="st1" cx="88.7" cy="57.8" r="0.5"/>
</g>
<g>
	<circle class="st1" cx="88.7" cy="65.8" r="0.5"/>
</g>
<g>
	<circle class="st1" cx="80.8" cy="2.3" r="0.5"/>
</g>
<g>
	<circle class="st1" cx="80.8" cy="10.2" r="0.5"/>
</g>
<g>
	<circle class="st1" cx="80.8" cy="18.1" r="0.5"/>
</g>
<g>
	<circle class="st1" cx="80.8" cy="26.1" r="0.5"/>
</g>
<g>
	<circle class="st1" cx="80.8" cy="34" r="0.5"/>
</g>
<g>
	<circle class="st1" cx="80.8" cy="42" r="0.5"/>
</g>
<g>
	<circle class="st1" cx="80.8" cy="49.9" r="0.5"/>
</g>
<g>
	<circle class="st1" cx="80.8" cy="57.8" r="0.5"/>
</g>
<g>
	<circle class="st1" cx="80.8" cy="65.8" r="0.5"/>
</g>
<g>
	<circle class="st1" cx="72.8" cy="2.3" r="0.5"/>
</g>
<g>
	<circle class="st1" cx="72.8" cy="10.2" r="0.5"/>
</g>
<g>
	<circle class="st1" cx="72.8" cy="18.1" r="0.5"/>
</g>
<g>
	<circle class="st1" cx="72.8" cy="26.1" r="0.5"/>
</g>
<g>
	<circle class="st1" cx="72.8" cy="34" r="0.5"/>
</g>
<g>
	<circle class="st1" cx="72.8" cy="42" r="0.5"/>
</g>
<g>
	<circle class="st1" cx="72.8" cy="49.9" r="0.5"/>
</g>
<g>
	<circle class="st1" cx="72.8" cy="57.8" r="0.5"/>
</g>
<g>
	<circle class="st1" cx="72.8" cy="65.8" r="0.5"/>
</g>
<g>
	<circle class="st1" cx="64.9" cy="2.3" r="0.5"/>
</g>
<g>
	<circle class="st1" cx="64.9" cy="10.2" r="0.5"/>
</g>
<g>
	<circle class="st1" cx="64.9" cy="18.1" r="0.5"/>
</g>
<g>
	<circle class="st1" cx="64.9" cy="26.1" r="0.5"/>
</g>
<g>
	<circle class="st1" cx="64.9" cy="34" r="0.5"/>
</g>
<g>
	<circle class="st1" cx="64.9" cy="42" r="0.5"/>
</g>
<g>
	<circle class="st1" cx="64.9" cy="49.9" r="0.5"/>
</g>
<g>
	<circle class="st1" cx="64.9" cy="57.8" r="0.5"/>
</g>
<g>
	<circle class="st1" cx="64.9" cy="65.8" r="0.5"/>
</g>
<g>
	<circle class="st1" cx="57" cy="2.3" r="0.5"/>
</g>
<g>
	<circle class="st1" cx="57" cy="10.2" r="0.5"/>
</g>
<g>
	<circle class="st1" cx="57" cy="18.1" r="0.5"/>
</g>
<g>
	<circle class="st1" cx="57" cy="26.1" r="0.5"/>
</g>
<g>
	<circle class="st1" cx="57" cy="34" r="0.5"/>
</g>
<g>
	<circle class="st1" cx="57" cy="42" r="0.5"/>
</g>
<g>
	<circle class="st1" cx="57" cy="49.9" r="0.5"/>
</g>
<g>
	<circle class="st1" cx="57" cy="57.8" r="0.5"/>
</g>
<g>
	<circle class="st1" cx="57" cy="65.8" r="0.5"/>
</g>
<g>
	<circle class="st1" cx="49" cy="2.3" r="0.5"/>
</g>
<g>
	<circle class="st1" cx="49" cy="10.2" r="0.5"/>
</g>
<g>
	<circle class="st1" cx="49" cy="18.1" r="0.5"/>
</g>
<g>
	<circle class="st1" cx="49" cy="26.1" r="0.5"/>
</g>
<g>
	<circle class="st1" cx="49" cy="34" r="0.5"/>
</g>
<g>
	<circle class="st1" cx="49" cy="42" r="0.5"/>
</g>
<g>
	<circle class="st1" cx="49" cy="49.9" r="0.5"/>
</g>
<g>
	<circle class="st1" cx="49" cy="57.8" r="0.5"/>
</g>
<g>
	<circle class="st1" cx="49" cy="65.8" r="0.5"/>
</g>
<g>
	<circle class="st1" cx="41.1" cy="2.3" r="0.5"/>
</g>
<g>
	<circle class="st1" cx="41.1" cy="10.2" r="0.5"/>
</g>
<g>
	<circle class="st1" cx="41.1" cy="18.1" r="0.5"/>
</g>
<g>
	<circle class="st1" cx="41.1" cy="26.1" r="0.5"/>
</g>
<g>
	<circle class="st1" cx="41.1" cy="34" r="0.5"/>
</g>
<g>
	<circle class="st1" cx="41.1" cy="42" r="0.5"/>
</g>
<g>
	<circle class="st1" cx="41.1" cy="49.9" r="0.5"/>
</g>
<g>
	<circle class="st1" cx="41.1" cy="57.8" r="0.5"/>
</g>
<g>
	<circle class="st1" cx="41.1" cy="65.8" r="0.5"/>
</g>
<g>
	<circle class="st1" cx="33.1" cy="2.3" r="0.5"/>
</g>
<g>
	<circle class="st1" cx="33.1" cy="10.2" r="0.5"/>
</g>
<g>
	<circle class="st1" cx="33.1" cy="18.1" r="0.5"/>
</g>
<g>
	<circle class="st1" cx="33.1" cy="26.1" r="0.5"/>
</g>
<g>
	<circle class="st1" cx="33.1" cy="34" r="0.5"/>
</g>
<g>
	<circle class="st1" cx="33.1" cy="42" r="0.5"/>
</g>
<g>
	<circle class="st1" cx="33.1" cy="49.9" r="0.5"/>
</g>
<g>
	<circle class="st1" cx="33.1" cy="57.8" r="0.5"/>
</g>
<g>
	<circle class="st1" cx="33.1" cy="65.8" r="0.5"/>
</g>
<g>
	<circle class="st1" cx="25.2" cy="2.3" r="0.5"/>
</g>
<g>
	<circle class="st1" cx="25.2" cy="10.2" r="0.5"/>
</g>
<g>
	<circle class="st1" cx="25.2" cy="18.1" r="0.5"/>
</g>
<g>
	<circle class="st1" cx="25.2" cy="26.1" r="0.5"/>
</g>
<g>
	<circle class="st1" cx="25.2" cy="34" r="0.5"/>
</g>
<g>
	<circle class="st1" cx="25.2" cy="42" r="0.5"/>
</g>
<g>
	<circle class="st1" cx="25.2" cy="49.9" r="0.5"/>
</g>
<g>
	<circle class="st1" cx="25.2" cy="57.8" r="0.5"/>
</g>
<g>
	<circle class="st1" cx="25.2" cy="65.8" r="0.5"/>
</g>
<g>
	<circle class="st1" cx="17.3" cy="2.3" r="0.5"/>
</g>
<g>
	<circle class="st1" cx="17.3" cy="10.2" r="0.5"/>
</g>
<g>
	<circle class="st1" cx="17.3" cy="18.1" r="0.5"/>
</g>
<g>
	<circle class="st1" cx="17.3" cy="26.1" r="0.5"/>
</g>
<g>
	<circle class="st1" cx="17.3" cy="34" r="0.5"/>
</g>
<g>
	<circle class="st1" cx="17.3" cy="42" r="0.5"/>
</g>
<g>
	<circle class="st1" cx="17.3" cy="49.9" r="0.5"/>
</g>
<g>
	<circle class="st1" cx="17.3" cy="57.8" r="0.5"/>
</g>
<g>
	<circle class="st1" cx="17.3" cy="65.8" r="0.5"/>
</g>
<g>
	<circle class="st1" cx="175.6" cy="2.2" r="0.5"/>
</g>
<g>
	<circle class="st1" cx="175.6" cy="10.1" r="0.5"/>
</g>
<g>
	<circle class="st1" cx="175.6" cy="18.1" r="0.5"/>
</g>
<g>
	<circle class="st1" cx="175.6" cy="26" r="0.5"/>
</g>
<g>
	<circle class="st1" cx="175.6" cy="34" r="0.5"/>
</g>
<g>
	<circle class="st1" cx="175.6" cy="41.9" r="0.5"/>
</g>
<g>
	<circle class="st1" cx="175.6" cy="49.8" r="0.5"/>
</g>
<g>
	<circle class="st1" cx="175.6" cy="57.8" r="0.5"/>
</g>
<g>
	<circle class="st1" cx="175.6" cy="65.7" r="0.5"/>
</g>
<g>
	<circle class="st1" cx="9.3" cy="2.3" r="0.5"/>
</g>
<g>
	<circle class="st1" cx="9.3" cy="10.2" r="0.5"/>
</g>
<g>
	<circle class="st1" cx="9.3" cy="18.1" r="0.5"/>
</g>
<g>
	<circle class="st1" cx="9.3" cy="26.1" r="0.5"/>
</g>
<g>
	<circle class="st1" cx="9.3" cy="34" r="0.5"/>
</g>
<g>
	<circle class="st1" cx="9.3" cy="42" r="0.5"/>
</g>
<g>
	<circle class="st1" cx="9.3" cy="49.9" r="0.5"/>
</g>
<g>
	<circle class="st1" cx="9.3" cy="57.8" r="0.5"/>
</g>
<g>
	<circle class="st1" cx="9.3" cy="65.8" r="0.5"/>
</g>
<g>
	<circle class="st1" cx="167.7" cy="2.2" r="0.5"/>
</g>
<g>
	<circle class="st1" cx="167.7" cy="10.1" r="0.5"/>
</g>
<g>
	<circle class="st1" cx="167.7" cy="18.1" r="0.5"/>
</g>
<g>
	<circle class="st1" cx="167.7" cy="26" r="0.5"/>
</g>
<g>
	<circle class="st1" cx="167.7" cy="34" r="0.5"/>
</g>
<g>
	<circle class="st1" cx="167.7" cy="41.9" r="0.5"/>
</g>
<g>
	<circle class="st1" cx="167.7" cy="49.8" r="0.5"/>
</g>
<g>
	<circle class="st1" cx="167.7" cy="57.8" r="0.5"/>
</g>
<g>
	<circle class="st1" cx="167.7" cy="65.7" r="0.5"/>
</g>
<g>
	<circle class="st1" cx="1.4" cy="2.3" r="0.5"/>
</g>
<g>
	<circle class="st1" cx="1.4" cy="10.2" r="0.5"/>
</g>
<g>
	<circle class="st1" cx="1.4" cy="18.1" r="0.5"/>
</g>
<g>
	<circle class="st1" cx="1.4" cy="26.1" r="0.5"/>
</g>
<g>
	<circle class="st1" cx="1.4" cy="34" r="0.5"/>
</g>
<g>
	<circle class="st1" cx="1.4" cy="42" r="0.5"/>
</g>
<g>
	<circle class="st1" cx="1.4" cy="49.9" r="0.5"/>
</g>
<g>
	<circle class="st1" cx="1.4" cy="57.8" r="0.5"/>
</g>
<g>
	<circle class="st1" cx="1.4" cy="65.8" r="0.5"/>
</g>
<g>
	<circle class="st1" cx="159.7" cy="2.2" r="0.5"/>
</g>
<g>
	<circle class="st1" cx="159.7" cy="10.1" r="0.5"/>
</g>
<g>
	<circle class="st1" cx="159.7" cy="18.1" r="0.5"/>
</g>
<g>
	<circle class="st1" cx="159.7" cy="26" r="0.5"/>
</g>
<g>
	<circle class="st1" cx="159.7" cy="34" r="0.5"/>
</g>
<g>
	<circle class="st1" cx="159.7" cy="41.9" r="0.5"/>
</g>
<g>
	<circle class="st1" cx="159.7" cy="49.8" r="0.5"/>
</g>
<g>
	<circle class="st1" cx="159.7" cy="57.8" r="0.5"/>
</g>
<g>
	<circle class="st1" cx="159.7" cy="65.7" r="0.5"/>
</g>
</svg>
