<svg xmlns="http://www.w3.org/2000/svg" xmlns:xlink="http://www.w3.org/1999/xlink" preserveAspectRatio="xMidYMid" width="166.969" height="75" viewBox="0 0 166.969 75">
  <defs>
    <style>
      .cls-1 {
        fill: #fff;
        fill-rule: evenodd;
      }
    </style>
  </defs>
  <path d="M165.760,64.810 L165.760,63.356 L160.915,63.356 L160.915,64.810 L159.665,64.810 L159.665,62.203 L160.421,62.203 C161.143,61.123 161.504,59.585 161.504,57.590 L161.504,55.980 L166.139,55.980 L166.139,62.203 L166.969,62.203 L166.969,64.810 L165.760,64.810 ZM164.783,57.133 L162.786,57.133 L162.786,57.684 C162.786,59.664 162.464,61.171 161.819,62.203 L164.783,62.203 L164.783,57.133 ZM157.342,60.260 L153.927,60.260 L153.927,63.356 L152.571,63.356 L152.571,55.980 L153.927,55.980 L153.927,59.107 L157.342,59.107 L157.342,55.980 L158.687,55.980 L158.687,63.356 L157.342,63.356 L157.342,60.260 ZM147.348,63.481 C146.255,63.481 145.339,63.108 144.600,62.364 C143.861,61.619 143.491,60.703 143.491,59.616 C143.491,58.556 143.861,57.665 144.600,56.941 C145.339,56.217 146.255,55.855 147.348,55.855 C148.441,55.855 149.357,56.217 150.097,56.941 C150.836,57.665 151.205,58.556 151.205,59.616 C151.205,60.703 150.836,61.619 150.097,62.364 C149.357,63.108 148.441,63.481 147.348,63.481 ZM149.093,57.813 C148.616,57.326 148.035,57.081 147.348,57.081 C146.662,57.081 146.080,57.326 145.604,57.813 C145.127,58.302 144.889,58.903 144.889,59.616 C144.889,60.364 145.127,60.991 145.604,61.496 C146.080,62.002 146.662,62.255 147.348,62.255 C148.035,62.255 148.616,62.002 149.093,61.496 C149.569,60.991 149.807,60.364 149.807,59.616 C149.807,58.903 149.569,58.302 149.093,57.813 ZM139.267,62.545 L139.267,63.481 L137.911,63.481 L137.911,62.545 C136.902,62.545 136.081,62.255 135.447,61.673 C134.813,61.092 134.495,60.343 134.495,59.429 C134.495,58.529 134.813,57.794 135.447,57.227 C136.081,56.659 136.902,56.374 137.911,56.374 L137.911,55.565 L139.267,55.565 L139.267,56.374 C140.276,56.374 141.097,56.659 141.731,57.227 C142.365,57.794 142.682,58.529 142.682,59.429 C142.682,60.350 142.367,61.100 141.736,61.678 C141.105,62.257 140.283,62.545 139.267,62.545 ZM137.911,57.497 C137.308,57.497 136.819,57.676 136.445,58.032 C136.070,58.389 135.883,58.854 135.883,59.429 C135.883,60.018 136.070,60.498 136.445,60.868 C136.819,61.238 137.308,61.424 137.911,61.424 L137.911,57.497 ZM140.738,58.032 C140.359,57.676 139.869,57.497 139.267,57.497 L139.267,61.424 C139.869,61.424 140.359,61.238 140.738,60.868 C141.116,60.498 141.305,60.018 141.305,59.429 C141.305,58.854 141.116,58.389 140.738,58.032 ZM129.262,59.107 L129.336,57.964 L129.315,57.964 C129.084,58.435 128.877,58.816 128.695,59.107 L125.857,63.356 L124.512,63.356 L124.512,55.980 L125.867,55.980 L125.867,60.240 L125.794,61.382 L125.815,61.382 C126.053,60.904 126.263,60.520 126.445,60.229 L129.262,55.980 L130.607,55.980 L130.607,63.356 L129.262,63.356 L129.262,59.107 ZM127.623,55.647 C127.146,55.647 126.740,55.518 126.403,55.258 C126.067,54.998 125.899,54.650 125.899,54.214 L125.899,54.079 L126.918,54.079 L126.918,54.214 C126.918,54.422 126.988,54.583 127.129,54.697 C127.269,54.811 127.433,54.868 127.623,54.868 C127.812,54.868 127.978,54.811 128.122,54.697 C128.265,54.583 128.337,54.418 128.337,54.203 L128.337,54.079 L129.346,54.079 L129.346,54.214 C129.346,54.650 129.178,54.998 128.842,55.258 C128.506,55.518 128.099,55.647 127.623,55.647 ZM122.463,72.981 L119.846,72.981 L119.215,74.872 L117.828,74.872 L120.445,67.495 L121.874,67.495 L124.491,74.872 L123.104,74.872 L122.463,72.981 ZM121.464,69.915 L121.170,68.773 L121.149,68.773 C121.037,69.258 120.939,69.639 120.855,69.915 L120.182,71.890 L122.126,71.890 L121.464,69.915 ZM121.349,59.107 L121.422,57.964 L121.402,57.964 C121.170,58.435 120.964,58.816 120.781,59.107 L117.944,63.356 L116.598,63.356 L116.598,55.980 L117.954,55.980 L117.954,60.240 L117.881,61.382 L117.901,61.382 C118.140,60.904 118.350,60.520 118.532,60.229 L121.349,55.980 L122.693,55.980 L122.693,63.356 L121.349,63.356 L121.349,59.107 ZM115.379,71.007 L115.379,71.028 L117.618,74.871 L116.083,74.871 L114.265,71.651 L113.299,71.651 L113.299,74.871 L111.943,74.871 L111.943,67.495 L113.299,67.495 L113.299,70.498 L114.265,70.498 L116.020,67.495 L117.492,67.495 L115.379,71.007 ZM113.445,60.260 L110.030,60.260 L110.030,63.356 L108.674,63.356 L108.674,55.980 L110.030,55.980 L110.030,59.107 L113.445,59.107 L113.445,55.980 L114.790,55.980 L114.790,63.356 L113.445,63.356 L113.445,60.260 ZM105.511,59.107 L105.585,57.964 L105.564,57.964 C105.333,58.435 105.126,58.816 104.944,59.107 L102.106,63.356 L100.761,63.356 L100.761,55.980 L102.116,55.980 L102.116,60.240 L102.043,61.382 L102.064,61.382 C102.302,60.904 102.512,60.520 102.694,60.229 L105.511,55.980 L106.857,55.980 L106.857,63.356 L105.511,63.356 L105.511,59.107 ZM103.872,55.647 C103.395,55.647 102.989,55.518 102.652,55.258 C102.316,54.998 102.148,54.650 102.148,54.214 L102.148,54.079 L103.167,54.079 L103.167,54.214 C103.167,54.422 103.237,54.583 103.378,54.697 C103.518,54.811 103.682,54.868 103.872,54.868 C104.061,54.868 104.228,54.811 104.371,54.697 C104.515,54.583 104.586,54.418 104.586,54.203 L104.586,54.079 L105.596,54.079 L105.596,54.214 C105.596,54.650 105.427,54.998 105.091,55.258 C104.755,55.518 104.348,55.647 103.872,55.647 ZM97.598,55.980 L98.954,55.980 L98.954,63.356 L97.598,63.356 L97.598,55.980 ZM95.086,63.356 L90.241,63.356 L90.241,64.810 L88.991,64.810 L88.991,62.203 L89.747,62.203 C90.469,61.123 90.830,59.585 90.830,57.590 L90.830,55.980 L95.464,55.980 L95.464,62.203 L96.294,62.203 L96.294,64.810 L95.086,64.810 L95.086,63.356 ZM94.109,57.133 L92.112,57.133 L92.112,57.684 C92.112,59.664 91.790,61.171 91.145,62.203 L94.109,62.203 L94.109,57.133 ZM91.114,67.495 L92.469,67.495 L92.469,73.718 L94.876,73.718 L94.876,67.495 L96.221,67.495 L96.221,74.871 L87.351,74.871 L87.351,67.495 L88.707,67.495 L88.707,73.718 L91.114,73.718 L91.114,67.495 ZM84.840,63.481 C83.746,63.481 82.831,63.108 82.091,62.364 C81.352,61.619 80.983,60.703 80.983,59.616 C80.983,58.556 81.352,57.665 82.091,56.941 C82.831,56.217 83.746,55.855 84.840,55.855 C85.933,55.855 86.848,56.217 87.588,56.941 C88.327,57.665 88.696,58.556 88.696,59.616 C88.696,60.703 88.327,61.619 87.588,62.364 C86.848,63.108 85.933,63.481 84.840,63.481 ZM86.584,57.813 C86.108,57.326 85.526,57.081 84.840,57.081 C84.153,57.081 83.571,57.326 83.095,57.813 C82.618,58.302 82.380,58.903 82.380,59.616 C82.380,60.364 82.618,60.991 83.095,61.496 C83.571,62.002 84.153,62.255 84.840,62.255 C85.526,62.255 86.108,62.002 86.584,61.496 C87.060,60.991 87.299,60.364 87.299,59.616 C87.299,58.903 87.060,58.302 86.584,57.813 ZM77.725,63.356 L76.369,63.356 L76.369,55.980 L80.657,55.980 L80.657,57.133 L77.725,57.133 L77.725,63.356 ZM77.536,69.895 C77.536,70.608 77.315,71.192 76.873,71.646 C76.432,72.099 75.861,72.326 75.160,72.326 L73.637,72.326 L73.637,74.872 L72.281,74.872 L72.281,67.495 L75.160,67.495 C75.861,67.495 76.432,67.717 76.873,68.160 C77.315,68.603 77.536,69.182 77.536,69.895 ZM75.828,68.986 C75.607,68.761 75.307,68.648 74.929,68.648 L73.637,68.648 L73.637,71.163 L74.908,71.163 C75.300,71.163 75.607,71.048 75.828,70.820 C76.049,70.591 76.159,70.284 76.159,69.895 C76.159,69.514 76.049,69.211 75.828,68.986 ZM73.353,61.466 L70.736,61.466 L70.106,63.356 L68.718,63.356 L71.335,55.980 L72.764,55.980 L75.381,63.356 L73.994,63.356 L73.353,61.466 ZM72.354,58.400 L72.060,57.258 L72.039,57.258 C71.927,57.743 71.829,58.124 71.745,58.400 L71.072,60.374 L73.016,60.374 L72.354,58.400 ZM70.915,71.131 C70.915,72.219 70.545,73.135 69.806,73.879 C69.067,74.624 68.151,74.996 67.058,74.996 C65.965,74.996 65.049,74.624 64.309,73.879 C63.570,73.135 63.201,72.219 63.201,71.131 C63.201,70.071 63.570,69.180 64.309,68.456 C65.049,67.733 65.965,67.371 67.058,67.371 C68.151,67.371 69.067,67.733 69.806,68.456 C70.545,69.180 70.915,70.071 70.915,71.131 ZM68.802,69.329 C68.326,68.841 67.744,68.597 67.058,68.597 C66.371,68.597 65.790,68.841 65.314,69.329 C64.837,69.817 64.599,70.418 64.599,71.131 C64.599,71.880 64.837,72.506 65.314,73.012 C65.790,73.518 66.371,73.770 67.058,73.770 C67.744,73.770 68.326,73.518 68.802,73.012 C69.279,72.506 69.517,71.880 69.517,71.131 C69.517,70.418 69.279,69.817 68.802,69.329 ZM66.375,57.133 L64.410,57.133 L64.410,58.016 C64.410,59.831 64.182,61.179 63.727,62.062 C63.271,62.946 62.532,63.405 61.509,63.439 L61.509,62.213 C62.070,62.137 62.477,61.768 62.733,61.106 C62.989,60.446 63.117,59.408 63.117,57.995 L63.117,55.980 L67.730,55.980 L67.730,63.356 L66.375,63.356 L66.375,57.133 ZM58.640,58.837 C59.334,58.837 59.896,59.042 60.327,59.455 C60.758,59.867 60.973,60.419 60.973,61.112 C60.973,61.777 60.759,62.317 60.332,62.733 C59.904,63.148 59.351,63.356 58.671,63.356 L55.792,63.356 L55.792,55.980 L60.374,55.980 L60.374,57.133 L57.148,57.133 L57.148,58.837 L58.640,58.837 ZM57.148,62.203 L58.430,62.203 C58.801,62.203 59.088,62.105 59.291,61.912 C59.494,61.718 59.596,61.451 59.596,61.112 C59.596,60.772 59.491,60.501 59.281,60.297 C59.071,60.092 58.780,59.990 58.409,59.990 L57.148,59.990 L57.148,62.203 ZM56.817,22.817 C56.567,23.006 55.762,23.452 55.653,23.506 C55.451,23.604 54.706,23.911 54.546,23.968 C54.363,24.033 54.175,24.096 53.979,24.156 C53.763,24.222 51.803,24.674 51.719,24.689 C51.323,24.760 50.436,24.888 50.393,24.894 C49.922,24.955 48.915,25.056 48.878,25.060 C48.322,25.109 47.773,25.151 47.243,25.181 C45.450,25.225 43.908,25.225 42.328,25.160 C41.102,25.132 39.842,25.092 38.552,25.022 C38.552,25.022 38.243,25.915 38.023,27.730 C37.939,29.110 37.789,30.416 37.789,30.416 C40.941,31.105 43.820,31.885 46.189,32.712 C50.018,33.963 54.506,35.832 55.669,39.186 C55.700,39.274 55.728,39.363 55.753,39.453 C55.844,39.770 55.918,40.095 55.946,40.439 C55.943,42.297 55.056,43.896 53.438,45.120 C51.508,46.581 48.676,47.505 45.895,48.215 C44.427,50.718 42.640,53.288 40.725,54.737 C39.241,55.859 37.464,56.276 35.697,55.757 C33.586,55.095 32.188,53.097 31.438,49.697 C31.415,49.596 31.391,49.497 31.369,49.396 C31.296,49.035 31.229,48.659 31.170,48.267 C31.110,47.890 31.061,47.515 31.019,47.134 C30.995,46.920 30.970,46.708 30.949,46.484 C30.885,45.762 30.836,45.042 30.812,44.343 C30.713,42.611 30.749,40.769 30.869,38.806 C30.910,37.739 30.970,36.635 31.047,35.502 C30.054,35.364 29.284,35.244 28.276,35.102 C27.605,35.001 26.948,34.907 26.303,34.820 C26.089,34.801 25.883,34.781 25.687,34.753 C24.834,37.945 24.180,40.768 23.300,43.292 C22.331,46.301 21.255,48.572 20.042,50.173 C20.020,50.203 19.998,50.233 19.976,50.262 C19.773,50.524 19.567,50.765 19.357,50.989 C19.301,51.049 19.247,51.112 19.191,51.171 C18.930,51.434 18.664,51.676 18.391,51.883 C17.664,52.434 16.656,52.957 15.470,52.927 C13.339,53.050 11.789,51.811 10.600,49.916 C10.556,49.846 10.514,49.773 10.471,49.702 C10.383,49.555 10.295,49.411 10.211,49.257 C9.199,47.431 8.467,45.135 7.893,42.858 C5.862,41.677 3.856,40.339 2.372,38.843 C2.260,38.732 2.156,38.618 2.050,38.504 C1.982,38.431 1.912,38.358 1.846,38.284 C0.342,36.598 -0.447,34.728 0.204,32.639 C0.370,32.230 0.595,31.859 0.840,31.500 C1.208,30.958 3.824,28.517 9.001,28.041 C9.136,28.029 9.375,28.038 9.513,28.026 C10.256,27.963 10.995,27.914 11.708,27.887 C14.367,27.729 17.262,27.743 20.554,27.930 C22.089,28.017 24.583,28.322 26.676,28.562 C27.494,28.656 28.318,28.760 29.148,28.876 C29.978,28.992 30.801,29.116 31.617,29.248 C31.635,29.117 31.664,28.973 31.688,28.838 C31.774,28.143 31.863,27.447 31.963,26.746 C32.071,25.975 32.168,25.188 32.274,24.414 L32.328,24.022 C32.672,21.869 33.053,20.170 33.474,18.203 C33.452,18.201 33.432,18.198 33.418,18.198 C33.785,16.584 34.181,15.015 34.579,13.534 C34.927,12.203 35.287,10.946 35.651,9.776 C35.879,9.129 36.121,8.467 36.380,7.806 C36.445,7.640 36.511,7.467 36.577,7.305 C37.880,4.091 39.618,1.046 42.230,0.214 C42.241,0.210 42.253,0.207 42.265,0.204 C42.618,0.094 42.981,0.013 43.367,-0.011 C44.993,-0.051 46.296,0.642 47.368,1.775 C47.413,1.821 47.458,1.869 47.502,1.917 C47.609,2.036 47.714,2.156 47.816,2.284 C47.962,2.461 48.102,2.647 48.238,2.840 L48.239,2.840 C49.600,4.765 50.528,7.428 51.192,10.104 C53.575,11.479 55.874,13.104 57.330,14.921 C57.331,14.923 57.331,14.924 57.332,14.924 C57.479,15.108 57.618,15.293 57.747,15.480 C57.836,15.606 57.917,15.734 57.997,15.862 C58.036,15.926 58.074,15.989 58.110,16.053 C58.878,17.371 59.155,18.777 58.634,20.277 C58.336,21.429 57.709,22.141 56.817,22.817 ZM8.441,34.406 C7.927,34.499 7.484,34.602 7.115,34.714 C7.681,35.426 9.120,36.487 11.654,37.946 C11.761,38.007 12.371,38.391 12.805,38.923 C13.064,39.240 13.238,39.620 13.392,40.000 C13.541,40.368 13.677,40.756 13.777,41.143 C13.978,41.923 14.193,42.698 14.433,43.466 C14.468,43.578 14.503,43.689 14.539,43.800 C14.857,44.736 15.162,45.389 15.489,45.843 C15.657,45.565 15.832,45.271 16.013,44.952 C16.927,43.021 18.227,39.539 19.425,34.134 C14.185,33.825 10.591,34.079 8.441,34.406 ZM36.979,41.327 C37.005,44.472 37.202,46.798 37.487,48.301 C37.550,48.630 37.612,48.904 37.678,49.143 C37.667,49.102 37.981,48.800 38.019,48.755 C38.152,48.594 38.281,48.430 38.406,48.264 C38.731,47.832 39.036,47.385 39.333,46.935 C39.742,46.311 40.136,45.678 40.523,45.041 C40.744,44.677 40.942,44.297 41.219,43.975 C41.473,43.679 41.758,43.410 42.066,43.172 C42.395,42.919 42.752,42.703 43.128,42.527 C43.510,42.350 43.929,42.287 44.336,42.180 C45.080,41.983 45.821,41.771 46.555,41.537 C47.351,41.283 48.151,41.010 48.907,40.648 C47.206,39.613 43.495,38.042 37.126,36.619 C37.026,38.331 36.979,39.906 36.979,41.327 ZM51.602,17.918 C51.325,17.689 46.231,14.252 46.097,14.095 C45.386,13.264 43.746,7.436 43.697,7.323 C43.682,7.289 43.556,7.069 43.571,7.045 C42.532,8.758 40.953,12.499 39.675,18.817 C46.088,19.322 50.109,18.826 52.037,18.295 C51.915,18.189 51.766,18.058 51.602,17.918 ZM26.509,26.310 C24.309,26.514 22.363,24.917 22.163,22.742 C21.963,20.566 23.585,18.636 25.786,18.431 C27.986,18.226 29.933,19.824 30.132,22.000 C30.332,24.175 28.711,26.105 26.509,26.310 ZM61.835,74.871 L60.479,74.871 L60.479,68.649 L57.148,68.649 L57.148,74.871 L55.792,74.871 L55.792,67.495 L61.835,67.495 L61.835,74.871 ZM82.128,67.371 C83.221,67.371 84.137,67.733 84.877,68.456 C85.616,69.180 85.985,70.071 85.985,71.131 C85.985,72.219 85.616,73.135 84.877,73.879 C84.137,74.624 83.221,74.996 82.128,74.996 C81.035,74.996 80.119,74.624 79.380,73.879 C78.641,73.135 78.271,72.219 78.271,71.131 C78.271,70.071 78.641,69.180 79.380,68.456 C80.119,67.733 81.035,67.371 82.128,67.371 ZM80.384,73.012 C80.860,73.518 81.442,73.770 82.128,73.770 C82.814,73.770 83.396,73.518 83.873,73.012 C84.349,72.506 84.587,71.880 84.587,71.131 C84.587,70.418 84.349,69.817 83.873,69.329 C83.396,68.841 82.814,68.597 82.128,68.597 C81.442,68.597 80.860,68.841 80.384,69.329 C79.907,69.817 79.669,70.418 79.669,71.131 C79.669,71.880 79.907,72.506 80.384,73.012 ZM102.506,68.649 L99.395,68.649 L99.395,70.581 L101.907,70.581 L101.907,71.734 L99.395,71.734 L99.395,73.718 L102.674,73.718 L102.674,74.871 L98.039,74.871 L98.039,67.495 L102.506,67.495 L102.506,68.649 ZM105.374,70.622 L108.790,70.622 L108.790,67.495 L110.135,67.495 L110.135,74.871 L108.790,74.871 L108.790,71.775 L105.374,71.775 L105.374,74.871 L104.019,74.871 L104.019,67.495 L105.374,67.495 L105.374,70.622 Z" class="cls-1"/>
</svg>
