<svg xmlns="http://www.w3.org/2000/svg" xmlns:xlink="http://www.w3.org/1999/xlink" preserveAspectRatio="xMidYMid" width="238" height="38.03" viewBox="0 0 238 38.03">
  <defs>
    <style>
      .cls-1 {
        fill: #fff;
        fill-rule: evenodd;
      }
    </style>
  </defs>
  <path d="M231.977,22.553 L230.534,18.095 L224.604,18.095 L223.225,22.553 L217.204,22.553 L210.648,22.553 L204.908,14.609 L204.720,14.860 L204.720,22.553 L199.073,22.553 L199.073,0.319 L204.720,0.319 L204.720,8.549 L210.742,0.319 L217.738,0.319 L208.954,11.249 L217.360,22.106 L224.950,0.320 L230.063,0.320 L238.000,22.553 L231.977,22.553 ZM227.647,6.601 L227.491,6.601 L225.860,13.100 L229.184,13.100 L227.647,6.601 ZM196.205,34.104 L193.178,34.104 L192.426,36.135 L191.041,36.135 L193.994,28.472 L195.422,28.472 L198.374,36.135 L196.936,36.135 L196.205,34.104 ZM194.712,29.869 L193.521,33.094 L195.850,33.094 L194.712,29.869 ZM189.295,22.553 L180.169,22.553 L180.169,0.320 L185.812,0.320 L185.812,7.888 L189.139,7.888 C195.162,7.888 197.136,10.683 197.136,14.921 C197.136,19.288 194.221,22.553 189.295,22.553 ZM189.139,12.347 L185.812,12.347 L185.812,17.622 L189.139,17.622 C191.053,17.622 191.617,16.273 191.617,14.861 C191.617,13.226 190.674,12.347 189.139,12.347 ZM182.484,33.761 C182.484,35.275 181.538,36.135 179.874,36.135 L176.492,36.135 L176.492,28.483 L177.835,28.483 L177.835,31.407 L179.874,31.407 C181.550,31.407 182.484,32.255 182.484,33.761 ZM179.799,32.502 L177.835,32.502 L177.835,35.039 L179.821,35.039 C180.701,35.039 181.142,34.620 181.142,33.791 C181.142,32.987 180.638,32.502 179.799,32.502 ZM173.237,15.613 L178.130,17.874 C176.280,21.487 172.923,22.867 170.132,22.867 C165.770,22.867 161.380,20.323 161.380,15.267 L161.380,7.606 C161.380,2.581 165.770,0.007 170.226,0.007 C172.956,0.007 176.249,1.168 178.036,5.124 L173.457,6.978 C171.951,4.213 166.996,4.843 166.996,7.606 L166.996,15.267 C166.996,17.938 172.015,18.691 173.237,15.613 ZM157.682,36.135 L153.783,36.135 L153.783,28.483 L157.274,28.483 C158.927,28.483 159.754,29.268 159.754,30.407 C159.754,31.149 159.303,31.761 158.658,32.019 C159.528,32.233 160.097,32.889 160.097,33.879 C160.097,35.233 159.109,36.135 157.682,36.135 ZM156.962,29.567 L155.094,29.567 L155.094,31.675 L156.919,31.675 C157.917,31.675 158.422,31.395 158.422,30.622 C158.422,29.665 157.724,29.567 156.962,29.567 ZM157.081,32.643 L155.094,32.643 L155.094,35.039 L157.102,35.039 C158.003,35.039 158.755,34.824 158.755,33.846 C158.755,32.794 157.949,32.643 157.081,32.643 ZM151.658,22.553 L142.530,22.553 L142.530,0.320 L148.174,0.320 L148.174,7.888 L151.501,7.888 C157.524,7.888 159.498,10.683 159.498,14.921 C159.498,19.288 156.581,22.553 151.658,22.553 ZM151.501,12.347 L148.174,12.347 L148.174,17.622 L151.501,17.622 C153.413,17.622 153.979,16.273 153.979,14.861 C153.979,13.226 153.035,12.347 151.501,12.347 ZM143.509,28.483 L148.491,28.483 L148.491,34.975 L149.350,34.975 L149.350,38.039 L148.051,38.039 L148.051,36.135 L143.069,36.135 L143.069,38.039 L141.769,38.039 L141.769,34.975 L142.510,34.975 C143.091,33.944 143.509,31.772 143.509,29.665 L143.509,28.483 ZM147.149,34.975 L147.149,29.643 L144.819,29.643 L144.819,30.106 C144.819,32.009 144.422,34.018 143.950,34.975 L147.149,34.975 ZM136.863,36.318 C136.518,36.318 136.174,36.223 135.961,36.125 L135.961,34.996 C136.099,35.083 136.347,35.190 136.819,35.190 C137.312,35.190 137.582,34.749 137.979,34.006 L137.990,33.987 L135.349,28.483 L136.831,28.483 L138.677,32.588 L140.567,28.483 L142.016,28.483 L139.042,34.577 C138.397,35.889 137.710,36.318 136.863,36.318 ZM133.690,5.661 L129.581,5.661 L129.204,12.411 C128.923,17.560 126.633,23.275 119.386,22.553 L119.386,17.308 C123.968,17.560 123.622,12.691 123.968,7.764 L124.501,0.319 L139.337,0.319 L139.337,22.553 L133.690,22.553 L133.690,5.661 ZM111.432,18.095 L105.502,18.095 L104.123,22.553 L98.099,22.553 L105.850,0.320 L110.964,0.320 L118.897,22.553 L112.874,22.553 L111.432,18.095 ZM108.547,6.601 L108.389,6.601 L106.757,13.100 L110.084,13.100 L108.547,6.601 ZM97.979,16.806 C97.412,20.388 94.998,22.553 90.074,22.553 L81.009,22.553 L81.009,0.320 L89.917,0.320 C94.151,0.320 97.259,2.865 97.131,7.103 C97.100,8.109 96.442,9.898 94.843,10.715 C97.886,12.254 98.262,15.110 97.979,16.806 ZM89.917,5.063 L86.655,5.063 L86.655,9.018 L89.917,9.018 C92.647,9.018 92.740,5.063 89.917,5.063 ZM89.917,13.070 L86.655,13.070 L86.655,17.622 L89.917,17.622 C93.305,17.622 93.242,13.070 89.917,13.070 ZM81.739,36.135 L80.396,36.135 L80.396,30.268 L77.112,36.135 L75.554,36.135 L75.554,28.483 L76.897,28.483 L76.897,34.350 L80.182,28.483 L81.739,28.483 L81.739,36.135 ZM68.840,22.867 C64.228,22.867 59.617,20.323 59.617,15.238 L59.617,7.637 C59.617,2.518 64.198,0.007 68.810,0.007 C73.420,0.007 78.030,2.550 78.030,7.637 L78.030,15.238 C78.030,20.323 73.451,22.867 68.840,22.867 ZM72.416,7.637 C72.416,5.910 70.564,5.124 68.746,5.124 C66.989,5.124 65.232,6.005 65.232,7.637 L65.232,15.238 C65.232,16.870 67.051,17.653 68.840,17.653 C70.628,17.653 72.416,16.839 72.416,15.238 L72.416,7.637 ZM60.425,22.553 L53.369,22.553 L47.628,14.609 L47.438,14.860 L47.438,22.553 L41.792,22.553 L41.792,0.319 L47.438,0.319 L47.438,8.549 L53.461,0.319 L60.456,0.319 L51.673,11.249 L60.425,22.553 ZM33.583,36.245 L1.733,36.245 C0.775,36.245 -0.003,35.469 -0.003,34.516 L-0.003,2.378 C-0.003,1.421 0.775,0.645 1.733,0.645 L33.583,0.645 C34.540,0.645 35.319,1.421 35.319,2.378 L35.319,34.516 C35.319,35.469 34.540,36.245 33.583,36.245 ZM21.458,14.661 L13.857,14.661 L13.857,7.093 L6.251,7.093 L6.251,29.799 L13.857,29.799 L13.857,22.231 L21.458,22.231 L21.458,14.661 ZM29.064,7.092 L21.460,7.092 L21.460,14.662 L29.064,14.662 L29.064,7.092 ZM29.064,22.231 L21.460,22.231 L21.460,29.799 L29.064,29.799 L29.064,22.231 ZM48.047,36.135 L46.704,36.135 L46.704,29.643 L43.205,29.643 L43.205,36.135 L41.862,36.135 L41.862,28.483 L48.047,28.483 L48.047,36.135 ZM55.905,30.815 C55.905,32.266 54.972,33.190 53.427,33.190 L51.268,33.190 L51.268,36.135 L49.925,36.135 L49.925,28.483 L53.243,28.483 C54.822,28.483 55.905,29.213 55.905,30.815 ZM51.268,29.600 L51.268,32.106 L53.136,32.106 C54.006,32.106 54.596,31.750 54.596,30.847 C54.596,29.859 53.866,29.600 53.018,29.600 L51.268,29.600 ZM60.630,28.300 C62.787,28.300 64.281,29.933 64.281,32.310 C64.281,34.695 62.787,36.319 60.609,36.319 C58.418,36.319 56.936,34.695 56.936,32.310 C56.936,30.062 58.289,28.300 60.630,28.300 ZM60.630,35.189 C62.024,35.189 62.928,34.050 62.928,32.299 C62.928,30.547 62.024,29.429 60.609,29.429 C59.202,29.429 58.289,30.556 58.289,32.287 C58.289,34.072 59.192,35.189 60.630,35.189 ZM69.777,34.469 L71.840,28.483 L73.708,28.483 L73.708,36.135 L72.430,36.135 L72.430,30.233 L70.304,36.135 L69.209,36.135 L67.030,30.233 L67.030,36.135 L65.763,36.135 L65.763,28.483 L67.642,28.483 L69.777,34.469 ZM86.881,28.311 C88.407,28.311 89.825,29.149 90.081,30.922 L88.749,30.922 C88.567,29.999 87.849,29.450 86.860,29.450 C85.249,29.450 84.594,30.900 84.594,32.309 C84.594,33.728 85.217,35.179 86.849,35.179 C88.096,35.179 88.665,34.351 88.803,33.223 L90.146,33.223 C90.006,35.082 88.728,36.318 86.818,36.318 C84.659,36.318 83.241,34.727 83.241,32.309 C83.241,30.139 84.562,28.311 86.881,28.311 ZM91.230,35.190 C91.778,35.190 92.197,34.868 92.262,32.922 L92.412,28.483 L97.404,28.483 L97.404,36.135 L96.063,36.135 L96.063,29.643 L93.701,29.643 L93.560,33.288 C93.475,35.427 92.605,36.275 91.510,36.275 C91.208,36.275 90.897,36.200 90.705,36.135 L90.705,35.104 C90.865,35.168 91.124,35.190 91.230,35.190 ZM102.548,28.300 C104.706,28.300 106.197,29.933 106.197,32.310 C106.197,34.695 104.706,36.319 102.526,36.319 C100.335,36.319 98.854,34.695 98.854,32.310 C98.854,30.062 100.207,28.300 102.548,28.300 ZM102.548,35.189 C103.943,35.189 104.844,34.050 104.844,32.299 C104.844,30.547 103.943,29.429 102.526,29.429 C101.118,29.429 100.207,30.556 100.207,32.287 C100.207,34.072 101.108,35.189 102.548,35.189 ZM113.638,30.407 C113.638,31.149 113.188,31.761 112.543,32.019 C113.413,32.233 113.983,32.889 113.983,33.879 C113.983,35.233 112.994,36.135 111.566,36.135 L107.669,36.135 L107.669,28.483 L111.158,28.483 C112.812,28.483 113.638,29.268 113.638,30.407 ZM108.979,35.039 L110.986,35.039 C111.888,35.039 112.640,34.824 112.640,33.846 C112.640,32.794 111.835,32.643 110.965,32.643 L108.979,32.643 L108.979,35.039 ZM108.979,29.567 L108.979,31.675 L110.804,31.675 C111.803,31.675 112.306,31.395 112.306,30.622 C112.306,29.665 111.609,29.567 110.847,29.567 L108.979,29.567 ZM118.804,28.300 C120.961,28.300 122.453,29.933 122.453,32.310 C122.453,34.695 120.961,36.319 118.782,36.319 C116.590,36.319 115.110,34.695 115.110,32.310 C115.110,30.062 116.462,28.300 118.804,28.300 ZM118.804,35.189 C120.199,35.189 121.101,34.050 121.101,32.299 C121.101,30.547 120.199,29.429 118.782,29.429 C117.375,29.429 116.462,30.556 116.462,32.287 C116.462,34.072 117.364,35.189 118.804,35.189 ZM126.790,33.750 L123.644,33.750 L123.644,32.610 L126.790,32.610 L126.790,33.750 ZM134.017,29.643 L129.733,29.643 L129.733,31.407 L132.020,31.407 C133.696,31.407 134.628,32.255 134.628,33.761 C134.628,35.275 133.684,36.135 132.020,36.135 L128.390,36.135 L128.390,28.483 L134.017,28.483 L134.017,29.643 ZM129.733,35.039 L131.965,35.039 C132.847,35.039 133.287,34.620 133.287,33.791 C133.287,32.987 132.782,32.502 131.945,32.502 L129.733,32.502 L129.733,35.039 ZM151.906,36.134 L150.551,36.134 L150.551,28.482 L151.906,28.482 L151.906,36.134 ZM167.120,29.611 L162.943,29.611 L162.943,31.643 L166.818,31.643 L166.818,32.728 L162.943,32.728 L162.943,34.985 L167.183,34.985 L167.183,36.134 L161.612,36.134 L161.612,28.483 L167.120,28.483 L167.120,29.611 ZM168.461,35.190 C169.009,35.190 169.428,34.868 169.492,32.922 L169.642,28.483 L174.636,28.483 L174.636,36.135 L173.293,36.135 L173.293,29.643 L170.932,29.643 L170.791,33.288 C170.705,35.427 169.835,36.275 168.740,36.275 C168.439,36.275 168.128,36.200 167.936,36.135 L167.936,35.104 C168.095,35.168 168.354,35.190 168.461,35.190 ZM185.232,31.524 L188.732,31.524 L188.732,28.483 L190.075,28.483 L190.075,36.135 L188.732,36.135 L188.732,32.696 L185.232,32.696 L185.232,36.135 L183.890,36.135 L183.890,28.483 L185.232,28.483 L185.232,31.524 ZM207.812,29.643 L203.969,29.643 L203.969,36.135 L202.626,36.135 L202.626,28.483 L207.812,28.483 L207.812,29.643 ZM214.930,30.815 C214.930,32.266 213.997,33.190 212.450,33.190 L210.293,33.190 L210.293,36.135 L208.950,36.135 L208.950,28.483 L212.268,28.483 C213.845,28.483 214.930,29.213 214.930,30.815 ZM210.293,29.600 L210.293,32.106 L212.161,32.106 C213.031,32.106 213.621,31.750 213.621,30.847 C213.621,29.859 212.891,29.600 212.042,29.600 L210.293,29.600 ZM216.981,28.483 L218.829,32.588 L220.717,28.483 L222.167,28.483 L219.193,34.577 C218.549,35.889 217.861,36.318 217.013,36.318 C216.670,36.318 216.326,36.223 216.112,36.125 L216.112,34.996 C216.251,35.083 216.498,35.190 216.969,35.190 C217.464,35.190 217.733,34.749 218.130,34.006 L218.140,33.987 L215.500,28.483 L216.981,28.483 ZM229.350,36.135 L228.007,36.135 L228.007,29.643 L224.508,29.643 L224.508,36.135 L223.165,36.135 L223.165,28.483 L229.350,28.483 L229.350,36.135 ZM234.697,28.472 L237.650,36.135 L236.211,36.135 L235.480,34.104 L232.452,34.104 L231.701,36.135 L230.317,36.135 L233.269,28.472 L234.697,28.472 ZM235.127,33.094 L233.989,29.869 L232.796,33.094 L235.127,33.094 Z" class="cls-1"/>
</svg>
