<svg xmlns="http://www.w3.org/2000/svg" xmlns:xlink="http://www.w3.org/1999/xlink" preserveAspectRatio="xMidYMid" width="44" height="45" viewBox="0 0 44 45">
  <defs>
    <style>
      .cls-1 {
        fill: #ffe500;
        fill-rule: evenodd;
      }
    </style>
  </defs>
  <path d="M39.255,44.999 L-0.000,5.065 L-0.000,-0.001 L3.204,-0.001 L44.000,40.701 L44.000,44.999 L39.255,44.999 ZM15.996,-0.001 L44.000,28.008 L44.000,36.272 L7.669,-0.001 L15.996,-0.001 ZM28.796,-0.001 L44.000,15.303 L44.000,23.577 L20.460,-0.001 L28.796,-0.001 ZM41.584,-0.001 L44.000,2.608 L44.000,10.875 L33.256,-0.001 L41.584,-0.001 ZM26.466,44.999 L-0.000,17.767 L-0.000,9.492 L34.801,44.999 L26.466,44.999 ZM13.677,44.999 L-0.000,30.455 L-0.000,22.188 L22.005,44.999 L13.677,44.999 ZM0.883,44.999 L-0.000,43.156 L-0.000,34.886 L9.211,44.999 L0.883,44.999 Z" class="cls-1"/>
</svg>
