<svg xmlns="http://www.w3.org/2000/svg" xmlns:xlink="http://www.w3.org/1999/xlink" preserveAspectRatio="xMidYMid" width="154" height="47" viewBox="0 0 154 47">
  <defs>
    <style>
      .cls-1 {
        fill: #fff;
        fill-rule: evenodd;
      }
    </style>
  </defs>
  <path d="M153.611,24.660 L151.555,24.660 C151.146,24.660 151.005,24.535 150.930,24.245 L150.434,22.294 L150.374,22.297 L146.141,22.297 L145.646,24.245 C145.571,24.535 145.431,24.660 145.021,24.660 L142.965,24.660 C142.684,24.660 142.508,24.369 142.607,24.015 L146.593,9.804 C146.692,9.449 146.904,9.286 147.272,9.286 L147.405,9.286 L149.171,9.286 L149.303,9.286 C149.673,9.286 149.884,9.449 149.983,9.804 L153.968,24.015 C154.068,24.369 153.892,24.660 153.611,24.660 ZM148.467,14.558 L148.288,13.441 L148.109,14.558 L146.929,19.200 L149.647,19.200 L148.467,14.558 ZM139.851,12.385 L137.461,12.385 L137.461,24.178 C137.461,24.390 137.347,24.659 136.978,24.659 L134.772,24.659 C134.490,24.659 134.288,24.488 134.288,24.178 L134.288,12.385 L131.902,12.385 C131.592,12.385 131.419,12.184 131.419,11.903 L131.419,9.769 C131.419,9.401 131.691,9.287 131.902,9.287 L139.851,9.287 C140.064,9.287 140.334,9.401 140.334,9.769 L140.334,11.903 C140.334,12.184 140.162,12.385 139.851,12.385 ZM127.317,24.662 L121.537,24.662 L121.501,24.660 L119.769,24.660 C119.469,24.660 119.313,24.391 119.313,24.152 L119.313,9.817 C119.313,9.483 119.497,9.286 119.844,9.286 L121.537,9.286 L121.747,9.286 L126.809,9.286 C127.179,9.286 127.332,9.474 127.332,9.843 L127.332,11.902 C127.332,12.271 127.218,12.384 126.849,12.384 L122.418,12.384 L122.418,15.605 L123.264,15.605 L124.607,15.605 L125.754,15.605 C126.123,15.605 126.281,15.773 126.281,16.141 L126.281,18.184 C126.281,18.553 126.142,18.702 125.774,18.702 L122.418,18.702 L122.418,21.564 L127.405,21.564 C127.749,21.564 127.840,21.663 127.840,21.992 L127.840,24.114 C127.840,24.482 127.686,24.662 127.317,24.662 ZM113.785,24.659 L111.646,24.659 C111.364,24.659 111.163,24.488 111.163,24.177 L111.163,18.522 L107.991,18.522 L107.991,24.177 C107.991,24.488 107.789,24.659 107.508,24.659 L105.369,24.659 C105.001,24.659 104.886,24.390 104.886,24.177 L104.886,9.769 C104.886,9.557 105.001,9.287 105.369,9.287 L107.508,9.287 C107.789,9.287 107.991,9.459 107.991,9.769 L107.991,15.424 L111.163,15.424 L111.163,9.769 C111.163,9.459 111.364,9.287 111.646,9.287 L113.785,9.287 C114.153,9.287 114.268,9.557 114.268,9.769 L114.268,24.177 C114.268,24.390 114.153,24.659 113.785,24.659 ZM107.945,41.748 C107.945,45.127 105.911,46.999 102.837,46.999 C99.764,46.999 97.714,45.245 97.714,41.748 C97.714,38.797 97.746,38.512 97.746,36.295 C97.746,32.915 99.921,31.322 102.837,31.322 C105.754,31.322 107.961,33.138 107.961,36.539 C107.961,39.380 107.945,39.392 107.945,41.748 ZM102.837,34.215 C101.713,34.215 100.874,34.898 100.874,36.201 C100.874,37.056 100.862,40.885 100.862,42.023 C100.862,43.372 101.652,44.116 102.837,44.116 C104.023,44.116 104.808,43.326 104.808,42.023 C104.808,41.114 104.814,37.392 104.814,36.296 C104.814,34.985 103.963,34.215 102.837,34.215 ZM100.381,24.660 L98.326,24.660 C97.915,24.660 97.775,24.535 97.700,24.245 L97.204,22.294 L97.144,22.297 L92.911,22.297 L92.417,24.245 C92.341,24.535 92.201,24.660 91.791,24.660 L89.735,24.660 C89.454,24.660 89.279,24.369 89.378,24.015 L93.363,9.804 C93.463,9.449 93.674,9.286 94.043,9.286 L94.175,9.286 L95.941,9.286 L96.074,9.286 C96.443,9.286 96.654,9.449 96.753,9.804 L100.739,24.015 C100.838,24.369 100.662,24.660 100.381,24.660 ZM95.237,14.558 L95.059,13.441 L94.879,14.558 L93.700,19.200 L96.417,19.200 L95.237,14.558 ZM90.193,31.955 C90.193,31.645 90.394,31.473 90.676,31.473 L92.814,31.473 C93.183,31.473 93.298,31.742 93.298,31.955 L93.298,46.363 C93.298,46.576 93.183,46.846 92.814,46.846 L90.676,46.846 C90.394,46.846 90.193,46.674 90.193,46.363 L90.193,40.708 L87.020,40.708 L87.020,46.363 C87.020,46.674 86.819,46.846 86.537,46.846 L84.400,46.846 C84.030,46.846 83.916,46.576 83.916,46.363 L83.916,31.955 C83.916,31.742 84.030,31.473 84.400,31.473 L86.537,31.473 C86.819,31.473 87.020,31.645 87.020,31.955 L87.020,37.610 L90.193,37.610 L90.193,31.955 ZM84.999,24.654 L82.860,24.654 C82.579,24.654 82.377,24.482 82.377,24.172 L82.377,12.121 L81.518,12.121 C80.899,12.121 80.199,12.100 80.199,13.100 L80.199,17.635 C80.199,22.384 79.406,23.179 78.603,23.953 C77.878,24.652 77.041,24.849 76.478,24.965 C76.132,25.036 75.953,24.843 75.858,24.613 C75.754,24.361 75.432,23.626 75.344,23.395 C75.209,23.038 75.272,22.830 75.543,22.674 C75.885,22.479 76.427,22.279 76.769,21.569 C77.285,20.499 77.161,18.032 77.161,17.228 L77.161,12.667 C77.161,10.344 78.333,9.282 80.508,9.282 L82.377,9.282 L83.048,9.282 L83.048,9.282 L84.894,9.282 C85.263,9.282 85.482,9.397 85.482,9.879 L85.482,24.172 C85.482,24.385 85.367,24.654 84.999,24.654 ZM71.537,46.847 L69.482,46.847 C69.111,46.847 68.946,46.737 68.870,46.424 C68.870,46.424 68.267,43.663 68.034,42.603 C67.715,41.152 66.458,40.649 65.693,40.649 L64.935,40.649 L64.935,46.360 C64.935,46.670 64.734,46.843 64.452,46.843 L62.315,46.843 C61.945,46.843 61.831,46.573 61.831,46.360 L61.831,31.953 C61.831,31.740 61.945,31.470 62.315,31.470 L64.452,31.470 C64.734,31.470 64.935,31.643 64.935,31.953 L64.935,37.305 L65.851,37.305 C66.616,37.305 67.149,36.834 67.436,35.780 C67.673,34.906 68.524,31.870 68.524,31.870 C68.614,31.539 68.786,31.468 69.073,31.468 L71.115,31.468 C71.486,31.468 71.604,31.732 71.509,32.067 C71.509,32.067 70.750,34.519 70.410,35.751 C69.992,37.264 69.390,38.418 67.776,38.896 L67.712,38.913 C69.008,39.191 70.339,40.088 70.892,42.301 C71.197,43.522 71.908,46.262 71.908,46.262 C71.995,46.637 71.806,46.847 71.537,46.847 ZM70.514,24.659 L68.377,24.659 C68.094,24.659 67.893,24.488 67.893,24.178 L67.893,12.385 L64.935,12.385 L64.935,24.178 C64.935,24.488 64.734,24.659 64.452,24.659 L62.314,24.659 C61.945,24.659 61.831,24.390 61.831,24.178 L61.831,9.884 C61.831,9.402 62.050,9.287 62.419,9.287 L64.264,9.287 L64.265,9.287 L68.564,9.287 L70.410,9.287 C70.780,9.287 70.997,9.402 70.997,9.884 L70.997,24.178 C70.997,24.390 70.883,24.659 70.514,24.659 ZM38.896,11.964 C35.922,9.854 35.225,5.739 37.339,2.772 C39.453,-0.195 43.577,-0.891 46.551,1.219 C49.525,3.328 50.221,7.443 48.108,10.411 C45.994,13.377 41.869,14.073 38.896,11.964 ZM18.828,46.872 C8.402,46.840 -0.023,38.382 0.009,27.980 C0.041,17.578 8.518,9.172 18.943,9.203 C29.368,9.235 37.793,17.693 37.762,28.095 C37.729,38.497 29.253,46.904 18.828,46.872 ZM76.353,31.473 L78.491,31.473 C78.773,31.473 78.974,31.645 78.974,31.955 L78.974,46.363 C78.974,46.674 78.773,46.846 78.491,46.846 L76.353,46.846 C75.984,46.846 75.869,46.576 75.869,46.363 L75.869,31.955 C75.869,31.742 75.984,31.473 76.353,31.473 Z" class="cls-1"/>
</svg>
