<svg xmlns="http://www.w3.org/2000/svg" xmlns:xlink="http://www.w3.org/1999/xlink" preserveAspectRatio="xMidYMid" width="173" height="24" viewBox="0 0 173 24">
  <defs>
    <style>
      .cls-1 {
        fill: #7a7a7a;
        fill-rule: evenodd;
      }
    </style>
  </defs>
  <path d="M169.633,23.455 L157.757,5.079 L157.757,23.455 L154.898,23.455 L154.898,0.541 L158.170,0.541 L170.109,19.141 L170.109,0.541 L173.000,0.541 L173.000,23.455 L169.633,23.455 ZM135.629,0.541 L151.285,0.541 L151.285,3.180 L138.614,3.180 L138.614,10.356 L150.459,10.356 L150.459,12.898 L138.614,12.898 L138.614,20.815 L151.443,20.815 L151.443,23.455 L135.629,23.455 L135.629,0.541 ZM127.764,4.339 L120.682,23.455 L118.078,23.455 L110.870,4.339 L110.870,23.455 L108.012,23.455 L108.012,0.541 L112.140,0.541 L119.413,19.947 L126.430,0.541 L130.591,0.541 L130.591,23.455 L127.764,23.455 L127.764,4.339 ZM97.857,23.455 L94.872,23.455 L94.872,3.180 L87.282,3.180 L87.282,0.541 L105.446,0.541 L105.446,3.180 L97.857,3.180 L97.857,23.455 ZM86.082,17.017 C86.082,22.103 81.605,23.969 77.286,23.969 C71.888,23.969 67.919,21.427 67.919,15.892 L70.808,15.892 C70.935,20.043 73.920,21.491 77.540,21.491 C80.175,21.491 83.161,20.558 83.161,17.308 C83.161,14.347 80.303,13.768 76.588,12.898 C72.936,12.062 68.712,11.450 68.712,6.624 C68.712,1.925 72.840,0.090 76.905,0.090 C81.700,0.090 85.003,2.343 85.194,7.266 L82.303,7.266 C81.954,3.953 80.017,2.600 76.682,2.600 C73.444,2.600 71.570,3.985 71.570,6.398 C71.570,8.972 74.205,9.520 77.698,10.260 C81.383,11.032 86.082,12.191 86.082,17.017 ZM54.620,24.001 C47.380,24.001 43.793,18.402 43.793,11.741 C43.793,4.596 48.015,-0.006 54.588,-0.006 C61.606,-0.006 65.449,4.983 65.449,11.804 C65.449,18.531 61.797,24.001 54.620,24.001 ZM54.588,2.633 C49.254,2.633 46.777,7.074 46.777,11.965 C46.777,17.693 49.857,21.394 54.652,21.394 C59.384,21.394 62.464,17.661 62.464,11.965 C62.464,6.301 59.384,2.633 54.588,2.633 ZM33.732,14.057 L27.603,14.057 L27.603,23.455 L24.619,23.455 L24.619,0.541 L33.923,0.541 C38.241,0.541 41.449,2.376 41.449,7.139 C41.449,12.320 38.146,14.057 33.732,14.057 ZM32.938,3.147 L27.603,3.147 L27.603,11.515 L33.352,11.515 C36.241,11.515 38.464,10.710 38.464,7.331 C38.464,3.662 35.892,3.147 32.938,3.147 ZM-0.001,3.302 L-0.001,0.722 L1.598,0.722 L21.954,21.455 L21.954,23.645 L19.586,23.645 L-0.001,3.302 ZM7.981,0.722 L21.954,14.989 L21.954,19.199 L3.826,0.722 L7.981,0.722 ZM14.367,0.722 L21.954,8.518 L21.954,12.732 L10.208,0.722 L14.367,0.722 ZM20.748,0.722 L21.954,2.051 L21.954,6.262 L16.593,0.722 L20.748,0.722 ZM13.205,23.645 L-0.001,9.773 L-0.001,5.557 L17.363,23.645 L13.205,23.645 ZM6.824,23.645 L-0.001,16.236 L-0.001,12.025 L10.979,23.645 L6.824,23.645 ZM0.440,23.645 L-0.001,22.706 L-0.001,18.493 L4.596,23.645 L0.440,23.645 Z" class="cls-1"/>
</svg>
