<svg xmlns="http://www.w3.org/2000/svg" xmlns:xlink="http://www.w3.org/1999/xlink" preserveAspectRatio="xMidYMid" width="158" height="68" viewBox="0 0 158 68">
  <defs>
    <style>
      .cls-1 {
        fill: #fff;
        fill-rule: evenodd;
      }
    </style>
  </defs>
  <path d="M157.996,52.406 C157.996,53.379 158.000,54.355 157.895,55.479 C157.895,62.294 153.116,64.076 150.297,64.352 C147.891,64.593 145.381,63.732 143.903,62.253 C142.596,60.945 142.493,58.502 144.281,58.467 C145.486,60.098 151.747,60.328 152.077,56.450 C152.095,56.235 152.160,54.846 152.186,54.642 C151.976,55.118 151.731,55.524 151.463,55.876 C150.369,57.306 148.862,57.774 147.510,57.774 C146.172,57.774 144.863,57.093 143.893,55.808 C143.279,54.995 142.805,53.936 142.544,52.653 C142.412,52.006 142.330,51.307 142.319,50.547 C142.181,42.701 145.447,40.223 148.129,40.223 C149.401,40.223 151.842,40.980 152.357,43.699 C152.529,41.427 153.733,40.464 155.348,40.464 C156.071,40.464 156.895,40.670 157.721,41.015 C157.686,41.496 157.686,41.944 157.686,42.460 C157.686,45.523 157.996,49.033 157.996,52.406 ZM151.567,47.106 C151.567,46.974 151.553,46.825 151.524,46.669 C151.403,46.012 151.017,45.247 150.295,45.247 C149.752,45.247 149.420,45.794 149.226,46.605 C149.052,47.334 148.988,48.278 148.988,49.240 C148.988,50.081 148.990,50.927 149.078,51.631 C149.203,52.625 149.502,53.335 150.226,53.335 C150.459,53.335 150.699,53.241 150.913,53.031 C151.204,52.747 151.448,52.249 151.567,51.476 L151.567,47.106 ZM151.286,36.628 C151.064,36.466 150.722,36.232 150.287,36.017 C149.725,35.739 149.003,35.496 148.145,35.496 C147.866,35.496 147.586,35.549 147.314,35.628 C146.422,35.887 145.623,36.458 145.298,36.628 C144.677,36.954 144.068,37.075 143.518,37.084 C142.431,37.104 141.022,36.251 140.491,35.740 C139.403,34.693 137.638,33.024 135.546,31.054 C135.554,31.031 135.560,31.008 135.569,30.986 C129.455,25.226 120.438,16.782 117.352,13.683 C116.610,12.938 115.393,12.856 114.453,13.383 C111.543,15.014 110.121,16.599 109.457,17.580 C109.212,17.942 108.674,17.908 108.473,17.519 C108.076,16.750 107.365,15.636 106.153,14.437 C106.086,14.371 95.722,2.969 94.695,2.268 C93.942,1.755 92.863,1.800 91.784,2.567 C91.720,2.613 82.770,11.000 82.205,11.533 C81.097,12.580 80.450,13.485 80.032,14.270 C79.821,14.665 79.265,14.683 79.038,14.298 C78.412,13.237 77.291,11.698 76.161,10.580 C74.182,8.623 71.144,5.729 71.144,5.729 C70.622,5.308 69.530,5.077 68.425,6.146 L60.841,14.576 C60.841,14.577 60.841,14.576 60.841,14.577 C60.839,14.579 60.504,15.029 59.973,15.579 C58.853,16.740 57.908,17.940 57.378,18.841 C57.159,19.213 56.632,19.228 56.399,18.864 C55.773,17.889 54.534,16.284 52.420,13.832 C52.361,13.764 51.600,12.653 50.666,13.480 C50.324,13.782 49.557,14.691 49.557,14.691 L34.230,32.913 C34.228,32.910 34.225,32.907 34.223,32.904 L32.058,35.477 C32.058,35.477 31.221,36.525 30.615,36.657 C30.615,36.657 30.601,36.662 30.576,36.669 C30.208,36.784 29.804,36.743 29.466,36.569 C28.227,35.930 26.568,35.241 24.293,35.172 C23.902,35.160 23.540,35.222 23.207,35.301 C21.873,35.495 20.474,36.058 19.293,37.029 C19.292,37.030 19.290,37.031 19.288,37.031 C17.574,37.162 16.640,35.511 16.830,35.475 C18.339,35.171 19.502,34.314 20.468,33.356 C20.465,33.349 20.464,33.347 20.462,33.340 C19.383,33.192 18.667,33.037 18.766,33.018 C19.863,32.797 20.715,32.187 21.428,31.496 C21.425,31.489 21.425,31.488 21.422,31.480 C20.270,31.335 19.450,31.168 19.548,31.150 C20.734,30.908 21.587,30.137 22.283,29.365 C22.280,29.356 22.281,29.359 22.277,29.350 C21.323,29.238 20.622,29.095 20.700,29.080 C21.575,28.904 22.212,28.348 22.733,27.780 C23.875,26.534 24.293,24.802 24.331,24.052 C24.335,24.587 24.455,26.367 25.802,27.762 C26.331,28.309 26.999,28.831 27.988,29.152 C27.997,29.155 27.999,29.167 27.990,29.169 C27.834,29.196 27.133,29.314 26.242,29.398 C26.238,29.408 26.239,29.404 26.236,29.414 C26.935,30.142 27.826,30.838 29.155,31.258 C29.155,31.258 28.315,31.409 27.159,31.534 C27.156,31.541 27.156,31.542 27.153,31.550 C27.805,32.123 28.595,32.648 29.625,33.023 C29.716,33.057 29.703,33.192 29.607,33.207 C29.249,33.265 28.657,33.354 27.938,33.437 C27.935,33.443 27.934,33.446 27.931,33.452 C28.618,34.798 29.975,34.628 30.740,33.695 L33.484,30.525 C33.487,30.529 33.490,30.533 33.493,30.537 L47.892,13.910 C48.028,13.753 48.156,13.590 48.280,13.423 C48.651,12.923 49.690,11.676 51.052,11.359 C52.358,11.055 53.563,12.423 53.721,12.608 C53.751,12.643 55.564,14.865 56.024,15.515 C56.511,16.202 57.154,16.117 57.659,15.565 L59.432,13.629 L61.132,11.666 L62.349,10.261 L63.786,8.602 L65.834,6.237 C65.834,6.237 67.756,3.803 69.220,3.581 C69.223,3.581 69.225,3.581 69.227,3.580 C70.342,3.358 71.501,3.731 72.206,4.539 C73.048,5.505 77.819,10.878 79.734,10.958 C81.030,11.013 83.092,8.805 83.957,7.952 C86.715,5.235 89.894,2.083 90.429,1.695 C91.097,1.212 92.192,-0.214 94.225,-0.009 C95.211,0.090 96.334,1.275 96.334,1.275 L97.132,2.154 C97.132,2.154 105.127,11.051 107.852,13.313 C108.327,13.707 108.931,13.926 109.552,13.902 C109.625,13.880 109.742,13.844 109.816,13.822 C112.441,12.318 113.929,11.568 115.063,11.153 C116.132,10.763 117.355,11.003 118.154,11.750 C119.176,12.706 135.076,27.646 139.332,31.646 C139.318,31.663 139.306,31.681 139.292,31.698 C140.041,32.401 140.478,32.812 140.478,32.812 C140.485,32.681 143.250,36.444 144.581,33.776 C144.578,33.770 144.577,33.767 144.574,33.761 C143.866,33.678 143.285,33.588 142.934,33.531 C142.838,33.514 142.829,33.382 142.921,33.348 C143.931,32.972 144.704,32.448 145.343,31.875 C145.340,31.866 145.340,31.865 145.337,31.858 C144.204,31.732 143.381,31.583 143.381,31.583 C144.684,31.162 145.556,30.466 146.242,29.738 C146.238,29.728 146.239,29.732 146.236,29.723 C145.363,29.638 144.676,29.520 144.523,29.493 C144.514,29.491 144.516,29.479 144.525,29.476 C145.494,29.154 146.148,28.633 146.667,28.087 C147.987,26.691 148.104,24.910 148.108,24.376 C148.145,25.125 148.554,26.858 149.673,28.104 C150.184,28.672 150.807,29.229 151.665,29.404 C151.742,29.419 151.055,29.562 150.120,29.674 C150.116,29.683 150.117,29.680 150.114,29.689 C150.796,30.461 151.631,31.232 152.794,31.475 C152.890,31.492 152.087,31.659 150.958,31.804 C150.955,31.812 150.954,31.813 150.952,31.820 C151.650,32.511 152.485,33.122 153.560,33.342 C153.657,33.361 152.956,33.516 151.899,33.664 C151.896,33.672 151.895,33.673 151.893,33.680 C152.838,34.638 153.978,35.495 155.457,35.799 C155.700,35.846 154.061,38.662 151.286,36.628 ZM14.628,46.234 C16.242,47.816 16.275,51.012 15.267,52.897 C12.376,58.279 2.225,57.775 0.209,52.560 C-0.632,50.508 1.183,48.253 3.402,48.421 C5.385,51.416 8.948,52.324 9.452,50.238 C9.855,48.623 7.234,48.287 6.528,47.950 C2.830,46.504 0.041,45.696 0.377,41.019 C0.780,35.400 8.578,33.381 13.049,36.544 C15.637,38.395 16.309,41.692 12.208,43.442 C11.066,40.582 7.032,38.799 6.830,41.557 C6.662,43.644 12.376,43.980 14.628,46.234 ZM25.029,38.851 C30.324,38.885 32.146,42.155 32.559,44.116 C33.899,50.552 27.264,50.896 24.445,50.449 C24.445,53.477 29.671,52.479 30.943,50.758 C32.731,50.793 32.627,53.236 31.321,54.544 C29.843,56.024 27.333,56.884 24.926,56.643 C22.107,56.368 17.156,54.991 17.156,48.177 C17.156,41.639 21.626,38.817 25.029,38.851 ZM24.342,48.281 C24.411,48.418 25.098,47.936 25.476,47.386 C26.405,46.113 27.264,43.531 25.270,43.738 C24.067,43.979 23.998,47.627 24.342,48.281 ZM33.385,40.423 C33.385,40.423 34.210,39.188 37.431,39.104 C37.466,39.103 37.517,39.103 37.580,39.106 C39.008,39.169 40.121,40.373 40.125,41.803 C40.125,41.993 40.124,42.181 40.117,42.328 C40.167,42.118 40.235,41.923 40.314,41.736 C41.772,38.275 48.009,38.711 48.987,41.846 C49.426,40.602 50.448,39.763 51.659,39.399 C51.662,39.398 51.666,39.396 51.670,39.395 C51.716,39.381 51.764,39.372 51.810,39.359 C51.921,39.329 52.033,39.305 52.146,39.283 C53.601,38.971 54.962,39.423 56.259,40.338 C56.955,40.828 57.609,42.034 57.723,43.289 C57.826,44.424 57.759,45.916 57.828,48.408 C58.031,53.163 57.930,53.163 58.611,54.912 C58.511,55.015 57.666,55.805 56.823,56.166 C54.615,57.241 51.738,56.976 51.653,53.897 C51.619,52.968 51.894,45.741 51.894,45.741 C51.924,44.271 50.128,43.823 49.574,45.165 C49.501,45.355 49.451,45.577 49.434,45.838 C49.331,48.419 49.744,49.761 49.675,53.340 C49.660,54.180 49.663,54.930 49.443,55.506 C49.174,56.253 48.547,56.719 47.047,56.719 C44.021,56.753 43.505,54.895 43.574,52.864 L43.807,45.994 L43.815,45.775 C43.815,45.071 43.563,44.636 43.222,44.425 C42.754,44.136 42.119,44.276 41.726,44.728 C41.556,45.250 41.484,46.052 41.484,47.166 C41.516,47.731 41.538,48.293 41.549,48.849 C41.664,50.519 41.896,52.040 41.896,53.653 C41.896,54.647 41.430,55.822 40.479,56.383 C40.018,56.745 38.284,56.682 38.252,56.682 C38.212,56.682 38.175,56.678 38.136,56.676 C37.718,56.662 37.353,56.573 37.035,56.422 C35.221,55.664 34.848,52.938 34.848,49.989 C34.848,49.439 34.863,48.895 34.882,48.360 C34.888,48.195 34.939,47.811 34.975,47.275 C34.957,46.395 34.942,45.561 34.930,44.880 C34.779,43.508 34.367,41.915 33.385,40.423 ZM45.974,62.150 C46.770,62.153 47.344,62.432 47.878,62.892 C47.941,62.955 47.948,63.050 47.885,63.112 L47.671,63.324 C47.608,63.403 47.545,63.395 47.467,63.316 C47.058,62.959 46.500,62.720 45.964,62.718 C44.719,62.713 43.761,63.758 43.756,64.981 C43.751,66.195 44.700,67.248 45.946,67.253 C46.631,67.256 47.034,66.981 47.453,66.667 C47.532,66.605 47.595,66.613 47.642,66.645 L47.877,66.859 C47.940,66.906 47.924,67.017 47.869,67.071 C47.331,67.590 46.652,67.832 45.951,67.828 C44.375,67.822 43.112,66.563 43.118,64.986 C43.125,63.408 44.398,62.144 45.974,62.150 ZM49.249,62.242 L49.556,62.243 C49.635,62.244 49.706,62.315 49.705,62.394 L49.686,67.236 L51.955,67.246 C52.042,67.246 52.104,67.318 52.104,67.396 L52.103,67.625 C52.103,67.704 52.040,67.775 51.953,67.774 L49.226,67.763 C49.140,67.763 49.077,67.692 49.078,67.612 L49.099,62.392 C49.099,62.313 49.162,62.242 49.249,62.242 ZM55.139,62.186 L55.218,62.186 C55.289,62.186 55.328,62.226 55.351,62.274 L57.709,67.591 C57.756,67.694 57.693,67.796 57.574,67.796 L57.259,67.794 C57.188,67.794 57.141,67.746 57.126,67.707 L56.548,66.403 L53.751,66.392 L53.170,67.691 C53.154,67.730 53.107,67.777 53.036,67.777 L52.721,67.776 C52.603,67.775 52.540,67.673 52.588,67.570 L55.005,62.272 C55.028,62.225 55.068,62.185 55.139,62.186 ZM56.337,65.913 C55.954,65.052 55.580,64.183 55.197,63.322 L55.134,63.322 L53.974,65.904 L56.337,65.913 ZM58.333,66.821 C58.412,66.719 58.499,66.656 58.609,66.751 C58.664,66.799 59.236,67.353 59.938,67.355 C60.576,67.358 60.995,66.958 60.997,66.492 C60.999,65.948 60.528,65.623 59.623,65.241 C58.758,64.859 58.240,64.501 58.243,63.602 C58.245,63.066 58.674,62.200 59.927,62.205 C60.699,62.209 61.273,62.613 61.273,62.613 C61.320,62.637 61.414,62.732 61.319,62.881 C61.287,62.928 61.256,62.984 61.224,63.031 C61.153,63.141 61.073,63.172 60.948,63.101 C60.893,63.069 60.398,62.736 59.917,62.734 C59.082,62.731 58.828,63.266 58.826,63.597 C58.824,64.125 59.225,64.435 59.886,64.713 C60.947,65.151 61.631,65.557 61.628,66.471 C61.624,67.292 60.842,67.888 59.920,67.884 C58.990,67.880 58.362,67.333 58.260,67.239 C58.197,67.183 58.119,67.120 58.214,66.970 C58.253,66.923 58.293,66.868 58.333,66.821 ZM60.666,54.526 C60.488,54.041 60.394,53.529 60.369,53.012 C60.260,50.791 60.081,44.229 60.060,44.055 C60.034,43.846 59.968,41.942 58.940,40.763 C58.939,40.761 58.936,40.756 58.936,40.756 L58.939,40.753 C58.938,40.752 58.936,40.748 58.936,40.748 L59.587,40.358 L59.947,40.142 C59.947,40.142 61.219,39.453 62.628,39.453 C64.306,39.453 65.166,39.998 65.181,41.942 C65.182,42.070 65.179,42.204 65.173,42.343 C65.200,42.227 65.234,42.116 65.272,42.007 C65.287,41.963 65.305,41.921 65.321,41.877 C65.338,41.836 65.352,41.793 65.369,41.753 C65.375,41.739 65.382,41.727 65.388,41.713 C65.417,41.646 65.449,41.581 65.482,41.517 C65.504,41.474 65.527,41.430 65.550,41.388 C65.582,41.333 65.615,41.279 65.649,41.226 C65.680,41.178 65.711,41.131 65.743,41.086 C65.775,41.041 65.808,40.998 65.841,40.955 C65.881,40.904 65.922,40.854 65.965,40.806 C65.995,40.771 66.025,40.738 66.057,40.705 C66.108,40.651 66.161,40.598 66.215,40.547 C66.241,40.523 66.267,40.499 66.294,40.475 C66.359,40.418 66.426,40.363 66.495,40.310 C66.514,40.296 66.532,40.281 66.551,40.267 C66.633,40.206 66.718,40.148 66.805,40.094 C66.812,40.089 66.819,40.085 66.826,40.080 C69.214,38.595 73.269,39.385 74.042,41.862 C74.068,41.790 74.102,41.724 74.131,41.654 C74.155,41.598 74.177,41.541 74.203,41.487 C74.242,41.405 74.286,41.327 74.331,41.250 C74.355,41.207 74.380,41.164 74.406,41.123 C74.456,41.044 74.508,40.966 74.564,40.892 C74.587,40.861 74.611,40.831 74.635,40.800 C74.698,40.720 74.762,40.641 74.831,40.567 C74.832,40.566 74.834,40.565 74.835,40.564 C75.086,40.294 75.374,40.065 75.690,39.874 C75.697,39.870 75.703,39.865 75.710,39.861 C75.813,39.800 75.918,39.743 76.026,39.691 C76.033,39.687 76.039,39.684 76.046,39.681 C76.261,39.577 76.482,39.485 76.714,39.416 C76.717,39.414 76.721,39.413 76.725,39.412 C76.771,39.397 76.819,39.389 76.866,39.375 C76.976,39.346 77.089,39.321 77.202,39.300 C78.656,38.987 80.274,39.305 81.407,40.418 C81.532,40.542 81.654,40.672 81.766,40.815 C81.771,40.823 81.787,40.849 81.808,40.882 C81.812,40.888 81.818,40.898 81.822,40.905 C82.617,41.825 83.165,43.137 83.242,44.886 C83.248,45.026 83.256,45.165 83.256,45.311 C83.187,46.516 82.782,48.109 83.250,50.682 C83.539,52.271 83.965,52.706 84.339,53.488 C84.188,54.129 83.797,54.717 83.271,55.212 C83.272,55.217 83.273,55.222 83.274,55.227 C81.168,57.229 76.813,57.712 76.708,53.913 C76.674,52.984 76.949,45.757 76.949,45.757 C76.979,44.292 75.194,43.842 74.635,45.170 C74.558,45.364 74.506,45.593 74.489,45.862 C74.477,46.182 74.472,46.484 74.473,46.773 C74.481,48.662 74.748,50.021 74.738,52.713 C74.737,52.922 74.734,53.138 74.730,53.364 C74.726,53.568 74.723,53.766 74.719,53.958 C74.718,53.962 74.718,53.966 74.718,53.970 C74.713,54.161 74.705,54.345 74.692,54.522 C74.691,54.531 74.691,54.539 74.690,54.547 C74.677,54.712 74.656,54.867 74.630,55.018 C74.626,55.041 74.622,55.066 74.617,55.090 C74.569,55.335 74.501,55.562 74.393,55.760 C74.077,56.366 73.436,56.735 72.102,56.735 C69.076,56.770 68.561,54.911 68.629,52.881 L68.863,46.010 L68.870,45.791 C68.870,45.087 68.619,44.652 68.277,44.442 C67.809,44.153 67.174,44.292 66.781,44.745 C66.612,45.266 66.540,46.068 66.539,47.180 C66.539,47.187 66.539,47.194 66.539,47.200 C66.571,47.758 66.593,48.311 66.604,48.859 C66.604,48.861 66.604,48.863 66.604,48.865 C66.719,50.535 66.951,52.056 66.951,53.670 C66.951,54.664 66.302,56.308 65.534,56.400 C64.353,56.757 63.561,56.701 63.307,56.698 C63.267,56.697 61.490,56.757 60.730,54.683 C60.715,54.641 60.689,54.588 60.666,54.526 ZM62.530,66.838 C62.610,66.736 62.696,66.673 62.806,66.768 C62.861,66.815 63.434,67.370 64.136,67.373 C64.774,67.375 65.193,66.975 65.195,66.509 C65.197,65.965 64.726,65.640 63.821,65.258 C62.956,64.876 62.437,64.519 62.441,63.620 C62.443,63.083 62.872,62.217 64.125,62.222 C64.897,62.225 65.471,62.630 65.471,62.630 C65.518,62.654 65.612,62.749 65.517,62.898 C65.485,62.946 65.453,63.001 65.422,63.048 C65.350,63.158 65.271,63.190 65.146,63.118 C65.091,63.086 64.596,62.753 64.115,62.751 C63.280,62.747 63.025,63.283 63.024,63.614 C63.022,64.142 63.423,64.452 64.083,64.730 C65.145,65.169 65.829,65.574 65.825,66.488 C65.822,67.309 65.040,67.905 64.118,67.901 C63.188,67.897 62.560,67.350 62.458,67.256 C62.395,67.200 62.317,67.136 62.412,66.987 C62.451,66.940 62.491,66.885 62.530,66.838 ZM67.133,62.313 L67.448,62.314 C67.527,62.315 67.597,62.386 67.597,62.465 L67.576,67.686 C67.576,67.766 67.504,67.836 67.425,67.836 L67.110,67.835 C67.031,67.834 66.961,67.763 66.961,67.684 L66.982,62.463 C66.983,62.384 67.054,62.313 67.133,62.313 ZM71.647,62.253 C72.443,62.256 73.017,62.535 73.551,62.994 C73.614,63.057 73.621,63.152 73.558,63.215 L73.344,63.428 C73.281,63.506 73.218,63.498 73.139,63.419 C72.731,63.062 72.173,62.823 71.637,62.821 C70.392,62.816 69.434,63.861 69.429,65.084 C69.424,66.298 70.373,67.351 71.618,67.356 C72.304,67.359 72.707,67.084 73.126,66.771 C73.205,66.708 73.268,66.716 73.315,66.748 L73.550,66.962 C73.613,67.009 73.597,67.120 73.541,67.174 C73.004,67.693 72.325,67.934 71.624,67.932 C70.048,67.925 68.785,66.666 68.791,65.089 C68.797,63.511 70.071,62.246 71.647,62.253 ZM83.329,64.387 L76.205,64.387 L76.205,62.803 L83.329,62.803 L83.329,64.387 ZM83.329,67.557 L76.205,67.557 L76.205,65.972 L83.329,65.972 L83.329,67.557 ZM92.928,38.851 C98.222,38.885 100.044,42.155 100.457,44.116 C101.798,50.552 95.162,50.896 92.343,50.449 C92.343,53.477 97.569,52.479 98.841,50.758 C100.629,50.793 100.525,53.236 99.219,54.544 C97.741,56.024 95.231,56.884 92.825,56.643 C90.005,56.368 85.055,54.991 85.055,48.177 C85.055,41.639 89.524,38.817 92.928,38.851 ZM92.240,48.281 C92.309,48.418 92.996,47.936 93.375,47.386 C94.303,46.113 95.162,43.531 93.168,43.738 C91.965,43.979 91.896,47.627 92.240,48.281 ZM87.641,62.280 L87.720,62.280 C87.791,62.281 87.830,62.320 87.853,62.368 L90.211,67.685 C90.258,67.788 90.195,67.890 90.077,67.890 L89.761,67.889 C89.691,67.888 89.644,67.840 89.628,67.801 L89.050,66.498 L86.253,66.486 L85.672,67.785 C85.657,67.824 85.609,67.872 85.538,67.871 L85.223,67.870 C85.105,67.870 85.042,67.767 85.090,67.664 L87.507,62.366 C87.530,62.319 87.570,62.280 87.641,62.280 ZM88.839,66.008 C88.457,65.147 88.082,64.278 87.700,63.416 L87.637,63.416 L86.476,65.998 L88.839,66.008 ZM91.168,62.373 L91.468,62.374 C91.555,62.375 91.617,62.446 91.617,62.525 L91.604,65.814 C91.600,66.713 92.157,67.417 93.079,67.421 C94.008,67.425 94.579,66.741 94.582,65.842 L94.596,62.537 C94.596,62.458 94.659,62.387 94.746,62.388 L95.045,62.389 C95.124,62.389 95.195,62.461 95.194,62.540 L95.181,65.876 C95.176,67.074 94.321,67.986 93.076,67.981 C91.839,67.976 91.000,67.057 91.005,65.859 L91.018,62.522 C91.018,62.444 91.090,62.373 91.168,62.373 ZM96.474,66.938 C96.553,66.836 96.640,66.773 96.750,66.868 C96.805,66.916 97.378,67.470 98.079,67.473 C98.717,67.475 99.137,67.075 99.139,66.609 C99.141,66.065 98.669,65.740 97.765,65.358 C96.900,64.976 96.381,64.619 96.385,63.720 C96.387,63.183 96.816,62.317 98.069,62.323 C98.841,62.325 99.414,62.730 99.414,62.730 C99.462,62.754 99.556,62.849 99.461,62.998 C99.429,63.046 99.397,63.101 99.366,63.148 C99.294,63.258 99.215,63.290 99.089,63.218 C99.034,63.186 98.539,62.853 98.059,62.851 C97.224,62.847 96.969,63.383 96.968,63.714 C96.966,64.243 97.366,64.552 98.027,64.830 C99.089,65.269 99.773,65.674 99.769,66.588 C99.766,67.409 98.983,68.005 98.061,68.001 C97.132,67.997 96.504,67.451 96.401,67.355 C96.339,67.300 96.260,67.237 96.355,67.087 C96.395,67.040 96.434,66.985 96.474,66.938 ZM100.336,62.410 L103.677,62.424 C103.764,62.424 103.826,62.496 103.826,62.575 L103.825,62.804 C103.824,62.882 103.761,62.953 103.675,62.953 L102.304,62.947 L102.284,67.789 C102.284,67.869 102.212,67.939 102.133,67.939 L101.834,67.938 C101.755,67.937 101.685,67.866 101.685,67.787 L101.705,62.944 L100.334,62.939 C100.247,62.939 100.184,62.868 100.185,62.789 L100.185,62.560 C100.186,62.481 100.249,62.410 100.336,62.410 ZM102.252,48.685 C102.275,48.044 102.984,44.135 100.755,40.748 C100.755,40.748 101.579,39.514 104.801,39.429 C105.180,39.419 107.443,39.529 107.581,41.814 C107.581,42.915 107.547,43.638 107.547,44.325 C107.994,41.229 110.710,39.232 112.979,39.232 C114.663,39.232 116.073,40.334 116.073,42.949 C116.073,45.805 114.423,46.322 112.360,46.322 C111.844,46.322 111.329,46.288 110.847,46.253 C110.847,45.392 110.572,44.257 109.782,44.257 C109.025,44.257 108.750,45.255 108.750,47.458 C108.750,49.832 109.163,51.794 109.163,53.928 C109.163,55.510 108.097,56.956 105.519,56.956 C102.734,56.956 102.218,53.789 102.218,50.314 C102.218,49.764 102.232,49.220 102.252,48.685 ZM104.841,62.429 L106.882,62.437 C107.828,62.441 108.597,63.186 108.593,64.124 C108.590,64.850 108.107,65.455 107.420,65.729 L108.492,67.736 C108.546,67.839 108.491,67.965 108.356,67.964 L107.955,67.963 C107.884,67.962 107.845,67.923 107.829,67.891 L106.789,65.797 L105.285,65.790 L105.276,67.801 C105.276,67.881 105.205,67.952 105.126,67.951 L104.819,67.950 C104.732,67.950 104.669,67.879 104.670,67.799 L104.691,62.578 C104.691,62.499 104.754,62.429 104.841,62.429 ZM106.831,65.277 C107.437,65.279 107.968,64.777 107.970,64.130 C107.973,63.530 107.447,63.016 106.840,63.013 L105.311,63.007 L105.302,65.270 L106.831,65.277 ZM110.047,62.450 L110.362,62.451 C110.441,62.451 110.512,62.523 110.512,62.602 L110.490,67.823 C110.490,67.902 110.419,67.972 110.340,67.972 L110.025,67.971 C109.946,67.971 109.875,67.900 109.876,67.820 L109.897,62.600 C109.897,62.521 109.969,62.450 110.047,62.450 ZM114.291,62.387 L114.369,62.387 C114.441,62.388 114.480,62.427 114.503,62.475 L116.861,67.792 C116.908,67.895 116.845,67.997 116.726,67.997 L116.411,67.996 C116.341,67.995 116.293,67.947 116.278,67.908 L115.700,66.605 L112.903,66.593 L112.323,67.892 C112.307,67.931 112.259,67.979 112.188,67.978 L111.873,67.977 C111.755,67.976 111.692,67.873 111.740,67.771 L114.157,62.473 C114.180,62.426 114.220,62.386 114.291,62.387 ZM115.489,66.114 C115.107,65.254 114.732,64.384 114.349,63.523 L114.286,63.523 L113.125,66.105 L115.489,66.114 ZM119.592,37.074 C115.580,37.189 115.389,31.642 119.363,31.336 C124.101,31.183 123.681,36.959 119.592,37.074 ZM117.478,44.798 C117.472,44.452 117.461,43.174 117.461,42.949 C117.461,41.763 117.139,40.672 116.836,40.071 C118.461,38.521 121.443,38.337 122.913,40.318 C123.205,40.712 123.433,41.198 123.570,41.790 C123.631,42.053 123.675,42.334 123.698,42.639 C123.820,44.242 123.602,52.070 123.619,53.023 C123.635,53.961 123.671,54.949 124.000,55.543 C123.943,55.616 123.885,55.687 123.825,55.754 C122.941,56.744 121.752,56.996 120.535,56.887 C118.541,56.715 117.372,54.891 117.407,52.551 C117.459,49.887 117.515,46.870 117.478,44.798 ZM127.984,39.609 C129.771,39.609 130.493,40.125 130.528,42.500 C131.009,40.503 132.934,39.437 134.963,39.437 C137.424,39.437 139.998,40.991 140.459,44.356 C140.535,44.911 140.529,45.472 140.479,46.029 C140.397,46.953 140.250,48.771 140.267,49.743 C140.294,51.522 140.646,53.024 141.214,54.243 C140.561,55.688 138.683,56.816 137.025,56.816 C135.272,56.816 134.000,55.749 134.000,52.824 C134.000,50.518 134.275,46.010 134.275,46.010 C134.275,44.909 133.794,44.427 133.140,44.427 C132.453,44.427 131.800,45.012 131.800,45.941 C131.800,48.729 132.006,49.933 132.006,53.512 C131.937,55.474 131.318,56.850 128.602,56.850 C127.072,56.850 126.611,56.217 126.183,55.583 C125.527,54.613 125.898,44.648 125.777,43.046 C125.754,42.741 125.695,41.501 125.302,40.297 C125.302,40.297 126.574,39.609 127.984,39.609 Z" class="cls-1"/>
</svg>
